<svg width="304" height="262" viewBox="0 0 304 262" fill="none" xmlns="http://www.w3.org/2000/svg">
<path fill-rule="evenodd" clip-rule="evenodd" d="M146.828 4.032C141.261 9.885 127.906 30.468 123.911 39.354C122.021 43.558 119.927 46.998 119.257 46.999C118.588 47 115.683 44.906 112.801 42.346C102.208 32.938 77.121 18.997 70.798 19.004C66.944 19.008 61.73 21.896 59.607 25.202C58.796 26.466 56.682 34.925 54.909 44C53.136 53.075 51.311 60.916 50.855 61.425C50.351 61.986 46.577 61.691 41.249 60.674C36.423 59.752 27.731 58.503 21.933 57.898C9.52599 56.604 5.33699 57.716 1.99999 63.19C-0.617008 67.482 -0.549008 70.665 2.48099 85.63C8.28199 114.279 20.6 141.524 36.236 160.29C38.431 162.925 40.044 165.263 39.82 165.487C39.596 165.711 35.503 168.055 30.725 170.697C12.123 180.98 3.97399 189.065 3.97399 197.239C3.97399 200.446 4.75999 201.926 8.70099 206.14C15.683 213.604 27.767 222.322 38.235 227.448C61.631 238.904 88.263 241.619 112.974 235.066C117.099 233.972 121.374 232.84 122.474 232.55C124.113 232.119 126.37 234.595 134.974 246.262C144.168 258.729 145.93 260.613 149.14 261.406C151.674 262.032 153.732 261.929 155.803 261.071C158.183 260.085 176.634 240.833 181.551 234.204C182.483 232.949 183.903 233.07 192.051 235.1C200.155 237.12 203.854 237.441 218.474 237.393C232.457 237.347 236.81 236.969 243.005 235.265C261.709 230.121 276.285 222.514 289.407 211.049C297.329 204.128 299.958 200.605 299.967 196.9C299.984 190.551 290.099 181.152 274.656 172.833C262.485 166.276 262.938 167.017 267.649 161.371C284.503 141.173 297.975 108.909 302.545 77.801C303.994 67.936 303.988 66.831 302.468 63.628C299.72 57.837 295.888 56.691 283.718 58.019C278.084 58.634 269.302 59.936 264.204 60.912L254.934 62.687L254.522 60.593C254.295 59.442 253.6 55.575 252.976 52C251.528 43.709 248.399 33.019 245.504 26.471C243.76 22.529 242.367 20.94 239.436 19.549C235.799 17.823 235.383 17.82 230.052 19.48C221.751 22.065 206.45 30.22 198.158 36.479C194.134 39.515 190.534 42 190.158 41.999C189.782 41.998 188.165 39.636 186.564 36.749C180.685 26.143 170.819 11.979 165.197 6.07C159.846 0.447 159.098 0 155.043 0C151.23 0 150.169 0.521002 146.828 4.032ZM160.513 16.75C190.779 54.845 200.944 94.681 190.425 133.985C187.495 144.933 181.002 159.181 174.451 169.035C169.753 176.101 153.499 195 152.12 195C151.063 195 141.309 183.138 136.656 176.196C127.722 162.865 120.632 145.421 117.88 130C115.835 118.537 116.302 96.553 118.851 84.352C122.621 66.299 129.445 49.075 139.186 33.023C144.507 24.256 154.098 11 155.12 11C155.574 11 158.001 13.587 160.513 16.75ZM237.198 34.545C239.674 40.823 242.634 52.833 243.504 60.136L244.176 65.772L238.825 67.531C231.438 69.958 218.06 76.196 210.862 80.568C207.559 82.575 204.709 84.055 204.527 83.858C204.346 83.661 203.226 79.593 202.038 74.818C200.85 70.043 198.753 63.293 197.378 59.818L194.877 53.5L199.176 49.625C209.194 40.595 230.405 28.384 234.359 29.369C234.846 29.491 236.124 31.82 237.198 34.545ZM80.249 33.627C96.126 41.596 113.974 55.924 113.974 60.701C113.974 61.738 112.881 66.392 111.545 71.043C110.209 75.694 108.819 81.3 108.457 83.5C107.169 91.332 107.173 91.326 104.148 88.996C92.226 79.812 76.024 70.592 67.12 67.925C64.725 67.208 62.523 65.988 62.226 65.215C61.744 63.958 67.599 32.598 68.661 30.75C69.554 29.196 73.252 30.114 80.249 33.627ZM30.593 69.547C61.4 74.915 82.54 84.141 100.078 99.873L105.683 104.9L106.248 117.7C107.362 142.916 116.249 166.583 132.851 188.551C136.494 193.371 140.134 198.208 140.94 199.299C142.373 201.238 142.268 201.268 136.44 200.597C110.733 197.634 91.964 191.073 72.342 178.188C45.497 160.561 25.663 132.332 16.511 98.725C13.767 88.651 10.714 70.229 11.561 68.859C12.38 67.534 20.784 67.838 30.593 69.547ZM292.39 73.25C287.817 110.014 271.177 144.671 247.465 166.815C229.875 183.242 207.293 194.279 182.974 198.335C172.105 200.148 162.974 200.971 162.974 200.138C162.974 199.825 164.962 197.528 167.392 195.034C174.692 187.542 185.375 172.523 190.741 162.206C200.272 143.882 204.678 127.816 205.691 107.691L206.285 95.882L210.729 92.824C227.4 81.355 266.777 68.823 288.258 68.15L293.043 68L292.39 73.25ZM54.738 178.677C76.506 196.428 106.347 208.6 133.224 210.693C137.486 211.025 140.974 211.596 140.974 211.963C140.974 213.171 126.058 220.032 117.185 222.905C87.679 232.459 56.698 228.145 31.028 210.906C21.341 204.4 14.452 197.802 15.231 195.773C16.782 191.73 43.158 174.077 47.738 174.017C48.433 174.008 51.583 176.105 54.738 178.677ZM263.774 178.899C270.883 182.474 286.931 193.504 288.341 195.785C289.216 197.2 279.349 206.143 270.639 211.829C254.673 222.251 237.664 227.271 217.974 227.372C200.657 227.46 186.937 224.188 168.974 215.686L160.474 211.662L168.974 210.847C201.143 207.761 231.47 195.878 250.056 179.076C252.486 176.879 254.821 175.064 255.246 175.041C255.671 175.018 259.508 176.755 263.774 178.899ZM170.949 229.318C170.975 230.162 153.231 250.323 152.106 250.727C151.37 250.992 134.542 228.083 135.099 227.575C135.305 227.387 139.041 225.449 143.4 223.267L151.326 219.3L161.124 223.9C166.514 226.43 170.935 228.868 170.949 229.318Z" fill="white"/>
</svg>
