<svg id="visual" viewBox="0 0 960 120" width="960" height="120" xmlns="http://www.w3.org/2000/svg" xmlns:xlink="http://www.w3.org/1999/xlink" version="1.1"><rect x="0" y="0" width="960" height="120" fill="#D2D6E2"></rect><path d="M0 85L13.3 81.7C26.7 78.3 53.3 71.7 80 71.8C106.7 72 133.3 79 160 84.2C186.7 89.3 213.3 92.7 240 89.2C266.7 85.7 293.3 75.3 320 74.7C346.7 74 373.3 83 400 83.3C426.7 83.7 453.3 75.3 480 77C506.7 78.7 533.3 90.3 560 95.2C586.7 100 613.3 98 640 98C666.7 98 693.3 100 720 97.5C746.7 95 773.3 88 800 87.5C826.7 87 853.3 93 880 92.8C906.7 92.7 933.3 86.3 946.7 83.2L960 80L960 0L946.7 0C933.3 0 906.7 0 880 0C853.3 0 826.7 0 800 0C773.3 0 746.7 0 720 0C693.3 0 666.7 0 640 0C613.3 0 586.7 0 560 0C533.3 0 506.7 0 480 0C453.3 0 426.7 0 400 0C373.3 0 346.7 0 320 0C293.3 0 266.7 0 240 0C213.3 0 186.7 0 160 0C133.3 0 106.7 0 80 0C53.3 0 26.7 0 13.3 0L0 0Z" fill="#ffdc9a"></path><path d="M0 55L13.3 60.3C26.7 65.7 53.3 76.3 80 78.5C106.7 80.7 133.3 74.3 160 74.3C186.7 74.3 213.3 80.7 240 83C266.7 85.3 293.3 83.7 320 80C346.7 76.3 373.3 70.7 400 68.8C426.7 67 453.3 69 480 69.7C506.7 70.3 533.3 69.7 560 68C586.7 66.3 613.3 63.7 640 65.3C666.7 67 693.3 73 720 72.5C746.7 72 773.3 65 800 63.3C826.7 61.7 853.3 65.3 880 68.2C906.7 71 933.3 73 946.7 74L960 75L960 0L946.7 0C933.3 0 906.7 0 880 0C853.3 0 826.7 0 800 0C773.3 0 746.7 0 720 0C693.3 0 666.7 0 640 0C613.3 0 586.7 0 560 0C533.3 0 506.7 0 480 0C453.3 0 426.7 0 400 0C373.3 0 346.7 0 320 0C293.3 0 266.7 0 240 0C213.3 0 186.7 0 160 0C133.3 0 106.7 0 80 0C53.3 0 26.7 0 13.3 0L0 0Z" fill="#facf84"></path><path d="M0 64L13.3 65.7C26.7 67.3 53.3 70.7 80 69.5C106.7 68.3 133.3 62.7 160 62.3C186.7 62 213.3 67 240 68.8C266.7 70.7 293.3 69.3 320 64.7C346.7 60 373.3 52 400 50C426.7 48 453.3 52 480 54.5C506.7 57 533.3 58 560 57.7C586.7 57.3 613.3 55.7 640 53.3C666.7 51 693.3 48 720 47.2C746.7 46.3 773.3 47.7 800 47.8C826.7 48 853.3 47 880 49.5C906.7 52 933.3 58 946.7 61L960 64L960 0L946.7 0C933.3 0 906.7 0 880 0C853.3 0 826.7 0 800 0C773.3 0 746.7 0 720 0C693.3 0 666.7 0 640 0C613.3 0 586.7 0 560 0C533.3 0 506.7 0 480 0C453.3 0 426.7 0 400 0C373.3 0 346.7 0 320 0C293.3 0 266.7 0 240 0C213.3 0 186.7 0 160 0C133.3 0 106.7 0 80 0C53.3 0 26.7 0 13.3 0L0 0Z" fill="#f6c26e"></path><path d="M0 52L13.3 49C26.7 46 53.3 40 80 38.5C106.7 37 133.3 40 160 43.7C186.7 47.3 213.3 51.7 240 53.3C266.7 55 293.3 54 320 54.5C346.7 55 373.3 57 400 57.8C426.7 58.7 453.3 58.3 480 56.3C506.7 54.3 533.3 50.7 560 47.3C586.7 44 613.3 41 640 40.2C666.7 39.3 693.3 40.7 720 40.5C746.7 40.3 773.3 38.7 800 38C826.7 37.3 853.3 37.7 880 39C906.7 40.3 933.3 42.7 946.7 43.8L960 45L960 0L946.7 0C933.3 0 906.7 0 880 0C853.3 0 826.7 0 800 0C773.3 0 746.7 0 720 0C693.3 0 666.7 0 640 0C613.3 0 586.7 0 560 0C533.3 0 506.7 0 480 0C453.3 0 426.7 0 400 0C373.3 0 346.7 0 320 0C293.3 0 266.7 0 240 0C213.3 0 186.7 0 160 0C133.3 0 106.7 0 80 0C53.3 0 26.7 0 13.3 0L0 0Z" fill="#f2b459"></path><path d="M0 27L13.3 27.8C26.7 28.7 53.3 30.3 80 32.2C106.7 34 133.3 36 160 37.2C186.7 38.3 213.3 38.7 240 37.5C266.7 36.3 293.3 33.7 320 33C346.7 32.3 373.3 33.7 400 35.8C426.7 38 453.3 41 480 43.3C506.7 45.7 533.3 47.3 560 46.5C586.7 45.7 613.3 42.3 640 40C666.7 37.7 693.3 36.3 720 37.7C746.7 39 773.3 43 800 43.7C826.7 44.3 853.3 41.7 880 41C906.7 40.3 933.3 41.7 946.7 42.3L960 43L960 0L946.7 0C933.3 0 906.7 0 880 0C853.3 0 826.7 0 800 0C773.3 0 746.7 0 720 0C693.3 0 666.7 0 640 0C613.3 0 586.7 0 560 0C533.3 0 506.7 0 480 0C453.3 0 426.7 0 400 0C373.3 0 346.7 0 320 0C293.3 0 266.7 0 240 0C213.3 0 186.7 0 160 0C133.3 0 106.7 0 80 0C53.3 0 26.7 0 13.3 0L0 0Z" fill="#eea643"></path><path d="M0 24L13.3 22.7C26.7 21.3 53.3 18.7 80 19.8C106.7 21 133.3 26 160 29C186.7 32 213.3 33 240 30.3C266.7 27.7 293.3 21.3 320 18.2C346.7 15 373.3 15 400 17C426.7 19 453.3 23 480 22.8C506.7 22.7 533.3 18.3 560 19.7C586.7 21 613.3 28 640 28.2C666.7 28.3 693.3 21.7 720 20C746.7 18.3 773.3 21.7 800 22.8C826.7 24 853.3 23 880 23.5C906.7 24 933.3 26 946.7 27L960 28L960 0L946.7 0C933.3 0 906.7 0 880 0C853.3 0 826.7 0 800 0C773.3 0 746.7 0 720 0C693.3 0 666.7 0 640 0C613.3 0 586.7 0 560 0C533.3 0 506.7 0 480 0C453.3 0 426.7 0 400 0C373.3 0 346.7 0 320 0C293.3 0 266.7 0 240 0C213.3 0 186.7 0 160 0C133.3 0 106.7 0 80 0C53.3 0 26.7 0 13.3 0L0 0Z" fill="#ea982d"></path><path d="M0 21L13.3 20C26.7 19 53.3 17 80 16.2C106.7 15.3 133.3 15.7 160 15.2C186.7 14.7 213.3 13.3 240 14C266.7 14.7 293.3 17.3 320 17.2C346.7 17 373.3 14 400 11.8C426.7 9.7 453.3 8.3 480 9.8C506.7 11.3 533.3 15.7 560 17.7C586.7 19.7 613.3 19.3 640 17.3C666.7 15.3 693.3 11.7 720 10.5C746.7 9.3 773.3 10.7 800 11.8C826.7 13 853.3 14 880 13.2C906.7 12.3 933.3 9.7 946.7 8.3L960 7L960 0L946.7 0C933.3 0 906.7 0 880 0C853.3 0 826.7 0 800 0C773.3 0 746.7 0 720 0C693.3 0 666.7 0 640 0C613.3 0 586.7 0 560 0C533.3 0 506.7 0 480 0C453.3 0 426.7 0 400 0C373.3 0 346.7 0 320 0C293.3 0 266.7 0 240 0C213.3 0 186.7 0 160 0C133.3 0 106.7 0 80 0C53.3 0 26.7 0 13.3 0L0 0Z" fill="#e68910"></path></svg>