<svg id="visual" viewBox="0 0 960 120" width="960" height="120" xmlns="http://www.w3.org/2000/svg" xmlns:xlink="http://www.w3.org/1999/xlink" version="1.1"><rect x="0" y="0" width="960" height="120" fill="#D2D6E2"></rect><path d="M0 85L13.3 86.7C26.7 88.3 53.3 91.7 80 89.2C106.7 86.7 133.3 78.3 160 76.8C186.7 75.3 213.3 80.7 240 81.2C266.7 81.7 293.3 77.3 320 73.3C346.7 69.3 373.3 65.7 400 67.2C426.7 68.7 453.3 75.3 480 81.2C506.7 87 533.3 92 560 95.2C586.7 98.3 613.3 99.7 640 100.3C666.7 101 693.3 101 720 95.7C746.7 90.3 773.3 79.7 800 74.8C826.7 70 853.3 71 880 71C906.7 71 933.3 70 946.7 69.5L960 69L960 0L946.7 0C933.3 0 906.7 0 880 0C853.3 0 826.7 0 800 0C773.3 0 746.7 0 720 0C693.3 0 666.7 0 640 0C613.3 0 586.7 0 560 0C533.3 0 506.7 0 480 0C453.3 0 426.7 0 400 0C373.3 0 346.7 0 320 0C293.3 0 266.7 0 240 0C213.3 0 186.7 0 160 0C133.3 0 106.7 0 80 0C53.3 0 26.7 0 13.3 0L0 0Z" fill="#bed4a2"></path><path d="M0 51L13.3 52.3C26.7 53.7 53.3 56.3 80 58.5C106.7 60.7 133.3 62.3 160 66.2C186.7 70 213.3 76 240 79.8C266.7 83.7 293.3 85.3 320 81C346.7 76.7 373.3 66.3 400 60.8C426.7 55.3 453.3 54.7 480 59.5C506.7 64.3 533.3 74.7 560 74.7C586.7 74.7 613.3 64.3 640 59C666.7 53.7 693.3 53.3 720 56.5C746.7 59.7 773.3 66.3 800 71C826.7 75.7 853.3 78.3 880 75C906.7 71.7 933.3 62.3 946.7 57.7L960 53L960 0L946.7 0C933.3 0 906.7 0 880 0C853.3 0 826.7 0 800 0C773.3 0 746.7 0 720 0C693.3 0 666.7 0 640 0C613.3 0 586.7 0 560 0C533.3 0 506.7 0 480 0C453.3 0 426.7 0 400 0C373.3 0 346.7 0 320 0C293.3 0 266.7 0 240 0C213.3 0 186.7 0 160 0C133.3 0 106.7 0 80 0C53.3 0 26.7 0 13.3 0L0 0Z" fill="#b4cf92"></path><path d="M0 41L13.3 42.2C26.7 43.3 53.3 45.7 80 46.5C106.7 47.3 133.3 46.7 160 47.2C186.7 47.7 213.3 49.3 240 49.7C266.7 50 293.3 49 320 50.3C346.7 51.7 373.3 55.3 400 54.8C426.7 54.3 453.3 49.7 480 49.8C506.7 50 533.3 55 560 54.7C586.7 54.3 613.3 48.7 640 45.8C666.7 43 693.3 43 720 47.5C746.7 52 773.3 61 800 61C826.7 61 853.3 52 880 52.5C906.7 53 933.3 63 946.7 68L960 73L960 0L946.7 0C933.3 0 906.7 0 880 0C853.3 0 826.7 0 800 0C773.3 0 746.7 0 720 0C693.3 0 666.7 0 640 0C613.3 0 586.7 0 560 0C533.3 0 506.7 0 480 0C453.3 0 426.7 0 400 0C373.3 0 346.7 0 320 0C293.3 0 266.7 0 240 0C213.3 0 186.7 0 160 0C133.3 0 106.7 0 80 0C53.3 0 26.7 0 13.3 0L0 0Z" fill="#aac982"></path><path d="M0 37L13.3 36.8C26.7 36.7 53.3 36.3 80 40.3C106.7 44.3 133.3 52.7 160 53C186.7 53.3 213.3 45.7 240 41.3C266.7 37 293.3 36 320 39.3C346.7 42.7 373.3 50.3 400 50.8C426.7 51.3 453.3 44.7 480 44.8C506.7 45 533.3 52 560 53.8C586.7 55.7 613.3 52.3 640 52C666.7 51.7 693.3 54.3 720 52.2C746.7 50 773.3 43 800 41.8C826.7 40.7 853.3 45.3 880 48.3C906.7 51.3 933.3 52.7 946.7 53.3L960 54L960 0L946.7 0C933.3 0 906.7 0 880 0C853.3 0 826.7 0 800 0C773.3 0 746.7 0 720 0C693.3 0 666.7 0 640 0C613.3 0 586.7 0 560 0C533.3 0 506.7 0 480 0C453.3 0 426.7 0 400 0C373.3 0 346.7 0 320 0C293.3 0 266.7 0 240 0C213.3 0 186.7 0 160 0C133.3 0 106.7 0 80 0C53.3 0 26.7 0 13.3 0L0 0Z" fill="#a0c472"></path><path d="M0 36L13.3 36.2C26.7 36.3 53.3 36.7 80 35C106.7 33.3 133.3 29.7 160 27.5C186.7 25.3 213.3 24.7 240 25C266.7 25.3 293.3 26.7 320 28.8C346.7 31 373.3 34 400 37C426.7 40 453.3 43 480 40.8C506.7 38.7 533.3 31.3 560 31.2C586.7 31 613.3 38 640 41.7C666.7 45.3 693.3 45.7 720 46.3C746.7 47 773.3 48 800 47.2C826.7 46.3 853.3 43.7 880 40.2C906.7 36.7 933.3 32.3 946.7 30.2L960 28L960 0L946.7 0C933.3 0 906.7 0 880 0C853.3 0 826.7 0 800 0C773.3 0 746.7 0 720 0C693.3 0 666.7 0 640 0C613.3 0 586.7 0 560 0C533.3 0 506.7 0 480 0C453.3 0 426.7 0 400 0C373.3 0 346.7 0 320 0C293.3 0 266.7 0 240 0C213.3 0 186.7 0 160 0C133.3 0 106.7 0 80 0C53.3 0 26.7 0 13.3 0L0 0Z" fill="#96bf62"></path><path d="M0 20L13.3 20.8C26.7 21.7 53.3 23.3 80 25.3C106.7 27.3 133.3 29.7 160 31.5C186.7 33.3 213.3 34.7 240 33.5C266.7 32.3 293.3 28.7 320 26.2C346.7 23.7 373.3 22.3 400 23.5C426.7 24.7 453.3 28.3 480 28.3C506.7 28.3 533.3 24.7 560 25.2C586.7 25.7 613.3 30.3 640 29.8C666.7 29.3 693.3 23.7 720 22.7C746.7 21.7 773.3 25.3 800 27.7C826.7 30 853.3 31 880 30.8C906.7 30.7 933.3 29.3 946.7 28.7L960 28L960 0L946.7 0C933.3 0 906.7 0 880 0C853.3 0 826.7 0 800 0C773.3 0 746.7 0 720 0C693.3 0 666.7 0 640 0C613.3 0 586.7 0 560 0C533.3 0 506.7 0 480 0C453.3 0 426.7 0 400 0C373.3 0 346.7 0 320 0C293.3 0 266.7 0 240 0C213.3 0 186.7 0 160 0C133.3 0 106.7 0 80 0C53.3 0 26.7 0 13.3 0L0 0Z" fill="#8cb951"></path><path d="M0 22L13.3 21.8C26.7 21.7 53.3 21.3 80 20C106.7 18.7 133.3 16.3 160 16.2C186.7 16 213.3 18 240 18.3C266.7 18.7 293.3 17.3 320 15.7C346.7 14 373.3 12 400 13.2C426.7 14.3 453.3 18.7 480 19.8C506.7 21 533.3 19 560 18.2C586.7 17.3 613.3 17.7 640 16.3C666.7 15 693.3 12 720 12.5C746.7 13 773.3 17 800 18.7C826.7 20.3 853.3 19.7 880 18C906.7 16.3 933.3 13.7 946.7 12.3L960 11L960 0L946.7 0C933.3 0 906.7 0 880 0C853.3 0 826.7 0 800 0C773.3 0 746.7 0 720 0C693.3 0 666.7 0 640 0C613.3 0 586.7 0 560 0C533.3 0 506.7 0 480 0C453.3 0 426.7 0 400 0C373.3 0 346.7 0 320 0C293.3 0 266.7 0 240 0C213.3 0 186.7 0 160 0C133.3 0 106.7 0 80 0C53.3 0 26.7 0 13.3 0L0 0Z" fill="#81b440"></path></svg>