<svg id="visual" viewBox="0 0 960 120" width="960" height="120" xmlns="http://www.w3.org/2000/svg" xmlns:xlink="http://www.w3.org/1999/xlink" version="1.1"><rect x="0" y="0" width="960" height="120" fill="#D2D6E2"></rect><path d="M0 38L13.3 35.2C26.7 32.3 53.3 26.7 80 27.2C106.7 27.7 133.3 34.3 160 39.7C186.7 45 213.3 49 240 51.5C266.7 54 293.3 55 320 52.7C346.7 50.3 373.3 44.7 400 39.5C426.7 34.3 453.3 29.7 480 29.2C506.7 28.7 533.3 32.3 560 30.7C586.7 29 613.3 22 640 24.3C666.7 26.7 693.3 38.3 720 39.3C746.7 40.3 773.3 30.7 800 25C826.7 19.3 853.3 17.7 880 18.5C906.7 19.3 933.3 22.7 946.7 24.3L960 26L960 121L946.7 121C933.3 121 906.7 121 880 121C853.3 121 826.7 121 800 121C773.3 121 746.7 121 720 121C693.3 121 666.7 121 640 121C613.3 121 586.7 121 560 121C533.3 121 506.7 121 480 121C453.3 121 426.7 121 400 121C373.3 121 346.7 121 320 121C293.3 121 266.7 121 240 121C213.3 121 186.7 121 160 121C133.3 121 106.7 121 80 121C53.3 121 26.7 121 13.3 121L0 121Z" fill="#c386f8"></path><path d="M0 29L13.3 33.7C26.7 38.3 53.3 47.7 80 48C106.7 48.3 133.3 39.7 160 39C186.7 38.3 213.3 45.7 240 47.8C266.7 50 293.3 47 320 44.8C346.7 42.7 373.3 41.3 400 41.7C426.7 42 453.3 44 480 43.7C506.7 43.3 533.3 40.7 560 41.5C586.7 42.3 613.3 46.7 640 45.3C666.7 44 693.3 37 720 36.7C746.7 36.3 773.3 42.7 800 45.8C826.7 49 853.3 49 880 50.7C906.7 52.3 933.3 55.7 946.7 57.3L960 59L960 121L946.7 121C933.3 121 906.7 121 880 121C853.3 121 826.7 121 800 121C773.3 121 746.7 121 720 121C693.3 121 666.7 121 640 121C613.3 121 586.7 121 560 121C533.3 121 506.7 121 480 121C453.3 121 426.7 121 400 121C373.3 121 346.7 121 320 121C293.3 121 266.7 121 240 121C213.3 121 186.7 121 160 121C133.3 121 106.7 121 80 121C53.3 121 26.7 121 13.3 121L0 121Z" fill="#b976f5"></path><path d="M0 71L13.3 70.8C26.7 70.7 53.3 70.3 80 68.3C106.7 66.3 133.3 62.7 160 62.2C186.7 61.7 213.3 64.3 240 64.5C266.7 64.7 293.3 62.3 320 59.5C346.7 56.7 373.3 53.3 400 54.7C426.7 56 453.3 62 480 65.7C506.7 69.3 533.3 70.7 560 67.8C586.7 65 613.3 58 640 54.8C666.7 51.7 693.3 52.3 720 51.5C746.7 50.7 773.3 48.3 800 46.5C826.7 44.7 853.3 43.3 880 44C906.7 44.7 933.3 47.3 946.7 48.7L960 50L960 121L946.7 121C933.3 121 906.7 121 880 121C853.3 121 826.7 121 800 121C773.3 121 746.7 121 720 121C693.3 121 666.7 121 640 121C613.3 121 586.7 121 560 121C533.3 121 506.7 121 480 121C453.3 121 426.7 121 400 121C373.3 121 346.7 121 320 121C293.3 121 266.7 121 240 121C213.3 121 186.7 121 160 121C133.3 121 106.7 121 80 121C53.3 121 26.7 121 13.3 121L0 121Z" fill="#af66f2"></path><path d="M0 74L13.3 75.2C26.7 76.3 53.3 78.7 80 75.5C106.7 72.3 133.3 63.7 160 64.3C186.7 65 213.3 75 240 78.3C266.7 81.7 293.3 78.3 320 73.5C346.7 68.7 373.3 62.3 400 60.5C426.7 58.7 453.3 61.3 480 61.3C506.7 61.3 533.3 58.7 560 60.8C586.7 63 613.3 70 640 73.5C666.7 77 693.3 77 720 78C746.7 79 773.3 81 800 81C826.7 81 853.3 79 880 79.5C906.7 80 933.3 83 946.7 84.5L960 86L960 121L946.7 121C933.3 121 906.7 121 880 121C853.3 121 826.7 121 800 121C773.3 121 746.7 121 720 121C693.3 121 666.7 121 640 121C613.3 121 586.7 121 560 121C533.3 121 506.7 121 480 121C453.3 121 426.7 121 400 121C373.3 121 346.7 121 320 121C293.3 121 266.7 121 240 121C213.3 121 186.7 121 160 121C133.3 121 106.7 121 80 121C53.3 121 26.7 121 13.3 121L0 121Z" fill="#a555ef"></path><path d="M0 76L13.3 77.5C26.7 79 53.3 82 80 82.8C106.7 83.7 133.3 82.3 160 80.7C186.7 79 213.3 77 240 75.5C266.7 74 293.3 73 320 72.2C346.7 71.3 373.3 70.7 400 70.8C426.7 71 453.3 72 480 73.3C506.7 74.7 533.3 76.3 560 77.3C586.7 78.3 613.3 78.7 640 77.2C666.7 75.7 693.3 72.3 720 71.3C746.7 70.3 773.3 71.7 800 75.2C826.7 78.7 853.3 84.3 880 85.5C906.7 86.7 933.3 83.3 946.7 81.7L960 80L960 121L946.7 121C933.3 121 906.7 121 880 121C853.3 121 826.7 121 800 121C773.3 121 746.7 121 720 121C693.3 121 666.7 121 640 121C613.3 121 586.7 121 560 121C533.3 121 506.7 121 480 121C453.3 121 426.7 121 400 121C373.3 121 346.7 121 320 121C293.3 121 266.7 121 240 121C213.3 121 186.7 121 160 121C133.3 121 106.7 121 80 121C53.3 121 26.7 121 13.3 121L0 121Z" fill="#9a43ec"></path><path d="M0 92L13.3 90.7C26.7 89.3 53.3 86.7 80 86.3C106.7 86 133.3 88 160 89.7C186.7 91.3 213.3 92.7 240 91.7C266.7 90.7 293.3 87.3 320 86.3C346.7 85.3 373.3 86.7 400 89.8C426.7 93 453.3 98 480 100.7C506.7 103.3 533.3 103.7 560 101.2C586.7 98.7 613.3 93.3 640 91.5C666.7 89.7 693.3 91.3 720 93.3C746.7 95.3 773.3 97.7 800 97C826.7 96.3 853.3 92.7 880 92.7C906.7 92.7 933.3 96.3 946.7 98.2L960 100L960 121L946.7 121C933.3 121 906.7 121 880 121C853.3 121 826.7 121 800 121C773.3 121 746.7 121 720 121C693.3 121 666.7 121 640 121C613.3 121 586.7 121 560 121C533.3 121 506.7 121 480 121C453.3 121 426.7 121 400 121C373.3 121 346.7 121 320 121C293.3 121 266.7 121 240 121C213.3 121 186.7 121 160 121C133.3 121 106.7 121 80 121C53.3 121 26.7 121 13.3 121L0 121Z" fill="#8e2ee9"></path><path d="M0 107L13.3 105.7C26.7 104.3 53.3 101.7 80 102C106.7 102.3 133.3 105.7 160 106C186.7 106.3 213.3 103.7 240 104C266.7 104.3 293.3 107.7 320 108.2C346.7 108.7 373.3 106.3 400 104.2C426.7 102 453.3 100 480 100C506.7 100 533.3 102 560 103.2C586.7 104.3 613.3 104.7 640 104.2C666.7 103.7 693.3 102.3 720 101C746.7 99.7 773.3 98.3 800 97.3C826.7 96.3 853.3 95.7 880 95.8C906.7 96 933.3 97 946.7 97.5L960 98L960 121L946.7 121C933.3 121 906.7 121 880 121C853.3 121 826.7 121 800 121C773.3 121 746.7 121 720 121C693.3 121 666.7 121 640 121C613.3 121 586.7 121 560 121C533.3 121 506.7 121 480 121C453.3 121 426.7 121 400 121C373.3 121 346.7 121 320 121C293.3 121 266.7 121 240 121C213.3 121 186.7 121 160 121C133.3 121 106.7 121 80 121C53.3 121 26.7 121 13.3 121L0 121Z" fill="#8210e6"></path></svg>