<svg id="visual" viewBox="0 0 960 120" width="960" height="120" xmlns="http://www.w3.org/2000/svg" xmlns:xlink="http://www.w3.org/1999/xlink" version="1.1"><rect x="0" y="0" width="960" height="120" fill="#D2D6E2"></rect><path d="M0 36L13.3 39.8C26.7 43.7 53.3 51.3 80 50.5C106.7 49.7 133.3 40.3 160 33.7C186.7 27 213.3 23 240 21.7C266.7 20.3 293.3 21.7 320 26.8C346.7 32 373.3 41 400 43.3C426.7 45.7 453.3 41.3 480 37.3C506.7 33.3 533.3 29.7 560 28.5C586.7 27.3 613.3 28.7 640 31.2C666.7 33.7 693.3 37.3 720 36C746.7 34.7 773.3 28.3 800 28C826.7 27.7 853.3 33.3 880 32.3C906.7 31.3 933.3 23.7 946.7 19.8L960 16L960 121L946.7 121C933.3 121 906.7 121 880 121C853.3 121 826.7 121 800 121C773.3 121 746.7 121 720 121C693.3 121 666.7 121 640 121C613.3 121 586.7 121 560 121C533.3 121 506.7 121 480 121C453.3 121 426.7 121 400 121C373.3 121 346.7 121 320 121C293.3 121 266.7 121 240 121C213.3 121 186.7 121 160 121C133.3 121 106.7 121 80 121C53.3 121 26.7 121 13.3 121L0 121Z" fill="#9cbdd7"></path><path d="M0 35L13.3 39.2C26.7 43.3 53.3 51.7 80 51.7C106.7 51.7 133.3 43.3 160 43C186.7 42.7 213.3 50.3 240 50.7C266.7 51 293.3 44 320 40.5C346.7 37 373.3 37 400 35.5C426.7 34 453.3 31 480 33.5C506.7 36 533.3 44 560 46.5C586.7 49 613.3 46 640 43.3C666.7 40.7 693.3 38.3 720 40C746.7 41.7 773.3 47.3 800 50.7C826.7 54 853.3 55 880 50.8C906.7 46.7 933.3 37.3 946.7 32.7L960 28L960 121L946.7 121C933.3 121 906.7 121 880 121C853.3 121 826.7 121 800 121C773.3 121 746.7 121 720 121C693.3 121 666.7 121 640 121C613.3 121 586.7 121 560 121C533.3 121 506.7 121 480 121C453.3 121 426.7 121 400 121C373.3 121 346.7 121 320 121C293.3 121 266.7 121 240 121C213.3 121 186.7 121 160 121C133.3 121 106.7 121 80 121C53.3 121 26.7 121 13.3 121L0 121Z" fill="#8db3d1"></path><path d="M0 50L13.3 53.8C26.7 57.7 53.3 65.3 80 67.5C106.7 69.7 133.3 66.3 160 63.8C186.7 61.3 213.3 59.7 240 56.2C266.7 52.7 293.3 47.3 320 46.2C346.7 45 373.3 48 400 48.3C426.7 48.7 453.3 46.3 480 47.8C506.7 49.3 533.3 54.7 560 59.3C586.7 64 613.3 68 640 66.8C666.7 65.7 693.3 59.3 720 58.2C746.7 57 773.3 61 800 60C826.7 59 853.3 53 880 53.2C906.7 53.3 933.3 59.7 946.7 62.8L960 66L960 121L946.7 121C933.3 121 906.7 121 880 121C853.3 121 826.7 121 800 121C773.3 121 746.7 121 720 121C693.3 121 666.7 121 640 121C613.3 121 586.7 121 560 121C533.3 121 506.7 121 480 121C453.3 121 426.7 121 400 121C373.3 121 346.7 121 320 121C293.3 121 266.7 121 240 121C213.3 121 186.7 121 160 121C133.3 121 106.7 121 80 121C53.3 121 26.7 121 13.3 121L0 121Z" fill="#7fa9cb"></path><path d="M0 68L13.3 66.8C26.7 65.7 53.3 63.3 80 65.8C106.7 68.3 133.3 75.7 160 79.3C186.7 83 213.3 83 240 79.2C266.7 75.3 293.3 67.7 320 66.8C346.7 66 373.3 72 400 73.8C426.7 75.7 453.3 73.3 480 72.5C506.7 71.7 533.3 72.3 560 74.8C586.7 77.3 613.3 81.7 640 78.7C666.7 75.7 693.3 65.3 720 61.7C746.7 58 773.3 61 800 64.7C826.7 68.3 853.3 72.7 880 72.5C906.7 72.3 933.3 67.7 946.7 65.3L960 63L960 121L946.7 121C933.3 121 906.7 121 880 121C853.3 121 826.7 121 800 121C773.3 121 746.7 121 720 121C693.3 121 666.7 121 640 121C613.3 121 586.7 121 560 121C533.3 121 506.7 121 480 121C453.3 121 426.7 121 400 121C373.3 121 346.7 121 320 121C293.3 121 266.7 121 240 121C213.3 121 186.7 121 160 121C133.3 121 106.7 121 80 121C53.3 121 26.7 121 13.3 121L0 121Z" fill="#709fc5"></path><path d="M0 79L13.3 80.8C26.7 82.7 53.3 86.3 80 84.8C106.7 83.3 133.3 76.7 160 76.7C186.7 76.7 213.3 83.3 240 86.8C266.7 90.3 293.3 90.7 320 88.2C346.7 85.7 373.3 80.3 400 76.7C426.7 73 453.3 71 480 73.8C506.7 76.7 533.3 84.3 560 87.2C586.7 90 613.3 88 640 85.8C666.7 83.7 693.3 81.3 720 81.3C746.7 81.3 773.3 83.7 800 84C826.7 84.3 853.3 82.7 880 83.2C906.7 83.7 933.3 86.3 946.7 87.7L960 89L960 121L946.7 121C933.3 121 906.7 121 880 121C853.3 121 826.7 121 800 121C773.3 121 746.7 121 720 121C693.3 121 666.7 121 640 121C613.3 121 586.7 121 560 121C533.3 121 506.7 121 480 121C453.3 121 426.7 121 400 121C373.3 121 346.7 121 320 121C293.3 121 266.7 121 240 121C213.3 121 186.7 121 160 121C133.3 121 106.7 121 80 121C53.3 121 26.7 121 13.3 121L0 121Z" fill="#6195bf"></path><path d="M0 94L13.3 93C26.7 92 53.3 90 80 89.2C106.7 88.3 133.3 88.7 160 89.2C186.7 89.7 213.3 90.3 240 89.5C266.7 88.7 293.3 86.3 320 85.3C346.7 84.3 373.3 84.7 400 86.5C426.7 88.3 453.3 91.7 480 91.8C506.7 92 533.3 89 560 90.3C586.7 91.7 613.3 97.3 640 98.7C666.7 100 693.3 97 720 94C746.7 91 773.3 88 800 86.7C826.7 85.3 853.3 85.7 880 86.8C906.7 88 933.3 90 946.7 91L960 92L960 121L946.7 121C933.3 121 906.7 121 880 121C853.3 121 826.7 121 800 121C773.3 121 746.7 121 720 121C693.3 121 666.7 121 640 121C613.3 121 586.7 121 560 121C533.3 121 506.7 121 480 121C453.3 121 426.7 121 400 121C373.3 121 346.7 121 320 121C293.3 121 266.7 121 240 121C213.3 121 186.7 121 160 121C133.3 121 106.7 121 80 121C53.3 121 26.7 121 13.3 121L0 121Z" fill="#518bba"></path><path d="M0 105L13.3 105.7C26.7 106.3 53.3 107.7 80 106.8C106.7 106 133.3 103 160 101.2C186.7 99.3 213.3 98.7 240 99.8C266.7 101 293.3 104 320 104.3C346.7 104.7 373.3 102.3 400 100.8C426.7 99.3 453.3 98.7 480 97.8C506.7 97 533.3 96 560 95.7C586.7 95.3 613.3 95.7 640 96.5C666.7 97.3 693.3 98.7 720 101.2C746.7 103.7 773.3 107.3 800 108.2C826.7 109 853.3 107 880 105.8C906.7 104.7 933.3 104.3 946.7 104.2L960 104L960 121L946.7 121C933.3 121 906.7 121 880 121C853.3 121 826.7 121 800 121C773.3 121 746.7 121 720 121C693.3 121 666.7 121 640 121C613.3 121 586.7 121 560 121C533.3 121 506.7 121 480 121C453.3 121 426.7 121 400 121C373.3 121 346.7 121 320 121C293.3 121 266.7 121 240 121C213.3 121 186.7 121 160 121C133.3 121 106.7 121 80 121C53.3 121 26.7 121 13.3 121L0 121Z" fill="#4081b4"></path></svg>