<svg id="visual" viewBox="0 0 960 120" width="960" height="120" xmlns="http://www.w3.org/2000/svg" xmlns:xlink="http://www.w3.org/1999/xlink" version="1.1"><rect x="0" y="0" width="960" height="120" fill="#D2D6E2"></rect><path d="M0 35L13.3 36.2C26.7 37.3 53.3 39.7 80 41C106.7 42.3 133.3 42.7 160 39.8C186.7 37 213.3 31 240 27.5C266.7 24 293.3 23 320 21.5C346.7 20 373.3 18 400 19.3C426.7 20.7 453.3 25.3 480 26.3C506.7 27.3 533.3 24.7 560 27.2C586.7 29.7 613.3 37.3 640 42.5C666.7 47.7 693.3 50.3 720 47.3C746.7 44.3 773.3 35.7 800 34C826.7 32.3 853.3 37.7 880 37.8C906.7 38 933.3 33 946.7 30.5L960 28L960 121L946.7 121C933.3 121 906.7 121 880 121C853.3 121 826.7 121 800 121C773.3 121 746.7 121 720 121C693.3 121 666.7 121 640 121C613.3 121 586.7 121 560 121C533.3 121 506.7 121 480 121C453.3 121 426.7 121 400 121C373.3 121 346.7 121 320 121C293.3 121 266.7 121 240 121C213.3 121 186.7 121 160 121C133.3 121 106.7 121 80 121C53.3 121 26.7 121 13.3 121L0 121Z" fill="#bed4a2"></path><path d="M0 50L13.3 47.5C26.7 45 53.3 40 80 38C106.7 36 133.3 37 160 37.8C186.7 38.7 213.3 39.3 240 43.2C266.7 47 293.3 54 320 56C346.7 58 373.3 55 400 53.8C426.7 52.7 453.3 53.3 480 50C506.7 46.7 533.3 39.3 560 36C586.7 32.7 613.3 33.3 640 38C666.7 42.7 693.3 51.3 720 51C746.7 50.7 773.3 41.3 800 42.7C826.7 44 853.3 56 880 57.8C906.7 59.7 933.3 51.3 946.7 47.2L960 43L960 121L946.7 121C933.3 121 906.7 121 880 121C853.3 121 826.7 121 800 121C773.3 121 746.7 121 720 121C693.3 121 666.7 121 640 121C613.3 121 586.7 121 560 121C533.3 121 506.7 121 480 121C453.3 121 426.7 121 400 121C373.3 121 346.7 121 320 121C293.3 121 266.7 121 240 121C213.3 121 186.7 121 160 121C133.3 121 106.7 121 80 121C53.3 121 26.7 121 13.3 121L0 121Z" fill="#b4cf92"></path><path d="M0 70L13.3 69.7C26.7 69.3 53.3 68.7 80 64.8C106.7 61 133.3 54 160 50.5C186.7 47 213.3 47 240 47.3C266.7 47.7 293.3 48.3 320 52.5C346.7 56.7 373.3 64.3 400 63.5C426.7 62.7 453.3 53.3 480 54C506.7 54.7 533.3 65.3 560 70.2C586.7 75 613.3 74 640 68.5C666.7 63 693.3 53 720 51C746.7 49 773.3 55 800 57C826.7 59 853.3 57 880 56.5C906.7 56 933.3 57 946.7 57.5L960 58L960 121L946.7 121C933.3 121 906.7 121 880 121C853.3 121 826.7 121 800 121C773.3 121 746.7 121 720 121C693.3 121 666.7 121 640 121C613.3 121 586.7 121 560 121C533.3 121 506.7 121 480 121C453.3 121 426.7 121 400 121C373.3 121 346.7 121 320 121C293.3 121 266.7 121 240 121C213.3 121 186.7 121 160 121C133.3 121 106.7 121 80 121C53.3 121 26.7 121 13.3 121L0 121Z" fill="#aac982"></path><path d="M0 65L13.3 65.5C26.7 66 53.3 67 80 68.2C106.7 69.3 133.3 70.7 160 69.7C186.7 68.7 213.3 65.3 240 67.5C266.7 69.7 293.3 77.3 320 79.3C346.7 81.3 373.3 77.7 400 74.7C426.7 71.7 453.3 69.3 480 66.8C506.7 64.3 533.3 61.7 560 62.8C586.7 64 613.3 69 640 70.5C666.7 72 693.3 70 720 69.2C746.7 68.3 773.3 68.7 800 67.7C826.7 66.7 853.3 64.3 880 66.2C906.7 68 933.3 74 946.7 77L960 80L960 121L946.7 121C933.3 121 906.7 121 880 121C853.3 121 826.7 121 800 121C773.3 121 746.7 121 720 121C693.3 121 666.7 121 640 121C613.3 121 586.7 121 560 121C533.3 121 506.7 121 480 121C453.3 121 426.7 121 400 121C373.3 121 346.7 121 320 121C293.3 121 266.7 121 240 121C213.3 121 186.7 121 160 121C133.3 121 106.7 121 80 121C53.3 121 26.7 121 13.3 121L0 121Z" fill="#a0c472"></path><path d="M0 77L13.3 78.8C26.7 80.7 53.3 84.3 80 86.3C106.7 88.3 133.3 88.7 160 87.2C186.7 85.7 213.3 82.3 240 82.3C266.7 82.3 293.3 85.7 320 86.3C346.7 87 373.3 85 400 83.8C426.7 82.7 453.3 82.3 480 82C506.7 81.7 533.3 81.3 560 79.5C586.7 77.7 613.3 74.3 640 73.7C666.7 73 693.3 75 720 76.8C746.7 78.7 773.3 80.3 800 83C826.7 85.7 853.3 89.3 880 89.8C906.7 90.3 933.3 87.7 946.7 86.3L960 85L960 121L946.7 121C933.3 121 906.7 121 880 121C853.3 121 826.7 121 800 121C773.3 121 746.7 121 720 121C693.3 121 666.7 121 640 121C613.3 121 586.7 121 560 121C533.3 121 506.7 121 480 121C453.3 121 426.7 121 400 121C373.3 121 346.7 121 320 121C293.3 121 266.7 121 240 121C213.3 121 186.7 121 160 121C133.3 121 106.7 121 80 121C53.3 121 26.7 121 13.3 121L0 121Z" fill="#96bf62"></path><path d="M0 99L13.3 97.7C26.7 96.3 53.3 93.7 80 91.3C106.7 89 133.3 87 160 86.3C186.7 85.7 213.3 86.3 240 87.3C266.7 88.3 293.3 89.7 320 90.5C346.7 91.3 373.3 91.7 400 90.8C426.7 90 453.3 88 480 86.3C506.7 84.7 533.3 83.3 560 85.2C586.7 87 613.3 92 640 94.3C666.7 96.7 693.3 96.3 720 94C746.7 91.7 773.3 87.3 800 87.5C826.7 87.7 853.3 92.3 880 94.7C906.7 97 933.3 97 946.7 97L960 97L960 121L946.7 121C933.3 121 906.7 121 880 121C853.3 121 826.7 121 800 121C773.3 121 746.7 121 720 121C693.3 121 666.7 121 640 121C613.3 121 586.7 121 560 121C533.3 121 506.7 121 480 121C453.3 121 426.7 121 400 121C373.3 121 346.7 121 320 121C293.3 121 266.7 121 240 121C213.3 121 186.7 121 160 121C133.3 121 106.7 121 80 121C53.3 121 26.7 121 13.3 121L0 121Z" fill="#8cb951"></path><path d="M0 111L13.3 109.2C26.7 107.3 53.3 103.7 80 101.8C106.7 100 133.3 100 160 99.3C186.7 98.7 213.3 97.3 240 98.7C266.7 100 293.3 104 320 106.5C346.7 109 373.3 110 400 109C426.7 108 453.3 105 480 104.3C506.7 103.7 533.3 105.3 560 105C586.7 104.7 613.3 102.3 640 102C666.7 101.7 693.3 103.3 720 105.2C746.7 107 773.3 109 800 107.8C826.7 106.7 853.3 102.3 880 101.7C906.7 101 933.3 104 946.7 105.5L960 107L960 121L946.7 121C933.3 121 906.7 121 880 121C853.3 121 826.7 121 800 121C773.3 121 746.7 121 720 121C693.3 121 666.7 121 640 121C613.3 121 586.7 121 560 121C533.3 121 506.7 121 480 121C453.3 121 426.7 121 400 121C373.3 121 346.7 121 320 121C293.3 121 266.7 121 240 121C213.3 121 186.7 121 160 121C133.3 121 106.7 121 80 121C53.3 121 26.7 121 13.3 121L0 121Z" fill="#81b440"></path></svg>