<svg id="visual" viewBox="0 0 960 120" width="960" height="120" xmlns="http://www.w3.org/2000/svg" xmlns:xlink="http://www.w3.org/1999/xlink" version="1.1"><rect x="0" y="0" width="960" height="120" fill="#d2d6e2"></rect><path d="M0 97L11.5 96.7C23 96.3 46 95.7 68.8 96C91.7 96.3 114.3 97.7 137.2 93.2C160 88.7 183 78.3 205.8 78.5C228.7 78.7 251.3 89.3 274.2 92.8C297 96.3 320 92.7 342.8 88.5C365.7 84.3 388.3 79.7 411.2 78C434 76.3 457 77.7 480 77.3C503 77 526 75 548.8 73C571.7 71 594.3 69 617.2 72.5C640 76 663 85 685.8 87.8C708.7 90.7 731.3 87.3 754.2 83.7C777 80 800 76 822.8 74.2C845.7 72.3 868.3 72.7 891.2 73.3C914 74 937 75 948.5 75.5L960 76L960 0L948.5 0C937 0 914 0 891.2 0C868.3 0 845.7 0 822.8 0C800 0 777 0 754.2 0C731.3 0 708.7 0 685.8 0C663 0 640 0 617.2 0C594.3 0 571.7 0 548.8 0C526 0 503 0 480 0C457 0 434 0 411.2 0C388.3 0 365.7 0 342.8 0C320 0 297 0 274.2 0C251.3 0 228.7 0 205.8 0C183 0 160 0 137.2 0C114.3 0 91.7 0 68.8 0C46 0 23 0 11.5 0L0 0Z" fill="#6e74c5"></path><path d="M0 55L11.5 56.3C23 57.7 46 60.3 68.8 59.7C91.7 59 114.3 55 137.2 53.2C160 51.3 183 51.7 205.8 51.7C228.7 51.7 251.3 51.3 274.2 52.3C297 53.3 320 55.7 342.8 59.2C365.7 62.7 388.3 67.3 411.2 69.2C434 71 457 70 480 72.5C503 75 526 81 548.8 82.7C571.7 84.3 594.3 81.7 617.2 79C640 76.3 663 73.7 685.8 72.7C708.7 71.7 731.3 72.3 754.2 75.3C777 78.3 800 83.7 822.8 80.7C845.7 77.7 868.3 66.3 891.2 65.7C914 65 937 75 948.5 80L960 85L960 0L948.5 0C937 0 914 0 891.2 0C868.3 0 845.7 0 822.8 0C800 0 777 0 754.2 0C731.3 0 708.7 0 685.8 0C663 0 640 0 617.2 0C594.3 0 571.7 0 548.8 0C526 0 503 0 480 0C457 0 434 0 411.2 0C388.3 0 365.7 0 342.8 0C320 0 297 0 274.2 0C251.3 0 228.7 0 205.8 0C183 0 160 0 137.2 0C114.3 0 91.7 0 68.8 0C46 0 23 0 11.5 0L0 0Z" fill="#7b80cf"></path><path d="M0 70L11.5 70.2C23 70.3 46 70.7 68.8 69.3C91.7 68 114.3 65 137.2 65.7C160 66.3 183 70.7 205.8 68.2C228.7 65.7 251.3 56.3 274.2 56.3C297 56.3 320 65.7 342.8 66.8C365.7 68 388.3 61 411.2 56.7C434 52.3 457 50.7 480 50.3C503 50 526 51 548.8 54.8C571.7 58.7 594.3 65.3 617.2 63.7C640 62 663 52 685.8 47.5C708.7 43 731.3 44 754.2 44.7C777 45.3 800 45.7 822.8 49.3C845.7 53 868.3 60 891.2 62.3C914 64.7 937 62.3 948.5 61.2L960 60L960 0L948.5 0C937 0 914 0 891.2 0C868.3 0 845.7 0 822.8 0C800 0 777 0 754.2 0C731.3 0 708.7 0 685.8 0C663 0 640 0 617.2 0C594.3 0 571.7 0 548.8 0C526 0 503 0 480 0C457 0 434 0 411.2 0C388.3 0 365.7 0 342.8 0C320 0 297 0 274.2 0C251.3 0 228.7 0 205.8 0C183 0 160 0 137.2 0C114.3 0 91.7 0 68.8 0C46 0 23 0 11.5 0L0 0Z" fill="#888dd8"></path><path d="M0 37L11.5 38.5C23 40 46 43 68.8 46.8C91.7 50.7 114.3 55.3 137.2 53.8C160 52.3 183 44.7 205.8 41.5C228.7 38.3 251.3 39.7 274.2 43.2C297 46.7 320 52.3 342.8 51.5C365.7 50.7 388.3 43.3 411.2 43.7C434 44 457 52 480 55.7C503 59.3 526 58.7 548.8 57.5C571.7 56.3 594.3 54.7 617.2 51.7C640 48.7 663 44.3 685.8 42C708.7 39.7 731.3 39.3 754.2 38.5C777 37.7 800 36.3 822.8 36.8C845.7 37.3 868.3 39.7 891.2 41.8C914 44 937 46 948.5 47L960 48L960 0L948.5 0C937 0 914 0 891.2 0C868.3 0 845.7 0 822.8 0C800 0 777 0 754.2 0C731.3 0 708.7 0 685.8 0C663 0 640 0 617.2 0C594.3 0 571.7 0 548.8 0C526 0 503 0 480 0C457 0 434 0 411.2 0C388.3 0 365.7 0 342.8 0C320 0 297 0 274.2 0C251.3 0 228.7 0 205.8 0C183 0 160 0 137.2 0C114.3 0 91.7 0 68.8 0C46 0 23 0 11.5 0L0 0Z" fill="#959ae2"></path><path d="M0 33L11.5 35.5C23 38 46 43 68.8 41.7C91.7 40.3 114.3 32.7 137.2 29.7C160 26.7 183 28.3 205.8 31.5C228.7 34.7 251.3 39.3 274.2 39.2C297 39 320 34 342.8 33.2C365.7 32.3 388.3 35.7 411.2 35.8C434 36 457 33 480 31C503 29 526 28 548.8 26.8C571.7 25.7 594.3 24.3 617.2 24.7C640 25 663 27 685.8 29.3C708.7 31.7 731.3 34.3 754.2 36C777 37.7 800 38.3 822.8 36.3C845.7 34.3 868.3 29.7 891.2 28.3C914 27 937 29 948.5 30L960 31L960 0L948.5 0C937 0 914 0 891.2 0C868.3 0 845.7 0 822.8 0C800 0 777 0 754.2 0C731.3 0 708.7 0 685.8 0C663 0 640 0 617.2 0C594.3 0 571.7 0 548.8 0C526 0 503 0 480 0C457 0 434 0 411.2 0C388.3 0 365.7 0 342.8 0C320 0 297 0 274.2 0C251.3 0 228.7 0 205.8 0C183 0 160 0 137.2 0C114.3 0 91.7 0 68.8 0C46 0 23 0 11.5 0L0 0Z" fill="#a2a7ec"></path><path d="M0 18L11.5 19C23 20 46 22 68.8 24.7C91.7 27.3 114.3 30.7 137.2 29.2C160 27.7 183 21.3 205.8 21C228.7 20.7 251.3 26.3 274.2 27C297 27.7 320 23.3 342.8 23.3C365.7 23.3 388.3 27.7 411.2 30.5C434 33.3 457 34.7 480 34.8C503 35 526 34 548.8 32.3C571.7 30.7 594.3 28.3 617.2 25.8C640 23.3 663 20.7 685.8 19C708.7 17.3 731.3 16.7 754.2 16.5C777 16.3 800 16.7 822.8 18C845.7 19.3 868.3 21.7 891.2 24.5C914 27.3 937 30.7 948.5 32.3L960 34L960 0L948.5 0C937 0 914 0 891.2 0C868.3 0 845.7 0 822.8 0C800 0 777 0 754.2 0C731.3 0 708.7 0 685.8 0C663 0 640 0 617.2 0C594.3 0 571.7 0 548.8 0C526 0 503 0 480 0C457 0 434 0 411.2 0C388.3 0 365.7 0 342.8 0C320 0 297 0 274.2 0C251.3 0 228.7 0 205.8 0C183 0 160 0 137.2 0C114.3 0 91.7 0 68.8 0C46 0 23 0 11.5 0L0 0Z" fill="#afb4f5"></path><path d="M0 20L11.5 17.5C23 15 46 10 68.8 9C91.7 8 114.3 11 137.2 12C160 13 183 12 205.8 13.5C228.7 15 251.3 19 274.2 20.7C297 22.3 320 21.7 342.8 20.5C365.7 19.3 388.3 17.7 411.2 15.5C434 13.3 457 10.7 480 9C503 7.3 526 6.7 548.8 8C571.7 9.3 594.3 12.7 617.2 12.8C640 13 663 10 685.8 9.2C708.7 8.3 731.3 9.7 754.2 10.3C777 11 800 11 822.8 12.5C845.7 14 868.3 17 891.2 17.5C914 18 937 16 948.5 15L960 14L960 0L948.5 0C937 0 914 0 891.2 0C868.3 0 845.7 0 822.8 0C800 0 777 0 754.2 0C731.3 0 708.7 0 685.8 0C663 0 640 0 617.2 0C594.3 0 571.7 0 548.8 0C526 0 503 0 480 0C457 0 434 0 411.2 0C388.3 0 365.7 0 342.8 0C320 0 297 0 274.2 0C251.3 0 228.7 0 205.8 0C183 0 160 0 137.2 0C114.3 0 91.7 0 68.8 0C46 0 23 0 11.5 0L0 0Z" fill="#bcc1ff"></path></svg>