<svg id="visual" viewBox="0 0 960 120" width="960" height="120" xmlns="http://www.w3.org/2000/svg" xmlns:xlink="http://www.w3.org/1999/xlink" version="1.1"><rect x="0" y="0" width="960" height="120" fill="#D2D6E2"></rect><path d="M0 96L13.3 91.2C26.7 86.3 53.3 76.7 80 75C106.7 73.3 133.3 79.7 160 79.7C186.7 79.7 213.3 73.3 240 73.7C266.7 74 293.3 81 320 80C346.7 79 373.3 70 400 69.3C426.7 68.7 453.3 76.3 480 80C506.7 83.7 533.3 83.3 560 84.8C586.7 86.3 613.3 89.7 640 92.7C666.7 95.7 693.3 98.3 720 98.2C746.7 98 773.3 95 800 93.2C826.7 91.3 853.3 90.7 880 92.3C906.7 94 933.3 98 946.7 100L960 102L960 0L946.7 0C933.3 0 906.7 0 880 0C853.3 0 826.7 0 800 0C773.3 0 746.7 0 720 0C693.3 0 666.7 0 640 0C613.3 0 586.7 0 560 0C533.3 0 506.7 0 480 0C453.3 0 426.7 0 400 0C373.3 0 346.7 0 320 0C293.3 0 266.7 0 240 0C213.3 0 186.7 0 160 0C133.3 0 106.7 0 80 0C53.3 0 26.7 0 13.3 0L0 0Z" fill="#c386f8"></path><path d="M0 86L13.3 86.7C26.7 87.3 53.3 88.7 80 85.8C106.7 83 133.3 76 160 70.5C186.7 65 213.3 61 240 59C266.7 57 293.3 57 320 59.2C346.7 61.3 373.3 65.7 400 66.8C426.7 68 453.3 66 480 63.3C506.7 60.7 533.3 57.3 560 60C586.7 62.7 613.3 71.3 640 72.7C666.7 74 693.3 68 720 64.7C746.7 61.3 773.3 60.7 800 62.2C826.7 63.7 853.3 67.3 880 69C906.7 70.7 933.3 70.3 946.7 70.2L960 70L960 0L946.7 0C933.3 0 906.7 0 880 0C853.3 0 826.7 0 800 0C773.3 0 746.7 0 720 0C693.3 0 666.7 0 640 0C613.3 0 586.7 0 560 0C533.3 0 506.7 0 480 0C453.3 0 426.7 0 400 0C373.3 0 346.7 0 320 0C293.3 0 266.7 0 240 0C213.3 0 186.7 0 160 0C133.3 0 106.7 0 80 0C53.3 0 26.7 0 13.3 0L0 0Z" fill="#b976f5"></path><path d="M0 75L13.3 73.2C26.7 71.3 53.3 67.7 80 65.5C106.7 63.3 133.3 62.7 160 63.8C186.7 65 213.3 68 240 65.5C266.7 63 293.3 55 320 50.7C346.7 46.3 373.3 45.7 400 45.2C426.7 44.7 453.3 44.3 480 48.3C506.7 52.3 533.3 60.7 560 61C586.7 61.3 613.3 53.7 640 51.5C666.7 49.3 693.3 52.7 720 53.8C746.7 55 773.3 54 800 54.3C826.7 54.7 853.3 56.3 880 54.5C906.7 52.7 933.3 47.3 946.7 44.7L960 42L960 0L946.7 0C933.3 0 906.7 0 880 0C853.3 0 826.7 0 800 0C773.3 0 746.7 0 720 0C693.3 0 666.7 0 640 0C613.3 0 586.7 0 560 0C533.3 0 506.7 0 480 0C453.3 0 426.7 0 400 0C373.3 0 346.7 0 320 0C293.3 0 266.7 0 240 0C213.3 0 186.7 0 160 0C133.3 0 106.7 0 80 0C53.3 0 26.7 0 13.3 0L0 0Z" fill="#af66f2"></path><path d="M0 59L13.3 57.7C26.7 56.3 53.3 53.7 80 51.2C106.7 48.7 133.3 46.3 160 47.8C186.7 49.3 213.3 54.7 240 53.3C266.7 52 293.3 44 320 43.7C346.7 43.3 373.3 50.7 400 50.8C426.7 51 453.3 44 480 43.5C506.7 43 533.3 49 560 52.8C586.7 56.7 613.3 58.3 640 56.5C666.7 54.7 693.3 49.3 720 46.2C746.7 43 773.3 42 800 41.5C826.7 41 853.3 41 880 40.8C906.7 40.7 933.3 40.3 946.7 40.2L960 40L960 0L946.7 0C933.3 0 906.7 0 880 0C853.3 0 826.7 0 800 0C773.3 0 746.7 0 720 0C693.3 0 666.7 0 640 0C613.3 0 586.7 0 560 0C533.3 0 506.7 0 480 0C453.3 0 426.7 0 400 0C373.3 0 346.7 0 320 0C293.3 0 266.7 0 240 0C213.3 0 186.7 0 160 0C133.3 0 106.7 0 80 0C53.3 0 26.7 0 13.3 0L0 0Z" fill="#a555ef"></path><path d="M0 24L13.3 24.8C26.7 25.7 53.3 27.3 80 30.3C106.7 33.3 133.3 37.7 160 37C186.7 36.3 213.3 30.7 240 27.5C266.7 24.3 293.3 23.7 320 25C346.7 26.3 373.3 29.7 400 31.7C426.7 33.7 453.3 34.3 480 35.3C506.7 36.3 533.3 37.7 560 35.8C586.7 34 613.3 29 640 30C666.7 31 693.3 38 720 42.2C746.7 46.3 773.3 47.7 800 45C826.7 42.3 853.3 35.7 880 35.7C906.7 35.7 933.3 42.3 946.7 45.7L960 49L960 0L946.7 0C933.3 0 906.7 0 880 0C853.3 0 826.7 0 800 0C773.3 0 746.7 0 720 0C693.3 0 666.7 0 640 0C613.3 0 586.7 0 560 0C533.3 0 506.7 0 480 0C453.3 0 426.7 0 400 0C373.3 0 346.7 0 320 0C293.3 0 266.7 0 240 0C213.3 0 186.7 0 160 0C133.3 0 106.7 0 80 0C53.3 0 26.7 0 13.3 0L0 0Z" fill="#9a43ec"></path><path d="M0 19L13.3 21.3C26.7 23.7 53.3 28.3 80 30.5C106.7 32.7 133.3 32.3 160 31.7C186.7 31 213.3 30 240 28.3C266.7 26.7 293.3 24.3 320 23.3C346.7 22.3 373.3 22.7 400 24C426.7 25.3 453.3 27.7 480 27.3C506.7 27 533.3 24 560 22.2C586.7 20.3 613.3 19.7 640 20.2C666.7 20.7 693.3 22.3 720 24.3C746.7 26.3 773.3 28.7 800 29.8C826.7 31 853.3 31 880 29.8C906.7 28.7 933.3 26.3 946.7 25.2L960 24L960 0L946.7 0C933.3 0 906.7 0 880 0C853.3 0 826.7 0 800 0C773.3 0 746.7 0 720 0C693.3 0 666.7 0 640 0C613.3 0 586.7 0 560 0C533.3 0 506.7 0 480 0C453.3 0 426.7 0 400 0C373.3 0 346.7 0 320 0C293.3 0 266.7 0 240 0C213.3 0 186.7 0 160 0C133.3 0 106.7 0 80 0C53.3 0 26.7 0 13.3 0L0 0Z" fill="#8e2ee9"></path><path d="M0 17L13.3 17.8C26.7 18.7 53.3 20.3 80 20C106.7 19.7 133.3 17.3 160 17C186.7 16.7 213.3 18.3 240 17C266.7 15.7 293.3 11.3 320 10.8C346.7 10.3 373.3 13.7 400 14.2C426.7 14.7 453.3 12.3 480 11.3C506.7 10.3 533.3 10.7 560 12.3C586.7 14 613.3 17 640 18.5C666.7 20 693.3 20 720 20C746.7 20 773.3 20 800 19.8C826.7 19.7 853.3 19.3 880 18C906.7 16.7 933.3 14.3 946.7 13.2L960 12L960 0L946.7 0C933.3 0 906.7 0 880 0C853.3 0 826.7 0 800 0C773.3 0 746.7 0 720 0C693.3 0 666.7 0 640 0C613.3 0 586.7 0 560 0C533.3 0 506.7 0 480 0C453.3 0 426.7 0 400 0C373.3 0 346.7 0 320 0C293.3 0 266.7 0 240 0C213.3 0 186.7 0 160 0C133.3 0 106.7 0 80 0C53.3 0 26.7 0 13.3 0L0 0Z" fill="#8210e6"></path></svg>