<svg width="164" height="209" viewBox="0 0 164 209" fill="none" xmlns="http://www.w3.org/2000/svg">
<path d="M87.385 57.346C85.049 57.346 83.158 59.24 83.158 61.572V114.426L51.117 137.041C49.206 138.387 48.761 141.02 50.102 142.918C50.932 144.098 52.231 144.717 53.56 144.717C54.406 144.717 55.252 144.47 55.995 143.934L89.828 120.055C90.942 119.254 91.611 117.975 91.611 116.605V61.571C91.611 59.231 89.721 57.346 87.385 57.346Z" fill="white"/>
<path d="M158.385 112.906C158.385 71.402 124.618 37.635 83.117 37.635C41.608 37.635 7.842 71.402 7.842 112.906C7.842 136.629 18.899 157.783 36.099 171.592L20.962 197.46C19.785 199.474 20.462 202.065 22.476 203.254C23.141 203.642 23.879 203.823 24.605 203.823C26.058 203.823 27.469 203.072 28.253 201.735L43.027 176.503C54.649 183.857 68.375 188.182 83.125 188.182C97.866 188.182 111.584 183.866 123.206 176.512L137.972 201.743C138.756 203.08 140.176 203.832 141.62 203.832C142.347 203.832 143.081 203.65 143.758 203.262C145.773 202.074 146.448 199.498 145.269 197.468L130.131 171.609C147.316 157.791 158.385 136.629 158.385 112.906ZM83.109 179.722C46.268 179.722 16.285 149.752 16.285 112.907C16.285 76.066 46.259 46.088 83.109 46.088C119.963 46.088 149.924 76.058 149.924 112.907C149.925 149.76 119.963 179.722 83.109 179.722Z" fill="white"/>
<path d="M13.294 53.169C14.012 53.169 14.738 52.992 15.407 52.604L62.627 25.337C63.593 24.78 64.303 23.859 64.592 22.778C64.877 21.693 64.732 20.537 64.167 19.571C55.479 4.529 36.19 -0.633996 21.155 8.045C13.871 12.255 8.663 19.039 6.484 27.165C4.31 35.295 5.428 43.78 9.625 51.056C10.413 52.418 11.833 53.169 13.294 53.169ZM14.647 29.353C16.236 23.41 20.057 18.441 25.381 15.363C28.996 13.279 32.953 12.28 36.858 12.28C43.478 12.28 49.949 15.128 54.398 20.328L15.163 42.976C13.624 38.634 13.43 33.917 14.647 29.353Z" fill="white"/>
<path d="M103.785 25.345L151.006 52.612C151.658 52.983 152.385 53.177 153.119 53.177C153.482 53.177 153.853 53.128 154.217 53.033C155.298 52.744 156.223 52.034 156.776 51.064C160.985 43.776 162.1 35.291 159.928 27.169C157.749 19.047 152.541 12.25 145.262 8.05303C130.215 -0.629967 110.917 4.53703 102.242 19.58C101.688 20.554 101.523 21.701 101.812 22.782C102.102 23.855 102.803 24.78 103.785 25.345ZM141.027 15.362C150.766 20.991 154.86 32.724 151.237 42.975L111.998 20.322C119.071 12.073 131.279 9.73303 141.027 15.362Z" fill="white"/>
</svg>
