<svg width="170" height="90" viewBox="0 0 170 90" fill="none" xmlns="http://www.w3.org/2000/svg">
<path d="M50.4354 17.6209L52.0785 41.1182L48.9221 41.3389L47.7327 24.3296L41.0151 32.5879L40.1734 32.6467L32.1964 25.416L33.3858 42.4253L30.2295 42.646L28.5864 19.1487L29.5684 19.08L40.3514 29.1453L49.4534 17.6895L50.4354 17.6209ZM64.8911 22.2488C66.6914 22.1229 68.2139 22.3923 69.4586 23.0571C70.7033 23.7219 71.6629 24.6768 72.3373 25.9219C73.0351 27.1653 73.4404 28.5936 73.5532 30.2069L73.6734 31.9253L60.2063 32.867C60.4152 33.8392 60.8172 34.7156 61.4122 35.4964C62.0072 36.2771 62.7543 36.8827 63.6538 37.3132C64.5515 37.7203 65.5615 37.8846 66.6838 37.8061C67.9463 37.7178 69.105 37.3196 70.1597 36.6115C71.2128 35.88 72.0865 35.1024 72.7807 34.2785L72.9639 37.4022C72.6644 37.8226 72.2028 38.2778 71.5792 38.7678C70.9774 39.2328 70.2654 39.635 69.4433 39.9744C68.6463 40.3355 67.7918 40.548 66.88 40.6118C65.1031 40.736 63.4955 40.4255 62.0572 39.6803C60.6189 38.9351 59.454 37.9005 58.5626 36.5767C57.693 35.2278 57.2001 33.7234 57.084 32.0633C56.968 30.4033 57.2233 28.8466 57.85 27.3931C58.4767 25.9396 59.3919 24.7478 60.5955 23.8178C61.8226 22.8862 63.2545 22.3632 64.8911 22.2488ZM65.0873 25.0544C63.6377 25.1558 62.4796 25.7301 61.6131 26.7775C60.7449 27.8015 60.2421 29.0114 60.1048 30.4072L70.661 29.669C70.464 28.5316 70.0713 27.6192 69.4829 26.932C68.9178 26.2432 68.2489 25.7496 67.4762 25.4512C66.7019 25.1295 65.9056 24.9972 65.0873 25.0544ZM80.5922 21.5032L80.7859 24.2738C81.1273 23.7801 81.5739 23.2789 82.1257 22.7705C82.6759 22.2386 83.3019 21.7837 84.0038 21.4056C84.7291 21.026 85.4892 20.8084 86.2842 20.7528C87.4766 20.6694 88.5825 20.8623 89.6021 21.3314C90.6201 21.7771 91.4589 22.5172 92.1186 23.5518C92.7767 24.5631 93.1621 25.8753 93.275 27.4886L94.0229 38.1851L91.1471 38.3862L90.3837 27.9727C90.2774 26.453 89.8575 25.3194 89.1239 24.5718C88.4136 23.8227 87.3688 23.4963 85.9894 23.5928C85.0541 23.6582 84.1434 24.0743 83.2573 24.8411C82.3929 25.5829 81.6418 26.4342 81.0042 27.3951L81.8184 39.0386L78.9426 39.2396L77.7164 21.7043L80.5922 21.5032ZM102.719 14.8811L103.072 19.9313L108.193 19.5732L108.382 22.2737L103.261 22.6317L103.98 32.9074C104.03 33.6322 104.258 34.1919 104.661 34.5866C105.065 34.9813 105.652 35.1517 106.424 35.0977C107.125 35.0487 107.704 34.926 108.16 34.7296C108.615 34.5099 109.01 34.2825 109.346 34.0476L109.51 36.3973C109.069 36.8041 108.586 37.1315 108.063 37.3795C107.565 37.6493 106.872 37.8152 105.984 37.8774C104.487 37.982 103.322 37.6171 102.489 36.7826C101.677 35.9231 101.218 34.7451 101.114 33.2488L100.385 22.8328L97.0187 23.0682L96.9598 22.2265C98.0695 21.6321 98.9692 20.7233 99.6591 19.5004C100.347 18.254 100.923 16.7453 101.387 14.9743L102.719 14.8811ZM120.618 18.3519C121.624 18.2816 122.658 18.456 123.721 18.8751C124.806 19.2691 125.752 19.8608 126.559 20.6502L126.394 18.3004L129.27 18.0993L130.496 35.6347L127.621 35.8357L127.412 32.8547C126.87 33.8325 126.097 34.7088 125.094 35.4838C124.114 36.2572 122.958 36.6904 121.625 36.7836C120.129 36.8883 118.735 36.6098 117.443 35.9483C116.15 35.2634 115.082 34.2691 114.239 32.9653C113.42 31.6599 112.948 30.1188 112.823 28.3419C112.688 26.4013 112.933 24.7043 113.56 23.2508C114.21 21.7956 115.152 20.649 116.386 19.8109C117.617 18.9494 119.028 18.4631 120.618 18.3519ZM121.341 21.1208C120.078 21.2091 119.025 21.5999 118.18 22.2933C117.336 22.9867 116.703 23.8533 116.283 24.8929C115.884 25.9076 115.724 26.9878 115.805 28.1334C115.883 29.2557 116.19 30.2798 116.724 31.2057C117.257 32.1082 117.964 32.8106 118.845 33.3128C119.749 33.8135 120.763 34.0246 121.885 33.9461C122.96 33.8709 123.899 33.5233 124.702 32.9033C125.504 32.2833 126.117 31.4652 126.539 30.4489C126.96 29.4092 127.115 28.2706 127.005 27.033L126.735 23.6687C125.946 22.8075 125.113 22.1492 124.235 21.6937C123.381 21.2366 122.416 21.0456 121.341 21.1208ZM137.568 9.76582L139.334 35.0167L136.458 35.2177L134.693 9.96691L137.568 9.76582Z" fill="black"/>
<path d="M28.433 48.3223L37.767 72.5872L33.9794 72.3224L31.9168 66.5394L20.9046 65.7694L18.0222 71.2066L14.2346 70.9417L26.8548 48.212L28.433 48.3223ZM27.3237 53.6016L22.4107 62.8791L30.8276 63.4677L27.3237 53.6016ZM47.5749 55.2996C48.6037 55.3716 49.5516 55.5906 50.4188 55.9566C51.2877 56.2993 51.9102 56.6365 52.2864 56.9683L52.0706 60.0545C51.6058 59.6461 50.9648 59.2371 50.1476 58.8275C49.3304 58.4179 48.4776 58.1821 47.5892 58.12C46.4903 58.0431 45.6423 58.2423 45.0452 58.7174C44.4715 59.1942 44.165 59.7131 44.1258 60.2743C44.0947 60.7185 44.2148 61.185 44.486 61.6739C44.7823 62.141 45.3181 62.5426 46.0934 62.8788L48.9658 64.1369C50.0836 64.6145 50.8969 65.247 51.4057 66.0344C51.9146 66.8218 52.1338 67.7182 52.0635 68.7235C51.9948 69.7055 51.6513 70.5861 51.033 71.3651C50.438 72.1458 49.6324 72.7474 48.6161 73.1697C47.6248 73.5703 46.4978 73.7264 45.2353 73.6381C44.5573 73.5907 43.8507 73.4473 43.1156 73.208C42.4023 72.9936 41.7615 72.7491 41.1934 72.4744C40.6268 72.1764 40.2098 71.924 39.9423 71.7173L40.1581 68.6311C40.4691 68.8878 40.9062 69.1886 41.4695 69.5334C42.0578 69.8565 42.6836 70.1469 43.3469 70.4048C44.0118 70.6392 44.6366 70.7769 45.2211 70.8178C46.32 70.8946 47.2022 70.7096 47.8678 70.2627C48.5568 69.8175 48.9266 69.2325 48.9773 68.5077C49.0165 67.9466 48.8255 67.4868 48.4041 67.1285C48.0062 66.7717 47.4087 66.4127 46.6116 66.0516L44.0826 64.9232C42.7625 64.314 41.9073 63.6081 41.5171 62.8055C41.1284 61.9795 40.9692 61.0638 41.0395 60.0584C41.1442 58.5621 41.792 57.3622 42.9829 56.4587C44.1738 55.5552 45.7045 55.1688 47.5749 55.2996ZM62.5851 56.3492C63.6139 56.4212 64.5619 56.6402 65.4291 57.0062C66.2979 57.3489 66.9204 57.6862 67.2966 58.0179L67.0808 61.1041C66.616 60.6957 65.975 60.2867 65.1578 59.8771C64.3406 59.4676 63.4878 59.2317 62.5994 59.1696C61.5005 59.0928 60.6525 59.2919 60.0554 59.767C59.4817 60.2438 59.1752 60.7627 59.136 61.3239C59.1049 61.7681 59.225 62.2346 59.4963 62.7235C59.7925 63.1906 60.3283 63.5923 61.1036 63.9284L63.976 65.1865C65.0938 65.6641 65.9072 66.2966 66.416 67.084C66.9248 67.8714 67.144 68.7678 67.0737 69.7732C67.0051 70.7551 66.6616 71.6357 66.0432 72.4147C65.4482 73.1955 64.6426 73.797 63.6263 74.2193C62.635 74.6199 61.5081 74.776 60.2455 74.6877C59.5675 74.6403 58.8609 74.4969 58.1258 74.2576C57.4125 74.0432 56.7717 73.7987 56.2036 73.524C55.6371 73.226 55.22 72.9736 54.9526 72.767L55.1684 69.6807C55.4793 69.9374 55.9165 70.2382 56.4797 70.583C57.068 70.9061 57.6938 71.1965 58.3571 71.4544C59.0221 71.6888 59.6468 71.8265 60.2313 71.8674C61.3302 71.9442 62.2124 71.7592 62.878 71.3124C63.567 70.8672 63.9368 70.2821 63.9875 69.5574C64.0268 68.9962 63.8357 68.5365 63.4144 68.1781C63.0164 67.8213 62.4189 67.4624 61.6218 67.1012L59.0928 65.9728C57.7727 65.3636 56.9175 64.6577 56.5273 63.8551C56.1386 63.0291 55.9795 62.1134 56.0498 61.1081C56.1544 59.6117 56.8022 58.4118 57.9931 57.5083C59.184 56.6048 60.7147 56.2184 62.5851 56.3492ZM75.7395 49.1634C76.4176 49.2108 76.9615 49.4955 77.3714 50.0176C77.8063 50.5179 78.0017 51.0837 77.9576 51.715C77.9151 52.3228 77.6428 52.8559 77.1409 53.3142C76.6623 53.7742 76.084 53.9804 75.406 53.933C74.728 53.8856 74.1723 53.6 73.7391 53.0763C73.3292 52.5543 73.1455 51.9893 73.188 51.3814C73.2321 50.7502 73.4927 50.2163 73.9696 49.7797C74.4715 49.3214 75.0615 49.116 75.7395 49.1634ZM76.9396 57.7054L75.7134 75.2407L72.8376 75.0396L73.8749 60.2048L71.1044 60.011L71.2932 57.3106L76.9396 57.7054ZM88.3971 58.1542C89.4259 58.2261 90.3738 58.4451 91.241 58.8112C92.1099 59.1539 92.7324 59.4911 93.1086 59.8228L92.8928 62.9091C92.428 62.5006 91.787 62.0916 90.9698 61.6821C90.1526 61.2725 89.2998 61.0367 88.4113 60.9745C87.3125 60.8977 86.4645 61.0968 85.8674 61.572C85.2937 62.0487 84.9872 62.5677 84.9479 63.1288C84.9169 63.573 85.037 64.0396 85.3082 64.5285C85.6045 64.9956 86.1403 65.3972 86.9156 65.7334L89.788 66.9915C90.9058 67.4691 91.7191 68.1015 92.2279 68.889C92.7368 69.6764 92.956 70.5728 92.8857 71.5781C92.817 72.5601 92.4735 73.4406 91.8552 74.2197C91.2602 75.0004 90.4546 75.6019 89.4383 76.0242C88.447 76.4248 87.32 76.581 86.0575 76.4927C85.3795 76.4453 84.6729 76.3019 83.9378 76.0625C83.2245 75.8482 82.5837 75.6037 82.0155 75.329C81.449 75.0309 81.032 74.7786 80.7645 74.5719L80.9803 71.4857C81.2913 71.7424 81.7284 72.0431 82.2917 72.388C82.88 72.711 83.5058 73.0015 84.1691 73.2593C84.834 73.4938 85.4588 73.6314 86.0433 73.6723C87.1421 73.7492 88.0244 73.5642 88.69 73.1173C89.379 72.6721 89.7488 72.0871 89.7995 71.3623C89.8387 70.8012 89.6477 70.3414 89.2263 69.983C88.8284 69.6263 88.2309 69.2673 87.4338 68.9061L84.9048 67.7778C83.5847 67.1686 82.7295 66.4627 82.3392 65.66C81.9506 64.834 81.7914 63.9184 81.8617 62.913C81.9664 61.4167 82.6142 60.2167 83.8051 59.3132C84.996 58.4097 86.5267 58.0234 88.3971 58.1542ZM103.35 54.4774L102.997 59.5275L108.117 59.8856L107.929 62.586L102.808 62.228L102.09 72.5037C102.039 73.2284 102.186 73.8143 102.531 74.2614C102.875 74.7084 103.433 74.9588 104.205 75.0128C104.906 75.0618 105.497 75.0209 105.976 74.8899C106.456 74.7356 106.879 74.5654 107.245 74.3795L107.08 76.7293C106.587 77.0707 106.064 77.3278 105.511 77.5006C104.98 77.6984 104.271 77.7663 103.382 77.7042C101.886 77.5995 100.783 77.076 100.074 76.1336C99.3893 75.1694 99.0994 73.9392 99.2041 72.4428L99.9324 62.0269L96.5656 61.7914L96.6245 60.9497C97.8061 60.5155 98.8236 59.7408 99.6769 58.6258C100.532 57.4873 101.312 56.0734 102.017 54.3842L103.35 54.4774Z" fill="black"/>
<path fill-rule="evenodd" clip-rule="evenodd" d="M136.666 50.252C137.513 50.252 138.262 50.5429 138.722 50.7766C140.443 51.6425 141.795 53.4087 142.087 55.1702C142.577 58.1345 141.298 61.5546 138.284 65.3344C135.665 68.6261 132.563 71.4873 129.051 73.8536C125.175 69.8678 122.554 64.7845 120.015 59.8594C118.682 57.28 117.467 53.8668 119.231 52.2495C120.394 51.1797 122.471 51.4386 123.833 52.2243C125.594 53.2391 126.927 55.1084 128.1 56.7577C128.192 56.8883 128.3 57.0006 128.42 57.0945C128.427 57.8779 129.019 58.5629 129.841 58.6843C130.759 58.8103 131.604 58.2078 131.739 57.3236C132.325 53.5667 133.423 51.4249 135.194 50.5796C135.695 50.3413 136.195 50.252 136.666 50.252ZM128.835 77.5693C129.148 77.5693 129.461 77.4844 129.742 77.3105C134.035 74.6119 137.796 71.2513 140.926 67.3251C144.525 62.803 146.025 58.5422 145.382 54.6525C144.923 51.883 142.911 49.2303 140.257 47.8925C138.057 46.7861 135.735 46.7059 133.726 47.6657C131.435 48.7561 130.144 50.7995 129.381 52.9276C128.34 51.615 127.12 50.3459 125.531 49.4319C123.138 48.0529 119.426 47.6039 116.939 49.8878C114.325 52.2862 114.353 56.1301 117.029 61.3163C119.763 66.6171 122.862 72.6236 127.681 77.118C127.999 77.4158 128.416 77.5693 128.835 77.5693Z" fill="black"/>
</svg>
