<svg id="visual" viewBox="0 0 960 120" width="960" height="120" xmlns="http://www.w3.org/2000/svg" xmlns:xlink="http://www.w3.org/1999/xlink" version="1.1"><rect x="0" y="0" width="960" height="120" fill="#e5ba7a"></rect><path d="M0 27L8.8 27.8C17.7 28.7 35.3 30.3 53.2 31.5C71 32.7 89 33.3 106.8 34.5C124.7 35.7 142.3 37.3 160 39.7C177.7 42 195.3 45 213.2 42.7C231 40.3 249 32.7 266.8 33.8C284.7 35 302.3 45 320 44.2C337.7 43.3 355.3 31.7 373.2 29C391 26.3 409 32.7 426.8 32.7C444.7 32.7 462.3 26.3 480 24.5C497.7 22.7 515.3 25.3 533.2 27C551 28.7 569 29.3 586.8 29.3C604.7 29.3 622.3 28.7 640 30.8C657.7 33 675.3 38 693.2 39.3C711 40.7 729 38.3 746.8 35C764.7 31.7 782.3 27.3 800 28C817.7 28.7 835.3 34.3 853.2 36.8C871 39.3 889 38.7 906.8 37.2C924.7 35.7 942.3 33.3 951.2 32.2L960 31L960 121L951.2 121C942.3 121 924.7 121 906.8 121C889 121 871 121 853.2 121C835.3 121 817.7 121 800 121C782.3 121 764.7 121 746.8 121C729 121 711 121 693.2 121C675.3 121 657.7 121 640 121C622.3 121 604.7 121 586.8 121C569 121 551 121 533.2 121C515.3 121 497.7 121 480 121C462.3 121 444.7 121 426.8 121C409 121 391 121 373.2 121C355.3 121 337.7 121 320 121C302.3 121 284.7 121 266.8 121C249 121 231 121 213.2 121C195.3 121 177.7 121 160 121C142.3 121 124.7 121 106.8 121C89 121 71 121 53.2 121C35.3 121 17.7 121 8.8 121L0 121Z" fill="#ffffff"></path><path d="M0 65L8.8 65.3C17.7 65.7 35.3 66.3 53.2 66.2C71 66 89 65 106.8 63C124.7 61 142.3 58 160 58C177.7 58 195.3 61 213.2 57.8C231 54.7 249 45.3 266.8 41.2C284.7 37 302.3 38 320 42.8C337.7 47.7 355.3 56.3 373.2 56.5C391 56.7 409 48.3 426.8 47C444.7 45.7 462.3 51.3 480 51C497.7 50.7 515.3 44.3 533.2 42.8C551 41.3 569 44.7 586.8 46.7C604.7 48.7 622.3 49.3 640 48.8C657.7 48.3 675.3 46.7 693.2 45.7C711 44.7 729 44.3 746.8 47.5C764.7 50.7 782.3 57.3 800 61.2C817.7 65 835.3 66 853.2 62.2C871 58.3 889 49.7 906.8 49.5C924.7 49.3 942.3 57.7 951.2 61.8L960 66L960 121L951.2 121C942.3 121 924.7 121 906.8 121C889 121 871 121 853.2 121C835.3 121 817.7 121 800 121C782.3 121 764.7 121 746.8 121C729 121 711 121 693.2 121C675.3 121 657.7 121 640 121C622.3 121 604.7 121 586.8 121C569 121 551 121 533.2 121C515.3 121 497.7 121 480 121C462.3 121 444.7 121 426.8 121C409 121 391 121 373.2 121C355.3 121 337.7 121 320 121C302.3 121 284.7 121 266.8 121C249 121 231 121 213.2 121C195.3 121 177.7 121 160 121C142.3 121 124.7 121 106.8 121C89 121 71 121 53.2 121C35.3 121 17.7 121 8.8 121L0 121Z" fill="#f6f7f9"></path><path d="M0 55L8.8 55.2C17.7 55.3 35.3 55.7 53.2 59.3C71 63 89 70 106.8 71.8C124.7 73.7 142.3 70.3 160 68C177.7 65.7 195.3 64.3 213.2 64.8C231 65.3 249 67.7 266.8 67.2C284.7 66.7 302.3 63.3 320 63.8C337.7 64.3 355.3 68.7 373.2 71.2C391 73.7 409 74.3 426.8 71C444.7 67.7 462.3 60.3 480 57C497.7 53.7 515.3 54.3 533.2 56.3C551 58.3 569 61.7 586.8 63.2C604.7 64.7 622.3 64.3 640 65.5C657.7 66.7 675.3 69.3 693.2 69.8C711 70.3 729 68.7 746.8 68C764.7 67.3 782.3 67.7 800 69.2C817.7 70.7 835.3 73.3 853.2 74.5C871 75.7 889 75.3 906.8 75.5C924.7 75.7 942.3 76.3 951.2 76.7L960 77L960 121L951.2 121C942.3 121 924.7 121 906.8 121C889 121 871 121 853.2 121C835.3 121 817.7 121 800 121C782.3 121 764.7 121 746.8 121C729 121 711 121 693.2 121C675.3 121 657.7 121 640 121C622.3 121 604.7 121 586.8 121C569 121 551 121 533.2 121C515.3 121 497.7 121 480 121C462.3 121 444.7 121 426.8 121C409 121 391 121 373.2 121C355.3 121 337.7 121 320 121C302.3 121 284.7 121 266.8 121C249 121 231 121 213.2 121C195.3 121 177.7 121 160 121C142.3 121 124.7 121 106.8 121C89 121 71 121 53.2 121C35.3 121 17.7 121 8.8 121L0 121Z" fill="#edeef3"></path><path d="M0 87L8.8 86.3C17.7 85.7 35.3 84.3 53.2 82.2C71 80 89 77 106.8 77.7C124.7 78.3 142.3 82.7 160 81.2C177.7 79.7 195.3 72.3 213.2 72.3C231 72.3 249 79.7 266.8 83.3C284.7 87 302.3 87 320 85.7C337.7 84.3 355.3 81.7 373.2 78C391 74.3 409 69.7 426.8 67.3C444.7 65 462.3 65 480 68.5C497.7 72 515.3 79 533.2 79.7C551 80.3 569 74.7 586.8 71C604.7 67.3 622.3 65.7 640 68.3C657.7 71 675.3 78 693.2 79.3C711 80.7 729 76.3 746.8 74.7C764.7 73 782.3 74 800 73.2C817.7 72.3 835.3 69.7 853.2 69.3C871 69 889 71 906.8 71.2C924.7 71.3 942.3 69.7 951.2 68.8L960 68L960 121L951.2 121C942.3 121 924.7 121 906.8 121C889 121 871 121 853.2 121C835.3 121 817.7 121 800 121C782.3 121 764.7 121 746.8 121C729 121 711 121 693.2 121C675.3 121 657.7 121 640 121C622.3 121 604.7 121 586.8 121C569 121 551 121 533.2 121C515.3 121 497.7 121 480 121C462.3 121 444.7 121 426.8 121C409 121 391 121 373.2 121C355.3 121 337.7 121 320 121C302.3 121 284.7 121 266.8 121C249 121 231 121 213.2 121C195.3 121 177.7 121 160 121C142.3 121 124.7 121 106.8 121C89 121 71 121 53.2 121C35.3 121 17.7 121 8.8 121L0 121Z" fill="#e4e6ed"></path><path d="M0 86L8.8 85.3C17.7 84.7 35.3 83.3 53.2 83.7C71 84 89 86 106.8 86.7C124.7 87.3 142.3 86.7 160 86.3C177.7 86 195.3 86 213.2 87.3C231 88.7 249 91.3 266.8 90.7C284.7 90 302.3 86 320 85.3C337.7 84.7 355.3 87.3 373.2 87C391 86.7 409 83.3 426.8 82.3C444.7 81.3 462.3 82.7 480 84.5C497.7 86.3 515.3 88.7 533.2 90.8C551 93 569 95 586.8 93.8C604.7 92.7 622.3 88.3 640 87.5C657.7 86.7 675.3 89.3 693.2 88.7C711 88 729 84 746.8 85.2C764.7 86.3 782.3 92.7 800 94C817.7 95.3 835.3 91.7 853.2 90.8C871 90 889 92 906.8 90.5C924.7 89 942.3 84 951.2 81.5L960 79L960 121L951.2 121C942.3 121 924.7 121 906.8 121C889 121 871 121 853.2 121C835.3 121 817.7 121 800 121C782.3 121 764.7 121 746.8 121C729 121 711 121 693.2 121C675.3 121 657.7 121 640 121C622.3 121 604.7 121 586.8 121C569 121 551 121 533.2 121C515.3 121 497.7 121 480 121C462.3 121 444.7 121 426.8 121C409 121 391 121 373.2 121C355.3 121 337.7 121 320 121C302.3 121 284.7 121 266.8 121C249 121 231 121 213.2 121C195.3 121 177.7 121 160 121C142.3 121 124.7 121 106.8 121C89 121 71 121 53.2 121C35.3 121 17.7 121 8.8 121L0 121Z" fill="#dbdee8"></path><path d="M0 107L8.8 106.3C17.7 105.7 35.3 104.3 53.2 104.8C71 105.3 89 107.7 106.8 107.7C124.7 107.7 142.3 105.3 160 102.7C177.7 100 195.3 97 213.2 97.2C231 97.3 249 100.7 266.8 103.3C284.7 106 302.3 108 320 108C337.7 108 355.3 106 373.2 103.3C391 100.7 409 97.3 426.8 95.8C444.7 94.3 462.3 94.7 480 96C497.7 97.3 515.3 99.7 533.2 101.5C551 103.3 569 104.7 586.8 105.5C604.7 106.3 622.3 106.7 640 105C657.7 103.3 675.3 99.7 693.2 99.5C711 99.3 729 102.7 746.8 103.5C764.7 104.3 782.3 102.7 800 101.7C817.7 100.7 835.3 100.3 853.2 101.7C871 103 889 106 906.8 105C924.7 104 942.3 99 951.2 96.5L960 94L960 121L951.2 121C942.3 121 924.7 121 906.8 121C889 121 871 121 853.2 121C835.3 121 817.7 121 800 121C782.3 121 764.7 121 746.8 121C729 121 711 121 693.2 121C675.3 121 657.7 121 640 121C622.3 121 604.7 121 586.8 121C569 121 551 121 533.2 121C515.3 121 497.7 121 480 121C462.3 121 444.7 121 426.8 121C409 121 391 121 373.2 121C355.3 121 337.7 121 320 121C302.3 121 284.7 121 266.8 121C249 121 231 121 213.2 121C195.3 121 177.7 121 160 121C142.3 121 124.7 121 106.8 121C89 121 71 121 53.2 121C35.3 121 17.7 121 8.8 121L0 121Z" fill="#d2d6e2"></path></svg>