<svg id="visual" viewBox="0 0 960 120" width="960" height="120" xmlns="http://www.w3.org/2000/svg" xmlns:xlink="http://www.w3.org/1999/xlink" version="1.1"><rect x="0" y="0" width="960" height="120" fill="#d2d6e2"></rect><path d="M0 25L11.5 29.5C23 34 46 43 68.8 41.2C91.7 39.3 114.3 26.7 137.2 25.7C160 24.7 183 35.3 205.8 37.3C228.7 39.3 251.3 32.7 274.2 30.5C297 28.3 320 30.7 342.8 28.2C365.7 25.7 388.3 18.3 411.2 15.7C434 13 457 15 480 20.8C503 26.7 526 36.3 548.8 42C571.7 47.7 594.3 49.3 617.2 47.7C640 46 663 41 685.8 40.7C708.7 40.3 731.3 44.7 754.2 42.5C777 40.3 800 31.7 822.8 32C845.7 32.3 868.3 41.7 891.2 42.2C914 42.7 937 34.3 948.5 30.2L960 26L960 121L948.5 121C937 121 914 121 891.2 121C868.3 121 845.7 121 822.8 121C800 121 777 121 754.2 121C731.3 121 708.7 121 685.8 121C663 121 640 121 617.2 121C594.3 121 571.7 121 548.8 121C526 121 503 121 480 121C457 121 434 121 411.2 121C388.3 121 365.7 121 342.8 121C320 121 297 121 274.2 121C251.3 121 228.7 121 205.8 121C183 121 160 121 137.2 121C114.3 121 91.7 121 68.8 121C46 121 23 121 11.5 121L0 121Z" fill="#c84cd9"></path><path d="M0 46L11.5 45C23 44 46 42 68.8 38.5C91.7 35 114.3 30 137.2 30.5C160 31 183 37 205.8 37C228.7 37 251.3 31 274.2 31.3C297 31.7 320 38.3 342.8 44.3C365.7 50.3 388.3 55.7 411.2 53.7C434 51.7 457 42.3 480 41C503 39.7 526 46.3 548.8 50.5C571.7 54.7 594.3 56.3 617.2 58.3C640 60.3 663 62.7 685.8 57.5C708.7 52.3 731.3 39.7 754.2 34.8C777 30 800 33 822.8 32.7C845.7 32.3 868.3 28.7 891.2 28.7C914 28.7 937 32.3 948.5 34.2L960 36L960 121L948.5 121C937 121 914 121 891.2 121C868.3 121 845.7 121 822.8 121C800 121 777 121 754.2 121C731.3 121 708.7 121 685.8 121C663 121 640 121 617.2 121C594.3 121 571.7 121 548.8 121C526 121 503 121 480 121C457 121 434 121 411.2 121C388.3 121 365.7 121 342.8 121C320 121 297 121 274.2 121C251.3 121 228.7 121 205.8 121C183 121 160 121 137.2 121C114.3 121 91.7 121 68.8 121C46 121 23 121 11.5 121L0 121Z" fill="#ba45ca"></path><path d="M0 64L11.5 65C23 66 46 68 68.8 65.2C91.7 62.3 114.3 54.7 137.2 55C160 55.3 183 63.7 205.8 66.7C228.7 69.7 251.3 67.3 274.2 65.7C297 64 320 63 342.8 59.7C365.7 56.3 388.3 50.7 411.2 51C434 51.3 457 57.7 480 61.2C503 64.7 526 65.3 548.8 66.5C571.7 67.7 594.3 69.3 617.2 65.5C640 61.7 663 52.3 685.8 49.2C708.7 46 731.3 49 754.2 52.2C777 55.3 800 58.7 822.8 62.3C845.7 66 868.3 70 891.2 67.2C914 64.3 937 54.7 948.5 49.8L960 45L960 121L948.5 121C937 121 914 121 891.2 121C868.3 121 845.7 121 822.8 121C800 121 777 121 754.2 121C731.3 121 708.7 121 685.8 121C663 121 640 121 617.2 121C594.3 121 571.7 121 548.8 121C526 121 503 121 480 121C457 121 434 121 411.2 121C388.3 121 365.7 121 342.8 121C320 121 297 121 274.2 121C251.3 121 228.7 121 205.8 121C183 121 160 121 137.2 121C114.3 121 91.7 121 68.8 121C46 121 23 121 11.5 121L0 121Z" fill="#ac3dbb"></path><path d="M0 60L11.5 61.3C23 62.7 46 65.3 68.8 66.2C91.7 67 114.3 66 137.2 68.3C160 70.7 183 76.3 205.8 75.2C228.7 74 251.3 66 274.2 65.7C297 65.3 320 72.7 342.8 74.3C365.7 76 388.3 72 411.2 71.8C434 71.7 457 75.3 480 77.3C503 79.3 526 79.7 548.8 75.3C571.7 71 594.3 62 617.2 58.5C640 55 663 57 685.8 57.8C708.7 58.7 731.3 58.3 754.2 62C777 65.7 800 73.3 822.8 72.8C845.7 72.3 868.3 63.7 891.2 61.7C914 59.7 937 64.3 948.5 66.7L960 69L960 121L948.5 121C937 121 914 121 891.2 121C868.3 121 845.7 121 822.8 121C800 121 777 121 754.2 121C731.3 121 708.7 121 685.8 121C663 121 640 121 617.2 121C594.3 121 571.7 121 548.8 121C526 121 503 121 480 121C457 121 434 121 411.2 121C388.3 121 365.7 121 342.8 121C320 121 297 121 274.2 121C251.3 121 228.7 121 205.8 121C183 121 160 121 137.2 121C114.3 121 91.7 121 68.8 121C46 121 23 121 11.5 121L0 121Z" fill="#9e36ac"></path><path d="M0 83L11.5 84.3C23 85.7 46 88.3 68.8 87.2C91.7 86 114.3 81 137.2 78.8C160 76.7 183 77.3 205.8 78.7C228.7 80 251.3 82 274.2 80.3C297 78.7 320 73.3 342.8 74.7C365.7 76 388.3 84 411.2 87.5C434 91 457 90 480 89.7C503 89.3 526 89.7 548.8 85.8C571.7 82 594.3 74 617.2 74.2C640 74.3 663 82.7 685.8 82.7C708.7 82.7 731.3 74.3 754.2 71.2C777 68 800 70 822.8 71.7C845.7 73.3 868.3 74.7 891.2 77.3C914 80 937 84 948.5 86L960 88L960 121L948.5 121C937 121 914 121 891.2 121C868.3 121 845.7 121 822.8 121C800 121 777 121 754.2 121C731.3 121 708.7 121 685.8 121C663 121 640 121 617.2 121C594.3 121 571.7 121 548.8 121C526 121 503 121 480 121C457 121 434 121 411.2 121C388.3 121 365.7 121 342.8 121C320 121 297 121 274.2 121C251.3 121 228.7 121 205.8 121C183 121 160 121 137.2 121C114.3 121 91.7 121 68.8 121C46 121 23 121 11.5 121L0 121Z" fill="#902f9d"></path><path d="M0 82L11.5 85.2C23 88.3 46 94.7 68.8 95.8C91.7 97 114.3 93 137.2 91.7C160 90.3 183 91.7 205.8 93.5C228.7 95.3 251.3 97.7 274.2 97.8C297 98 320 96 342.8 95.7C365.7 95.3 388.3 96.7 411.2 97.5C434 98.3 457 98.7 480 99.2C503 99.7 526 100.3 548.8 101.2C571.7 102 594.3 103 617.2 99.5C640 96 663 88 685.8 84.7C708.7 81.3 731.3 82.7 754.2 85.2C777 87.7 800 91.3 822.8 93.5C845.7 95.7 868.3 96.3 891.2 97.3C914 98.3 937 99.7 948.5 100.3L960 101L960 121L948.5 121C937 121 914 121 891.2 121C868.3 121 845.7 121 822.8 121C800 121 777 121 754.2 121C731.3 121 708.7 121 685.8 121C663 121 640 121 617.2 121C594.3 121 571.7 121 548.8 121C526 121 503 121 480 121C457 121 434 121 411.2 121C388.3 121 365.7 121 342.8 121C320 121 297 121 274.2 121C251.3 121 228.7 121 205.8 121C183 121 160 121 137.2 121C114.3 121 91.7 121 68.8 121C46 121 23 121 11.5 121L0 121Z" fill="#83278f"></path><path d="M0 113L11.5 112.7C23 112.3 46 111.7 68.8 111.3C91.7 111 114.3 111 137.2 110.7C160 110.3 183 109.7 205.8 109C228.7 108.3 251.3 107.7 274.2 106C297 104.3 320 101.7 342.8 102.5C365.7 103.3 388.3 107.7 411.2 109C434 110.3 457 108.7 480 105.7C503 102.7 526 98.3 548.8 98.5C571.7 98.7 594.3 103.3 617.2 105.7C640 108 663 108 685.8 105.7C708.7 103.3 731.3 98.7 754.2 98.3C777 98 800 102 822.8 102C845.7 102 868.3 98 891.2 96.2C914 94.3 937 94.7 948.5 94.8L960 95L960 121L948.5 121C937 121 914 121 891.2 121C868.3 121 845.7 121 822.8 121C800 121 777 121 754.2 121C731.3 121 708.7 121 685.8 121C663 121 640 121 617.2 121C594.3 121 571.7 121 548.8 121C526 121 503 121 480 121C457 121 434 121 411.2 121C388.3 121 365.7 121 342.8 121C320 121 297 121 274.2 121C251.3 121 228.7 121 205.8 121C183 121 160 121 137.2 121C114.3 121 91.7 121 68.8 121C46 121 23 121 11.5 121L0 121Z" fill="#762081"></path></svg>