<svg id="visual" viewBox="0 0 960 120" width="960" height="120" xmlns="http://www.w3.org/2000/svg" xmlns:xlink="http://www.w3.org/1999/xlink" version="1.1"><rect x="0" y="0" width="960" height="120" fill="#d2d6e2"></rect><path d="M0 18L11.5 21C23 24 46 30 68.8 32.2C91.7 34.3 114.3 32.7 137.2 35.3C160 38 183 45 205.8 45C228.7 45 251.3 38 274.2 33.5C297 29 320 27 342.8 29.7C365.7 32.3 388.3 39.7 411.2 43.3C434 47 457 47 480 42C503 37 526 27 548.8 21.3C571.7 15.7 594.3 14.3 617.2 17.7C640 21 663 29 685.8 28.8C708.7 28.7 731.3 20.3 754.2 23C777 25.7 800 39.3 822.8 39.3C845.7 39.3 868.3 25.7 891.2 24.5C914 23.3 937 34.7 948.5 40.3L960 46L960 121L948.5 121C937 121 914 121 891.2 121C868.3 121 845.7 121 822.8 121C800 121 777 121 754.2 121C731.3 121 708.7 121 685.8 121C663 121 640 121 617.2 121C594.3 121 571.7 121 548.8 121C526 121 503 121 480 121C457 121 434 121 411.2 121C388.3 121 365.7 121 342.8 121C320 121 297 121 274.2 121C251.3 121 228.7 121 205.8 121C183 121 160 121 137.2 121C114.3 121 91.7 121 68.8 121C46 121 23 121 11.5 121L0 121Z" fill="#acabaa"></path><path d="M0 49L11.5 51C23 53 46 57 68.8 55.5C91.7 54 114.3 47 137.2 46.5C160 46 183 52 205.8 54.5C228.7 57 251.3 56 274.2 54.5C297 53 320 51 342.8 47.5C365.7 44 388.3 39 411.2 40C434 41 457 48 480 49.2C503 50.3 526 45.7 548.8 43.8C571.7 42 594.3 43 617.2 44.2C640 45.3 663 46.7 685.8 48C708.7 49.3 731.3 50.7 754.2 52.8C777 55 800 58 822.8 58.2C845.7 58.3 868.3 55.7 891.2 54C914 52.3 937 51.7 948.5 51.3L960 51L960 121L948.5 121C937 121 914 121 891.2 121C868.3 121 845.7 121 822.8 121C800 121 777 121 754.2 121C731.3 121 708.7 121 685.8 121C663 121 640 121 617.2 121C594.3 121 571.7 121 548.8 121C526 121 503 121 480 121C457 121 434 121 411.2 121C388.3 121 365.7 121 342.8 121C320 121 297 121 274.2 121C251.3 121 228.7 121 205.8 121C183 121 160 121 137.2 121C114.3 121 91.7 121 68.8 121C46 121 23 121 11.5 121L0 121Z" fill="#b7b5b4"></path><path d="M0 41L11.5 41.2C23 41.3 46 41.7 68.8 44.5C91.7 47.3 114.3 52.7 137.2 57.3C160 62 183 66 205.8 66.3C228.7 66.7 251.3 63.3 274.2 61.8C297 60.3 320 60.7 342.8 59.3C365.7 58 388.3 55 411.2 55.3C434 55.7 457 59.3 480 60.8C503 62.3 526 61.7 548.8 59.8C571.7 58 594.3 55 617.2 52.5C640 50 663 48 685.8 49.7C708.7 51.3 731.3 56.7 754.2 56.2C777 55.7 800 49.3 822.8 50.5C845.7 51.7 868.3 60.3 891.2 64.5C914 68.7 937 68.3 948.5 68.2L960 68L960 121L948.5 121C937 121 914 121 891.2 121C868.3 121 845.7 121 822.8 121C800 121 777 121 754.2 121C731.3 121 708.7 121 685.8 121C663 121 640 121 617.2 121C594.3 121 571.7 121 548.8 121C526 121 503 121 480 121C457 121 434 121 411.2 121C388.3 121 365.7 121 342.8 121C320 121 297 121 274.2 121C251.3 121 228.7 121 205.8 121C183 121 160 121 137.2 121C114.3 121 91.7 121 68.8 121C46 121 23 121 11.5 121L0 121Z" fill="#c1c0bd"></path><path d="M0 66L11.5 67.8C23 69.7 46 73.3 68.8 72.7C91.7 72 114.3 67 137.2 66.7C160 66.3 183 70.7 205.8 70.2C228.7 69.7 251.3 64.3 274.2 61.2C297 58 320 57 342.8 57.2C365.7 57.3 388.3 58.7 411.2 61.5C434 64.3 457 68.7 480 69.5C503 70.3 526 67.7 548.8 68.2C571.7 68.7 594.3 72.3 617.2 75.2C640 78 663 80 685.8 79.8C708.7 79.7 731.3 77.3 754.2 75.5C777 73.7 800 72.3 822.8 72.8C845.7 73.3 868.3 75.7 891.2 74.2C914 72.7 937 67.3 948.5 64.7L960 62L960 121L948.5 121C937 121 914 121 891.2 121C868.3 121 845.7 121 822.8 121C800 121 777 121 754.2 121C731.3 121 708.7 121 685.8 121C663 121 640 121 617.2 121C594.3 121 571.7 121 548.8 121C526 121 503 121 480 121C457 121 434 121 411.2 121C388.3 121 365.7 121 342.8 121C320 121 297 121 274.2 121C251.3 121 228.7 121 205.8 121C183 121 160 121 137.2 121C114.3 121 91.7 121 68.8 121C46 121 23 121 11.5 121L0 121Z" fill="#cccac7"></path><path d="M0 67L11.5 71C23 75 46 83 68.8 86.2C91.7 89.3 114.3 87.7 137.2 85.5C160 83.3 183 80.7 205.8 79.2C228.7 77.7 251.3 77.3 274.2 79.7C297 82 320 87 342.8 85C365.7 83 388.3 74 411.2 70.3C434 66.7 457 68.3 480 69.8C503 71.3 526 72.7 548.8 75.2C571.7 77.7 594.3 81.3 617.2 81.2C640 81 663 77 685.8 77.2C708.7 77.3 731.3 81.7 754.2 84C777 86.3 800 86.7 822.8 85.3C845.7 84 868.3 81 891.2 79.8C914 78.7 937 79.3 948.5 79.7L960 80L960 121L948.5 121C937 121 914 121 891.2 121C868.3 121 845.7 121 822.8 121C800 121 777 121 754.2 121C731.3 121 708.7 121 685.8 121C663 121 640 121 617.2 121C594.3 121 571.7 121 548.8 121C526 121 503 121 480 121C457 121 434 121 411.2 121C388.3 121 365.7 121 342.8 121C320 121 297 121 274.2 121C251.3 121 228.7 121 205.8 121C183 121 160 121 137.2 121C114.3 121 91.7 121 68.8 121C46 121 23 121 11.5 121L0 121Z" fill="#d7d5d1"></path><path d="M0 91L11.5 91.3C23 91.7 46 92.3 68.8 92C91.7 91.7 114.3 90.3 137.2 88.7C160 87 183 85 205.8 86.3C228.7 87.7 251.3 92.3 274.2 93.3C297 94.3 320 91.7 342.8 92.2C365.7 92.7 388.3 96.3 411.2 96.7C434 97 457 94 480 94C503 94 526 97 548.8 96C571.7 95 594.3 90 617.2 88.2C640 86.3 663 87.7 685.8 90.5C708.7 93.3 731.3 97.7 754.2 97.3C777 97 800 92 822.8 91C845.7 90 868.3 93 891.2 92.5C914 92 937 88 948.5 86L960 84L960 121L948.5 121C937 121 914 121 891.2 121C868.3 121 845.7 121 822.8 121C800 121 777 121 754.2 121C731.3 121 708.7 121 685.8 121C663 121 640 121 617.2 121C594.3 121 571.7 121 548.8 121C526 121 503 121 480 121C457 121 434 121 411.2 121C388.3 121 365.7 121 342.8 121C320 121 297 121 274.2 121C251.3 121 228.7 121 205.8 121C183 121 160 121 137.2 121C114.3 121 91.7 121 68.8 121C46 121 23 121 11.5 121L0 121Z" fill="#e1dfda"></path><path d="M0 95L11.5 96.8C23 98.7 46 102.3 68.8 104.5C91.7 106.7 114.3 107.3 137.2 106.5C160 105.7 183 103.3 205.8 102.7C228.7 102 251.3 103 274.2 103.7C297 104.3 320 104.7 342.8 103.7C365.7 102.7 388.3 100.3 411.2 101.8C434 103.3 457 108.7 480 108.5C503 108.3 526 102.7 548.8 101.3C571.7 100 594.3 103 617.2 103.7C640 104.3 663 102.7 685.8 101.5C708.7 100.3 731.3 99.7 754.2 101.7C777 103.7 800 108.3 822.8 109.2C845.7 110 868.3 107 891.2 106.8C914 106.7 937 109.3 948.5 110.7L960 112L960 121L948.5 121C937 121 914 121 891.2 121C868.3 121 845.7 121 822.8 121C800 121 777 121 754.2 121C731.3 121 708.7 121 685.8 121C663 121 640 121 617.2 121C594.3 121 571.7 121 548.8 121C526 121 503 121 480 121C457 121 434 121 411.2 121C388.3 121 365.7 121 342.8 121C320 121 297 121 274.2 121C251.3 121 228.7 121 205.8 121C183 121 160 121 137.2 121C114.3 121 91.7 121 68.8 121C46 121 23 121 11.5 121L0 121Z" fill="#eceae4"></path></svg>