<svg id="visual" viewBox="0 0 960 120" width="960" height="120" xmlns="http://www.w3.org/2000/svg" xmlns:xlink="http://www.w3.org/1999/xlink" version="1.1"><rect x="0" y="0" width="960" height="120" fill="#d2d6e2"></rect><path d="M0 26L11.5 25.8C23 25.7 46 25.3 68.8 29.2C91.7 33 114.3 41 137.2 44.5C160 48 183 47 205.8 43.8C228.7 40.7 251.3 35.3 274.2 33.3C297 31.3 320 32.7 342.8 34.3C365.7 36 388.3 38 411.2 38.3C434 38.7 457 37.3 480 36.2C503 35 526 34 548.8 35.2C571.7 36.3 594.3 39.7 617.2 37.8C640 36 663 29 685.8 26C708.7 23 731.3 24 754.2 25.5C777 27 800 29 822.8 28.3C845.7 27.7 868.3 24.3 891.2 26.2C914 28 937 35 948.5 38.5L960 42L960 121L948.5 121C937 121 914 121 891.2 121C868.3 121 845.7 121 822.8 121C800 121 777 121 754.2 121C731.3 121 708.7 121 685.8 121C663 121 640 121 617.2 121C594.3 121 571.7 121 548.8 121C526 121 503 121 480 121C457 121 434 121 411.2 121C388.3 121 365.7 121 342.8 121C320 121 297 121 274.2 121C251.3 121 228.7 121 205.8 121C183 121 160 121 137.2 121C114.3 121 91.7 121 68.8 121C46 121 23 121 11.5 121L0 121Z" fill="#f67d74"></path><path d="M0 39L11.5 42.2C23 45.3 46 51.7 68.8 54.8C91.7 58 114.3 58 137.2 53.7C160 49.3 183 40.7 205.8 40.5C228.7 40.3 251.3 48.7 274.2 51.2C297 53.7 320 50.3 342.8 49C365.7 47.7 388.3 48.3 411.2 47.8C434 47.3 457 45.7 480 47.7C503 49.7 526 55.3 548.8 57.8C571.7 60.3 594.3 59.7 617.2 57.2C640 54.7 663 50.3 685.8 47.8C708.7 45.3 731.3 44.7 754.2 42.2C777 39.7 800 35.3 822.8 36C845.7 36.7 868.3 42.3 891.2 43.2C914 44 937 40 948.5 38L960 36L960 121L948.5 121C937 121 914 121 891.2 121C868.3 121 845.7 121 822.8 121C800 121 777 121 754.2 121C731.3 121 708.7 121 685.8 121C663 121 640 121 617.2 121C594.3 121 571.7 121 548.8 121C526 121 503 121 480 121C457 121 434 121 411.2 121C388.3 121 365.7 121 342.8 121C320 121 297 121 274.2 121C251.3 121 228.7 121 205.8 121C183 121 160 121 137.2 121C114.3 121 91.7 121 68.8 121C46 121 23 121 11.5 121L0 121Z" fill="#f1736c"></path><path d="M0 58L11.5 58.7C23 59.3 46 60.7 68.8 62.3C91.7 64 114.3 66 137.2 66.5C160 67 183 66 205.8 62.2C228.7 58.3 251.3 51.7 274.2 50.8C297 50 320 55 342.8 58.2C365.7 61.3 388.3 62.7 411.2 64.3C434 66 457 68 480 64.3C503 60.7 526 51.3 548.8 47C571.7 42.7 594.3 43.3 617.2 46.7C640 50 663 56 685.8 59.7C708.7 63.3 731.3 64.7 754.2 65C777 65.3 800 64.7 822.8 60.7C845.7 56.7 868.3 49.3 891.2 49.7C914 50 937 58 948.5 62L960 66L960 121L948.5 121C937 121 914 121 891.2 121C868.3 121 845.7 121 822.8 121C800 121 777 121 754.2 121C731.3 121 708.7 121 685.8 121C663 121 640 121 617.2 121C594.3 121 571.7 121 548.8 121C526 121 503 121 480 121C457 121 434 121 411.2 121C388.3 121 365.7 121 342.8 121C320 121 297 121 274.2 121C251.3 121 228.7 121 205.8 121C183 121 160 121 137.2 121C114.3 121 91.7 121 68.8 121C46 121 23 121 11.5 121L0 121Z" fill="#ec6965"></path><path d="M0 78L11.5 76.8C23 75.7 46 73.3 68.8 69.5C91.7 65.7 114.3 60.3 137.2 58.8C160 57.3 183 59.7 205.8 59.7C228.7 59.7 251.3 57.3 274.2 56.5C297 55.7 320 56.3 342.8 60.2C365.7 64 388.3 71 411.2 75.2C434 79.3 457 80.7 480 81.5C503 82.3 526 82.7 548.8 80C571.7 77.3 594.3 71.7 617.2 69.7C640 67.7 663 69.3 685.8 69.8C708.7 70.3 731.3 69.7 754.2 70.2C777 70.7 800 72.3 822.8 73.8C845.7 75.3 868.3 76.7 891.2 76.8C914 77 937 76 948.5 75.5L960 75L960 121L948.5 121C937 121 914 121 891.2 121C868.3 121 845.7 121 822.8 121C800 121 777 121 754.2 121C731.3 121 708.7 121 685.8 121C663 121 640 121 617.2 121C594.3 121 571.7 121 548.8 121C526 121 503 121 480 121C457 121 434 121 411.2 121C388.3 121 365.7 121 342.8 121C320 121 297 121 274.2 121C251.3 121 228.7 121 205.8 121C183 121 160 121 137.2 121C114.3 121 91.7 121 68.8 121C46 121 23 121 11.5 121L0 121Z" fill="#e75f5e"></path><path d="M0 74L11.5 76.3C23 78.7 46 83.3 68.8 83.8C91.7 84.3 114.3 80.7 137.2 81.7C160 82.7 183 88.3 205.8 87.3C228.7 86.3 251.3 78.7 274.2 77.2C297 75.7 320 80.3 342.8 82.5C365.7 84.7 388.3 84.3 411.2 82.7C434 81 457 78 480 77.5C503 77 526 79 548.8 82C571.7 85 594.3 89 617.2 91C640 93 663 93 685.8 93.2C708.7 93.3 731.3 93.7 754.2 92.3C777 91 800 88 822.8 87C845.7 86 868.3 87 891.2 87.8C914 88.7 937 89.3 948.5 89.7L960 90L960 121L948.5 121C937 121 914 121 891.2 121C868.3 121 845.7 121 822.8 121C800 121 777 121 754.2 121C731.3 121 708.7 121 685.8 121C663 121 640 121 617.2 121C594.3 121 571.7 121 548.8 121C526 121 503 121 480 121C457 121 434 121 411.2 121C388.3 121 365.7 121 342.8 121C320 121 297 121 274.2 121C251.3 121 228.7 121 205.8 121C183 121 160 121 137.2 121C114.3 121 91.7 121 68.8 121C46 121 23 121 11.5 121L0 121Z" fill="#e25457"></path><path d="M0 89L11.5 90.5C23 92 46 95 68.8 94.2C91.7 93.3 114.3 88.7 137.2 86C160 83.3 183 82.7 205.8 86C228.7 89.3 251.3 96.7 274.2 97.8C297 99 320 94 342.8 92.5C365.7 91 388.3 93 411.2 94.2C434 95.3 457 95.7 480 94.2C503 92.7 526 89.3 548.8 89.8C571.7 90.3 594.3 94.7 617.2 95.3C640 96 663 93 685.8 92.7C708.7 92.3 731.3 94.7 754.2 96.8C777 99 800 101 822.8 102C845.7 103 868.3 103 891.2 99.5C914 96 937 89 948.5 85.5L960 82L960 121L948.5 121C937 121 914 121 891.2 121C868.3 121 845.7 121 822.8 121C800 121 777 121 754.2 121C731.3 121 708.7 121 685.8 121C663 121 640 121 617.2 121C594.3 121 571.7 121 548.8 121C526 121 503 121 480 121C457 121 434 121 411.2 121C388.3 121 365.7 121 342.8 121C320 121 297 121 274.2 121C251.3 121 228.7 121 205.8 121C183 121 160 121 137.2 121C114.3 121 91.7 121 68.8 121C46 121 23 121 11.5 121L0 121Z" fill="#dc4951"></path><path d="M0 108L11.5 108.3C23 108.7 46 109.3 68.8 109.7C91.7 110 114.3 110 137.2 109.5C160 109 183 108 205.8 106.7C228.7 105.3 251.3 103.7 274.2 102.8C297 102 320 102 342.8 102.7C365.7 103.3 388.3 104.7 411.2 104.3C434 104 457 102 480 102.2C503 102.3 526 104.7 548.8 106.5C571.7 108.3 594.3 109.7 617.2 109.8C640 110 663 109 685.8 109.2C708.7 109.3 731.3 110.7 754.2 108.8C777 107 800 102 822.8 100C845.7 98 868.3 99 891.2 101.2C914 103.3 937 106.7 948.5 108.3L960 110L960 121L948.5 121C937 121 914 121 891.2 121C868.3 121 845.7 121 822.8 121C800 121 777 121 754.2 121C731.3 121 708.7 121 685.8 121C663 121 640 121 617.2 121C594.3 121 571.7 121 548.8 121C526 121 503 121 480 121C457 121 434 121 411.2 121C388.3 121 365.7 121 342.8 121C320 121 297 121 274.2 121C251.3 121 228.7 121 205.8 121C183 121 160 121 137.2 121C114.3 121 91.7 121 68.8 121C46 121 23 121 11.5 121L0 121Z" fill="#d73c4b"></path></svg>