<svg id="visual" viewBox="0 0 960 120" width="960" height="120" xmlns="http://www.w3.org/2000/svg" xmlns:xlink="http://www.w3.org/1999/xlink" version="1.1"><rect x="0" y="0" width="960" height="120" fill="#d2d6e2"></rect><path d="M0 38L8.8 38C17.7 38 35.3 38 53.2 40C71 42 89 46 106.8 46.2C124.7 46.3 142.3 42.7 160 39.8C177.7 37 195.3 35 213.2 33.7C231 32.3 249 31.7 266.8 31.7C284.7 31.7 302.3 32.3 320 31.2C337.7 30 355.3 27 373.2 28.3C391 29.7 409 35.3 426.8 34.5C444.7 33.7 462.3 26.3 480 27C497.7 27.7 515.3 36.3 533.2 37.8C551 39.3 569 33.7 586.8 31.2C604.7 28.7 622.3 29.3 640 28.5C657.7 27.7 675.3 25.3 693.2 24C711 22.7 729 22.3 746.8 27.7C764.7 33 782.3 44 800 45.8C817.7 47.7 835.3 40.3 853.2 34.7C871 29 889 25 906.8 25.5C924.7 26 942.3 31 951.2 33.5L960 36L960 121L951.2 121C942.3 121 924.7 121 906.8 121C889 121 871 121 853.2 121C835.3 121 817.7 121 800 121C782.3 121 764.7 121 746.8 121C729 121 711 121 693.2 121C675.3 121 657.7 121 640 121C622.3 121 604.7 121 586.8 121C569 121 551 121 533.2 121C515.3 121 497.7 121 480 121C462.3 121 444.7 121 426.8 121C409 121 391 121 373.2 121C355.3 121 337.7 121 320 121C302.3 121 284.7 121 266.8 121C249 121 231 121 213.2 121C195.3 121 177.7 121 160 121C142.3 121 124.7 121 106.8 121C89 121 71 121 53.2 121C35.3 121 17.7 121 8.8 121L0 121Z" fill="#477cd8"></path><path d="M0 39L8.8 42.3C17.7 45.7 35.3 52.3 53.2 52.2C71 52 89 45 106.8 43C124.7 41 142.3 44 160 47.2C177.7 50.3 195.3 53.7 213.2 52.2C231 50.7 249 44.3 266.8 43C284.7 41.7 302.3 45.3 320 48.2C337.7 51 355.3 53 373.2 52.8C391 52.7 409 50.3 426.8 51C444.7 51.7 462.3 55.3 480 53.2C497.7 51 515.3 43 533.2 43C551 43 569 51 586.8 54.8C604.7 58.7 622.3 58.3 640 54.7C657.7 51 675.3 44 693.2 43.7C711 43.3 729 49.7 746.8 53.5C764.7 57.3 782.3 58.7 800 58.7C817.7 58.7 835.3 57.3 853.2 57.3C871 57.3 889 58.7 906.8 55.8C924.7 53 942.3 46 951.2 42.5L960 39L960 121L951.2 121C942.3 121 924.7 121 906.8 121C889 121 871 121 853.2 121C835.3 121 817.7 121 800 121C782.3 121 764.7 121 746.8 121C729 121 711 121 693.2 121C675.3 121 657.7 121 640 121C622.3 121 604.7 121 586.8 121C569 121 551 121 533.2 121C515.3 121 497.7 121 480 121C462.3 121 444.7 121 426.8 121C409 121 391 121 373.2 121C355.3 121 337.7 121 320 121C302.3 121 284.7 121 266.8 121C249 121 231 121 213.2 121C195.3 121 177.7 121 160 121C142.3 121 124.7 121 106.8 121C89 121 71 121 53.2 121C35.3 121 17.7 121 8.8 121L0 121Z" fill="#3b6fcf"></path><path d="M0 73L8.8 70.3C17.7 67.7 35.3 62.3 53.2 61.5C71 60.7 89 64.3 106.8 65.7C124.7 67 142.3 66 160 65.7C177.7 65.3 195.3 65.7 213.2 67C231 68.3 249 70.7 266.8 71.2C284.7 71.7 302.3 70.3 320 66.8C337.7 63.3 355.3 57.7 373.2 56C391 54.3 409 56.7 426.8 58.3C444.7 60 462.3 61 480 60.3C497.7 59.7 515.3 57.3 533.2 56.2C551 55 569 55 586.8 55.8C604.7 56.7 622.3 58.3 640 58.5C657.7 58.7 675.3 57.3 693.2 59.8C711 62.3 729 68.7 746.8 68C764.7 67.3 782.3 59.7 800 58.2C817.7 56.7 835.3 61.3 853.2 61C871 60.7 889 55.3 906.8 55.2C924.7 55 942.3 60 951.2 62.5L960 65L960 121L951.2 121C942.3 121 924.7 121 906.8 121C889 121 871 121 853.2 121C835.3 121 817.7 121 800 121C782.3 121 764.7 121 746.8 121C729 121 711 121 693.2 121C675.3 121 657.7 121 640 121C622.3 121 604.7 121 586.8 121C569 121 551 121 533.2 121C515.3 121 497.7 121 480 121C462.3 121 444.7 121 426.8 121C409 121 391 121 373.2 121C355.3 121 337.7 121 320 121C302.3 121 284.7 121 266.8 121C249 121 231 121 213.2 121C195.3 121 177.7 121 160 121C142.3 121 124.7 121 106.8 121C89 121 71 121 53.2 121C35.3 121 17.7 121 8.8 121L0 121Z" fill="#2f62c5"></path><path d="M0 71L8.8 71.2C17.7 71.3 35.3 71.7 53.2 73C71 74.3 89 76.7 106.8 76C124.7 75.3 142.3 71.7 160 69.3C177.7 67 195.3 66 213.2 68.8C231 71.7 249 78.3 266.8 78.8C284.7 79.3 302.3 73.7 320 72.5C337.7 71.3 355.3 74.7 373.2 76.2C391 77.7 409 77.3 426.8 79C444.7 80.7 462.3 84.3 480 85.2C497.7 86 515.3 84 533.2 81.8C551 79.7 569 77.3 586.8 76.3C604.7 75.3 622.3 75.7 640 76.2C657.7 76.7 675.3 77.3 693.2 77C711 76.7 729 75.3 746.8 74.8C764.7 74.3 782.3 74.7 800 76.8C817.7 79 835.3 83 853.2 82.2C871 81.3 889 75.7 906.8 72.3C924.7 69 942.3 68 951.2 67.5L960 67L960 121L951.2 121C942.3 121 924.7 121 906.8 121C889 121 871 121 853.2 121C835.3 121 817.7 121 800 121C782.3 121 764.7 121 746.8 121C729 121 711 121 693.2 121C675.3 121 657.7 121 640 121C622.3 121 604.7 121 586.8 121C569 121 551 121 533.2 121C515.3 121 497.7 121 480 121C462.3 121 444.7 121 426.8 121C409 121 391 121 373.2 121C355.3 121 337.7 121 320 121C302.3 121 284.7 121 266.8 121C249 121 231 121 213.2 121C195.3 121 177.7 121 160 121C142.3 121 124.7 121 106.8 121C89 121 71 121 53.2 121C35.3 121 17.7 121 8.8 121L0 121Z" fill="#2356bb"></path><path d="M0 99L8.8 96.5C17.7 94 35.3 89 53.2 88.5C71 88 89 92 106.8 92.5C124.7 93 142.3 90 160 88.5C177.7 87 195.3 87 213.2 85.8C231 84.7 249 82.3 266.8 83.8C284.7 85.3 302.3 90.7 320 91.8C337.7 93 355.3 90 373.2 89.3C391 88.7 409 90.3 426.8 91.2C444.7 92 462.3 92 480 91.3C497.7 90.7 515.3 89.3 533.2 90.3C551 91.3 569 94.7 586.8 95C604.7 95.3 622.3 92.7 640 91.2C657.7 89.7 675.3 89.3 693.2 87.3C711 85.3 729 81.7 746.8 81.8C764.7 82 782.3 86 800 88.7C817.7 91.3 835.3 92.7 853.2 92.5C871 92.3 889 90.7 906.8 90.8C924.7 91 942.3 93 951.2 94L960 95L960 121L951.2 121C942.3 121 924.7 121 906.8 121C889 121 871 121 853.2 121C835.3 121 817.7 121 800 121C782.3 121 764.7 121 746.8 121C729 121 711 121 693.2 121C675.3 121 657.7 121 640 121C622.3 121 604.7 121 586.8 121C569 121 551 121 533.2 121C515.3 121 497.7 121 480 121C462.3 121 444.7 121 426.8 121C409 121 391 121 373.2 121C355.3 121 337.7 121 320 121C302.3 121 284.7 121 266.8 121C249 121 231 121 213.2 121C195.3 121 177.7 121 160 121C142.3 121 124.7 121 106.8 121C89 121 71 121 53.2 121C35.3 121 17.7 121 8.8 121L0 121Z" fill="#1449b1"></path><path d="M0 107L8.8 107C17.7 107 35.3 107 53.2 104.8C71 102.7 89 98.3 106.8 97.8C124.7 97.3 142.3 100.7 160 103C177.7 105.3 195.3 106.7 213.2 107C231 107.3 249 106.7 266.8 105.5C284.7 104.3 302.3 102.7 320 100.7C337.7 98.7 355.3 96.3 373.2 96.5C391 96.7 409 99.3 426.8 100C444.7 100.7 462.3 99.3 480 98.2C497.7 97 515.3 96 533.2 95.7C551 95.3 569 95.7 586.8 97.7C604.7 99.7 622.3 103.3 640 104.2C657.7 105 675.3 103 693.2 100.7C711 98.3 729 95.7 746.8 95.5C764.7 95.3 782.3 97.7 800 98.5C817.7 99.3 835.3 98.7 853.2 98.3C871 98 889 98 906.8 99.3C924.7 100.7 942.3 103.3 951.2 104.7L960 106L960 121L951.2 121C942.3 121 924.7 121 906.8 121C889 121 871 121 853.2 121C835.3 121 817.7 121 800 121C782.3 121 764.7 121 746.8 121C729 121 711 121 693.2 121C675.3 121 657.7 121 640 121C622.3 121 604.7 121 586.8 121C569 121 551 121 533.2 121C515.3 121 497.7 121 480 121C462.3 121 444.7 121 426.8 121C409 121 391 121 373.2 121C355.3 121 337.7 121 320 121C302.3 121 284.7 121 266.8 121C249 121 231 121 213.2 121C195.3 121 177.7 121 160 121C142.3 121 124.7 121 106.8 121C89 121 71 121 53.2 121C35.3 121 17.7 121 8.8 121L0 121Z" fill="#003da6"></path></svg>