<svg id="visual" viewBox="0 0 960 120" width="960" height="120" xmlns="http://www.w3.org/2000/svg" xmlns:xlink="http://www.w3.org/1999/xlink" version="1.1"><rect x="0" y="0" width="960" height="120" fill="#d2d6e2"></rect><path d="M0 114L13.3 109.7C26.7 105.3 53.3 96.7 80 90.3C106.7 84 133.3 80 160 84.5C186.7 89 213.3 102 240 102.2C266.7 102.3 293.3 89.7 320 81.3C346.7 73 373.3 69 400 64.7C426.7 60.3 453.3 55.7 480 56C506.7 56.3 533.3 61.7 560 63C586.7 64.3 613.3 61.7 640 62.8C666.7 64 693.3 69 720 70.2C746.7 71.3 773.3 68.7 800 73C826.7 77.3 853.3 88.7 880 93.5C906.7 98.3 933.3 96.7 946.7 95.8L960 95L960 0L946.7 0C933.3 0 906.7 0 880 0C853.3 0 826.7 0 800 0C773.3 0 746.7 0 720 0C693.3 0 666.7 0 640 0C613.3 0 586.7 0 560 0C533.3 0 506.7 0 480 0C453.3 0 426.7 0 400 0C373.3 0 346.7 0 320 0C293.3 0 266.7 0 240 0C213.3 0 186.7 0 160 0C133.3 0 106.7 0 80 0C53.3 0 26.7 0 13.3 0L0 0Z" fill="#f6beed"></path><path d="M0 43L13.3 45.7C26.7 48.3 53.3 53.7 80 55.7C106.7 57.7 133.3 56.3 160 61.2C186.7 66 213.3 77 240 82.8C266.7 88.7 293.3 89.3 320 87.2C346.7 85 373.3 80 400 80.5C426.7 81 453.3 87 480 91.3C506.7 95.7 533.3 98.3 560 98C586.7 97.7 613.3 94.3 640 85.8C666.7 77.3 693.3 63.7 720 57.5C746.7 51.3 773.3 52.7 800 53.3C826.7 54 853.3 54 880 61C906.7 68 933.3 82 946.7 89L960 96L960 0L946.7 0C933.3 0 906.7 0 880 0C853.3 0 826.7 0 800 0C773.3 0 746.7 0 720 0C693.3 0 666.7 0 640 0C613.3 0 586.7 0 560 0C533.3 0 506.7 0 480 0C453.3 0 426.7 0 400 0C373.3 0 346.7 0 320 0C293.3 0 266.7 0 240 0C213.3 0 186.7 0 160 0C133.3 0 106.7 0 80 0C53.3 0 26.7 0 13.3 0L0 0Z" fill="#f1b4e7"></path><path d="M0 52L13.3 51C26.7 50 53.3 48 80 47.8C106.7 47.7 133.3 49.3 160 47.8C186.7 46.3 213.3 41.7 240 45C266.7 48.3 293.3 59.7 320 61.2C346.7 62.7 373.3 54.3 400 53.5C426.7 52.7 453.3 59.3 480 66.3C506.7 73.3 533.3 80.7 560 78.3C586.7 76 613.3 64 640 55.2C666.7 46.3 693.3 40.7 720 44.7C746.7 48.7 773.3 62.3 800 68C826.7 73.7 853.3 71.3 880 71.8C906.7 72.3 933.3 75.7 946.7 77.3L960 79L960 0L946.7 0C933.3 0 906.7 0 880 0C853.3 0 826.7 0 800 0C773.3 0 746.7 0 720 0C693.3 0 666.7 0 640 0C613.3 0 586.7 0 560 0C533.3 0 506.7 0 480 0C453.3 0 426.7 0 400 0C373.3 0 346.7 0 320 0C293.3 0 266.7 0 240 0C213.3 0 186.7 0 160 0C133.3 0 106.7 0 80 0C53.3 0 26.7 0 13.3 0L0 0Z" fill="#eca9e2"></path><path d="M0 41L13.3 45.7C26.7 50.3 53.3 59.7 80 60.5C106.7 61.3 133.3 53.7 160 47.2C186.7 40.7 213.3 35.3 240 32.8C266.7 30.3 293.3 30.7 320 35C346.7 39.3 373.3 47.7 400 54.3C426.7 61 453.3 66 480 64.7C506.7 63.3 533.3 55.7 560 51.7C586.7 47.7 613.3 47.3 640 45C666.7 42.7 693.3 38.3 720 42.7C746.7 47 773.3 60 800 63.3C826.7 66.7 853.3 60.3 880 56.3C906.7 52.3 933.3 50.7 946.7 49.8L960 49L960 0L946.7 0C933.3 0 906.7 0 880 0C853.3 0 826.7 0 800 0C773.3 0 746.7 0 720 0C693.3 0 666.7 0 640 0C613.3 0 586.7 0 560 0C533.3 0 506.7 0 480 0C453.3 0 426.7 0 400 0C373.3 0 346.7 0 320 0C293.3 0 266.7 0 240 0C213.3 0 186.7 0 160 0C133.3 0 106.7 0 80 0C53.3 0 26.7 0 13.3 0L0 0Z" fill="#e79fdc"></path><path d="M0 41L13.3 40.7C26.7 40.3 53.3 39.7 80 39.5C106.7 39.3 133.3 39.7 160 42.2C186.7 44.7 213.3 49.3 240 48C266.7 46.7 293.3 39.3 320 36C346.7 32.7 373.3 33.3 400 35.2C426.7 37 453.3 40 480 43.7C506.7 47.3 533.3 51.7 560 52C586.7 52.3 613.3 48.7 640 48.3C666.7 48 693.3 51 720 49.2C746.7 47.3 773.3 40.7 800 39.8C826.7 39 853.3 44 880 47C906.7 50 933.3 51 946.7 51.5L960 52L960 0L946.7 0C933.3 0 906.7 0 880 0C853.3 0 826.7 0 800 0C773.3 0 746.7 0 720 0C693.3 0 666.7 0 640 0C613.3 0 586.7 0 560 0C533.3 0 506.7 0 480 0C453.3 0 426.7 0 400 0C373.3 0 346.7 0 320 0C293.3 0 266.7 0 240 0C213.3 0 186.7 0 160 0C133.3 0 106.7 0 80 0C53.3 0 26.7 0 13.3 0L0 0Z" fill="#e295d6"></path><path d="M0 46L13.3 44.2C26.7 42.3 53.3 38.7 80 38.5C106.7 38.3 133.3 41.7 160 38.3C186.7 35 213.3 25 240 24.2C266.7 23.3 293.3 31.7 320 36.8C346.7 42 373.3 44 400 40C426.7 36 453.3 26 480 26.5C506.7 27 533.3 38 560 39.7C586.7 41.3 613.3 33.7 640 32.7C666.7 31.7 693.3 37.3 720 40.2C746.7 43 773.3 43 800 38.2C826.7 33.3 853.3 23.7 880 22C906.7 20.3 933.3 26.7 946.7 29.8L960 33L960 0L946.7 0C933.3 0 906.7 0 880 0C853.3 0 826.7 0 800 0C773.3 0 746.7 0 720 0C693.3 0 666.7 0 640 0C613.3 0 586.7 0 560 0C533.3 0 506.7 0 480 0C453.3 0 426.7 0 400 0C373.3 0 346.7 0 320 0C293.3 0 266.7 0 240 0C213.3 0 186.7 0 160 0C133.3 0 106.7 0 80 0C53.3 0 26.7 0 13.3 0L0 0Z" fill="#dd8ad0"></path><path d="M0 11L13.3 15C26.7 19 53.3 27 80 28.7C106.7 30.3 133.3 25.7 160 21.8C186.7 18 213.3 15 240 13.5C266.7 12 293.3 12 320 11.8C346.7 11.7 373.3 11.3 400 15C426.7 18.7 453.3 26.3 480 28.5C506.7 30.7 533.3 27.3 560 25.2C586.7 23 613.3 22 640 21.7C666.7 21.3 693.3 21.7 720 20.7C746.7 19.7 773.3 17.3 800 16C826.7 14.7 853.3 14.3 880 17.2C906.7 20 933.3 26 946.7 29L960 32L960 0L946.7 0C933.3 0 906.7 0 880 0C853.3 0 826.7 0 800 0C773.3 0 746.7 0 720 0C693.3 0 666.7 0 640 0C613.3 0 586.7 0 560 0C533.3 0 506.7 0 480 0C453.3 0 426.7 0 400 0C373.3 0 346.7 0 320 0C293.3 0 266.7 0 240 0C213.3 0 186.7 0 160 0C133.3 0 106.7 0 80 0C53.3 0 26.7 0 13.3 0L0 0Z" fill="#d880cb"></path><path d="M0 17L13.3 16.8C26.7 16.7 53.3 16.3 80 14C106.7 11.7 133.3 7.3 160 6C186.7 4.7 213.3 6.3 240 8.2C266.7 10 293.3 12 320 12.3C346.7 12.7 373.3 11.3 400 12.3C426.7 13.3 453.3 16.7 480 16.5C506.7 16.3 533.3 12.7 560 12.5C586.7 12.3 613.3 15.7 640 17.2C666.7 18.7 693.3 18.3 720 15.5C746.7 12.7 773.3 7.3 800 6.2C826.7 5 853.3 8 880 10.2C906.7 12.3 933.3 13.7 946.7 14.3L960 15L960 0L946.7 0C933.3 0 906.7 0 880 0C853.3 0 826.7 0 800 0C773.3 0 746.7 0 720 0C693.3 0 666.7 0 640 0C613.3 0 586.7 0 560 0C533.3 0 506.7 0 480 0C453.3 0 426.7 0 400 0C373.3 0 346.7 0 320 0C293.3 0 266.7 0 240 0C213.3 0 186.7 0 160 0C133.3 0 106.7 0 80 0C53.3 0 26.7 0 13.3 0L0 0Z" fill="#d375c5"></path></svg>