<svg id="visual" viewBox="0 0 960 120" width="960" height="120" xmlns="http://www.w3.org/2000/svg" xmlns:xlink="http://www.w3.org/1999/xlink" version="1.1"><rect x="0" y="0" width="960" height="120" fill="#d2d6e2"></rect><path d="M0 101L11.5 96.3C23 91.7 46 82.3 68.8 76.7C91.7 71 114.3 69 137.2 74.2C160 79.3 183 91.7 205.8 92.3C228.7 93 251.3 82 274.2 77.2C297 72.3 320 73.7 342.8 73.2C365.7 72.7 388.3 70.3 411.2 69.2C434 68 457 68 480 73.8C503 79.7 526 91.3 548.8 95.2C571.7 99 594.3 95 617.2 92C640 89 663 87 685.8 83.2C708.7 79.3 731.3 73.7 754.2 73.8C777 74 800 80 822.8 85.3C845.7 90.7 868.3 95.3 891.2 94.3C914 93.3 937 86.7 948.5 83.3L960 80L960 0L948.5 0C937 0 914 0 891.2 0C868.3 0 845.7 0 822.8 0C800 0 777 0 754.2 0C731.3 0 708.7 0 685.8 0C663 0 640 0 617.2 0C594.3 0 571.7 0 548.8 0C526 0 503 0 480 0C457 0 434 0 411.2 0C388.3 0 365.7 0 342.8 0C320 0 297 0 274.2 0C251.3 0 228.7 0 205.8 0C183 0 160 0 137.2 0C114.3 0 91.7 0 68.8 0C46 0 23 0 11.5 0L0 0Z" fill="#acabaa"></path><path d="M0 64L11.5 64C23 64 46 64 68.8 62.5C91.7 61 114.3 58 137.2 60.3C160 62.7 183 70.3 205.8 76.8C228.7 83.3 251.3 88.7 274.2 87.2C297 85.7 320 77.3 342.8 74.8C365.7 72.3 388.3 75.7 411.2 77.8C434 80 457 81 480 81.3C503 81.7 526 81.3 548.8 83.5C571.7 85.7 594.3 90.3 617.2 86.3C640 82.3 663 69.7 685.8 68.5C708.7 67.3 731.3 77.7 754.2 79.3C777 81 800 74 822.8 72.7C845.7 71.3 868.3 75.7 891.2 78.7C914 81.7 937 83.3 948.5 84.2L960 85L960 0L948.5 0C937 0 914 0 891.2 0C868.3 0 845.7 0 822.8 0C800 0 777 0 754.2 0C731.3 0 708.7 0 685.8 0C663 0 640 0 617.2 0C594.3 0 571.7 0 548.8 0C526 0 503 0 480 0C457 0 434 0 411.2 0C388.3 0 365.7 0 342.8 0C320 0 297 0 274.2 0C251.3 0 228.7 0 205.8 0C183 0 160 0 137.2 0C114.3 0 91.7 0 68.8 0C46 0 23 0 11.5 0L0 0Z" fill="#b7b5b4"></path><path d="M0 58L11.5 60.2C23 62.3 46 66.7 68.8 69.2C91.7 71.7 114.3 72.3 137.2 69.7C160 67 183 61 205.8 57.8C228.7 54.7 251.3 54.3 274.2 57.2C297 60 320 66 342.8 64.8C365.7 63.7 388.3 55.3 411.2 56C434 56.7 457 66.3 480 71.3C503 76.3 526 76.7 548.8 74.3C571.7 72 594.3 67 617.2 66.7C640 66.3 663 70.7 685.8 69.8C708.7 69 731.3 63 754.2 60.2C777 57.3 800 57.7 822.8 58.8C845.7 60 868.3 62 891.2 60.2C914 58.3 937 52.7 948.5 49.8L960 47L960 0L948.5 0C937 0 914 0 891.2 0C868.3 0 845.7 0 822.8 0C800 0 777 0 754.2 0C731.3 0 708.7 0 685.8 0C663 0 640 0 617.2 0C594.3 0 571.7 0 548.8 0C526 0 503 0 480 0C457 0 434 0 411.2 0C388.3 0 365.7 0 342.8 0C320 0 297 0 274.2 0C251.3 0 228.7 0 205.8 0C183 0 160 0 137.2 0C114.3 0 91.7 0 68.8 0C46 0 23 0 11.5 0L0 0Z" fill="#c1c0bd"></path><path d="M0 45L11.5 44C23 43 46 41 68.8 44.3C91.7 47.7 114.3 56.3 137.2 56.3C160 56.3 183 47.7 205.8 43.7C228.7 39.7 251.3 40.3 274.2 41.5C297 42.7 320 44.3 342.8 45.3C365.7 46.3 388.3 46.7 411.2 48.3C434 50 457 53 480 51.2C503 49.3 526 42.7 548.8 42C571.7 41.3 594.3 46.7 617.2 48.8C640 51 663 50 685.8 47C708.7 44 731.3 39 754.2 38.3C777 37.7 800 41.3 822.8 43.8C845.7 46.3 868.3 47.7 891.2 50C914 52.3 937 55.7 948.5 57.3L960 59L960 0L948.5 0C937 0 914 0 891.2 0C868.3 0 845.7 0 822.8 0C800 0 777 0 754.2 0C731.3 0 708.7 0 685.8 0C663 0 640 0 617.2 0C594.3 0 571.7 0 548.8 0C526 0 503 0 480 0C457 0 434 0 411.2 0C388.3 0 365.7 0 342.8 0C320 0 297 0 274.2 0C251.3 0 228.7 0 205.8 0C183 0 160 0 137.2 0C114.3 0 91.7 0 68.8 0C46 0 23 0 11.5 0L0 0Z" fill="#cccac7"></path><path d="M0 49L11.5 47.8C23 46.7 46 44.3 68.8 41.7C91.7 39 114.3 36 137.2 36.2C160 36.3 183 39.7 205.8 38.2C228.7 36.7 251.3 30.3 274.2 31.8C297 33.3 320 42.7 342.8 46.2C365.7 49.7 388.3 47.3 411.2 43.8C434 40.3 457 35.7 480 33.5C503 31.3 526 31.7 548.8 31.7C571.7 31.7 594.3 31.3 617.2 33.8C640 36.3 663 41.7 685.8 45.2C708.7 48.7 731.3 50.3 754.2 46.8C777 43.3 800 34.7 822.8 33.5C845.7 32.3 868.3 38.7 891.2 38.3C914 38 937 31 948.5 27.5L960 24L960 0L948.5 0C937 0 914 0 891.2 0C868.3 0 845.7 0 822.8 0C800 0 777 0 754.2 0C731.3 0 708.7 0 685.8 0C663 0 640 0 617.2 0C594.3 0 571.7 0 548.8 0C526 0 503 0 480 0C457 0 434 0 411.2 0C388.3 0 365.7 0 342.8 0C320 0 297 0 274.2 0C251.3 0 228.7 0 205.8 0C183 0 160 0 137.2 0C114.3 0 91.7 0 68.8 0C46 0 23 0 11.5 0L0 0Z" fill="#d7d5d1"></path><path d="M0 20L11.5 23C23 26 46 32 68.8 31.8C91.7 31.7 114.3 25.3 137.2 24.7C160 24 183 29 205.8 31.3C228.7 33.7 251.3 33.3 274.2 30.7C297 28 320 23 342.8 23.3C365.7 23.7 388.3 29.3 411.2 30.2C434 31 457 27 480 24.3C503 21.7 526 20.3 548.8 20C571.7 19.7 594.3 20.3 617.2 20.7C640 21 663 21 685.8 20C708.7 19 731.3 17 754.2 16.5C777 16 800 17 822.8 18.7C845.7 20.3 868.3 22.7 891.2 22.8C914 23 937 21 948.5 20L960 19L960 0L948.5 0C937 0 914 0 891.2 0C868.3 0 845.7 0 822.8 0C800 0 777 0 754.2 0C731.3 0 708.7 0 685.8 0C663 0 640 0 617.2 0C594.3 0 571.7 0 548.8 0C526 0 503 0 480 0C457 0 434 0 411.2 0C388.3 0 365.7 0 342.8 0C320 0 297 0 274.2 0C251.3 0 228.7 0 205.8 0C183 0 160 0 137.2 0C114.3 0 91.7 0 68.8 0C46 0 23 0 11.5 0L0 0Z" fill="#e1dfda"></path><path d="M0 13L11.5 12.3C23 11.7 46 10.3 68.8 9C91.7 7.7 114.3 6.3 137.2 6C160 5.7 183 6.3 205.8 6.3C228.7 6.3 251.3 5.7 274.2 7C297 8.3 320 11.7 342.8 12.7C365.7 13.7 388.3 12.3 411.2 12.7C434 13 457 15 480 17C503 19 526 21 548.8 20.3C571.7 19.7 594.3 16.3 617.2 13.5C640 10.7 663 8.3 685.8 7.8C708.7 7.3 731.3 8.7 754.2 9.2C777 9.7 800 9.3 822.8 11C845.7 12.7 868.3 16.3 891.2 16.7C914 17 937 14 948.5 12.5L960 11L960 0L948.5 0C937 0 914 0 891.2 0C868.3 0 845.7 0 822.8 0C800 0 777 0 754.2 0C731.3 0 708.7 0 685.8 0C663 0 640 0 617.2 0C594.3 0 571.7 0 548.8 0C526 0 503 0 480 0C457 0 434 0 411.2 0C388.3 0 365.7 0 342.8 0C320 0 297 0 274.2 0C251.3 0 228.7 0 205.8 0C183 0 160 0 137.2 0C114.3 0 91.7 0 68.8 0C46 0 23 0 11.5 0L0 0Z" fill="#eceae4"></path></svg>