<svg id="visual" viewBox="0 0 960 120" width="960" height="120" xmlns="http://www.w3.org/2000/svg" xmlns:xlink="http://www.w3.org/1999/xlink" version="1.1"><rect x="0" y="0" width="960" height="120" fill="#d2d6e2"></rect><path d="M0 31L11.5 31.8C23 32.7 46 34.3 68.8 35.7C91.7 37 114.3 38 137.2 35.7C160 33.3 183 27.7 205.8 24.3C228.7 21 251.3 20 274.2 25.3C297 30.7 320 42.3 342.8 44.8C365.7 47.3 388.3 40.7 411.2 34.3C434 28 457 22 480 23C503 24 526 32 548.8 32C571.7 32 594.3 24 617.2 21.7C640 19.3 663 22.7 685.8 27.2C708.7 31.7 731.3 37.3 754.2 37.7C777 38 800 33 822.8 28.5C845.7 24 868.3 20 891.2 24.2C914 28.3 937 40.7 948.5 46.8L960 53L960 121L948.5 121C937 121 914 121 891.2 121C868.3 121 845.7 121 822.8 121C800 121 777 121 754.2 121C731.3 121 708.7 121 685.8 121C663 121 640 121 617.2 121C594.3 121 571.7 121 548.8 121C526 121 503 121 480 121C457 121 434 121 411.2 121C388.3 121 365.7 121 342.8 121C320 121 297 121 274.2 121C251.3 121 228.7 121 205.8 121C183 121 160 121 137.2 121C114.3 121 91.7 121 68.8 121C46 121 23 121 11.5 121L0 121Z" fill="#6e74c5"></path><path d="M0 43L11.5 46.5C23 50 46 57 68.8 58.8C91.7 60.7 114.3 57.3 137.2 53.7C160 50 183 46 205.8 41.8C228.7 37.7 251.3 33.3 274.2 37.5C297 41.7 320 54.3 342.8 57.8C365.7 61.3 388.3 55.7 411.2 52.2C434 48.7 457 47.3 480 46C503 44.7 526 43.3 548.8 45C571.7 46.7 594.3 51.3 617.2 53.8C640 56.3 663 56.7 685.8 52.8C708.7 49 731.3 41 754.2 37C777 33 800 33 822.8 35.7C845.7 38.3 868.3 43.7 891.2 46.7C914 49.7 937 50.3 948.5 50.7L960 51L960 121L948.5 121C937 121 914 121 891.2 121C868.3 121 845.7 121 822.8 121C800 121 777 121 754.2 121C731.3 121 708.7 121 685.8 121C663 121 640 121 617.2 121C594.3 121 571.7 121 548.8 121C526 121 503 121 480 121C457 121 434 121 411.2 121C388.3 121 365.7 121 342.8 121C320 121 297 121 274.2 121C251.3 121 228.7 121 205.8 121C183 121 160 121 137.2 121C114.3 121 91.7 121 68.8 121C46 121 23 121 11.5 121L0 121Z" fill="#7b80cf"></path><path d="M0 69L11.5 65.7C23 62.3 46 55.7 68.8 56.8C91.7 58 114.3 67 137.2 66C160 65 183 54 205.8 49.8C228.7 45.7 251.3 48.3 274.2 50.7C297 53 320 55 342.8 58.8C365.7 62.7 388.3 68.3 411.2 66.3C434 64.3 457 54.7 480 52.2C503 49.7 526 54.3 548.8 55.5C571.7 56.7 594.3 54.3 617.2 54.8C640 55.3 663 58.7 685.8 62C708.7 65.3 731.3 68.7 754.2 70C777 71.3 800 70.7 822.8 68.5C845.7 66.3 868.3 62.7 891.2 57.8C914 53 937 47 948.5 44L960 41L960 121L948.5 121C937 121 914 121 891.2 121C868.3 121 845.7 121 822.8 121C800 121 777 121 754.2 121C731.3 121 708.7 121 685.8 121C663 121 640 121 617.2 121C594.3 121 571.7 121 548.8 121C526 121 503 121 480 121C457 121 434 121 411.2 121C388.3 121 365.7 121 342.8 121C320 121 297 121 274.2 121C251.3 121 228.7 121 205.8 121C183 121 160 121 137.2 121C114.3 121 91.7 121 68.8 121C46 121 23 121 11.5 121L0 121Z" fill="#888dd8"></path><path d="M0 84L11.5 81.3C23 78.7 46 73.3 68.8 68.5C91.7 63.7 114.3 59.3 137.2 59C160 58.7 183 62.3 205.8 65C228.7 67.7 251.3 69.3 274.2 69.8C297 70.3 320 69.7 342.8 68.7C365.7 67.7 388.3 66.3 411.2 68.7C434 71 457 77 480 78C503 79 526 75 548.8 72.2C571.7 69.3 594.3 67.7 617.2 66C640 64.3 663 62.7 685.8 62.2C708.7 61.7 731.3 62.3 754.2 62.7C777 63 800 63 822.8 66C845.7 69 868.3 75 891.2 76.5C914 78 937 75 948.5 73.5L960 72L960 121L948.5 121C937 121 914 121 891.2 121C868.3 121 845.7 121 822.8 121C800 121 777 121 754.2 121C731.3 121 708.7 121 685.8 121C663 121 640 121 617.2 121C594.3 121 571.7 121 548.8 121C526 121 503 121 480 121C457 121 434 121 411.2 121C388.3 121 365.7 121 342.8 121C320 121 297 121 274.2 121C251.3 121 228.7 121 205.8 121C183 121 160 121 137.2 121C114.3 121 91.7 121 68.8 121C46 121 23 121 11.5 121L0 121Z" fill="#959ae2"></path><path d="M0 94L11.5 92.5C23 91 46 88 68.8 85C91.7 82 114.3 79 137.2 76.5C160 74 183 72 205.8 74.3C228.7 76.7 251.3 83.3 274.2 84.7C297 86 320 82 342.8 82.5C365.7 83 388.3 88 411.2 86.7C434 85.3 457 77.7 480 73.7C503 69.7 526 69.3 548.8 72.3C571.7 75.3 594.3 81.7 617.2 82.7C640 83.7 663 79.3 685.8 77.2C708.7 75 731.3 75 754.2 77.3C777 79.7 800 84.3 822.8 85.2C845.7 86 868.3 83 891.2 82.7C914 82.3 937 84.7 948.5 85.8L960 87L960 121L948.5 121C937 121 914 121 891.2 121C868.3 121 845.7 121 822.8 121C800 121 777 121 754.2 121C731.3 121 708.7 121 685.8 121C663 121 640 121 617.2 121C594.3 121 571.7 121 548.8 121C526 121 503 121 480 121C457 121 434 121 411.2 121C388.3 121 365.7 121 342.8 121C320 121 297 121 274.2 121C251.3 121 228.7 121 205.8 121C183 121 160 121 137.2 121C114.3 121 91.7 121 68.8 121C46 121 23 121 11.5 121L0 121Z" fill="#a2a7ec"></path><path d="M0 89L11.5 88.8C23 88.7 46 88.3 68.8 90.5C91.7 92.7 114.3 97.3 137.2 99.5C160 101.7 183 101.3 205.8 99.7C228.7 98 251.3 95 274.2 93.5C297 92 320 92 342.8 90.3C365.7 88.7 388.3 85.3 411.2 86.7C434 88 457 94 480 97C503 100 526 100 548.8 98.8C571.7 97.7 594.3 95.3 617.2 95C640 94.7 663 96.3 685.8 97.3C708.7 98.3 731.3 98.7 754.2 96.8C777 95 800 91 822.8 90.7C845.7 90.3 868.3 93.7 891.2 96.2C914 98.7 937 100.3 948.5 101.2L960 102L960 121L948.5 121C937 121 914 121 891.2 121C868.3 121 845.7 121 822.8 121C800 121 777 121 754.2 121C731.3 121 708.7 121 685.8 121C663 121 640 121 617.2 121C594.3 121 571.7 121 548.8 121C526 121 503 121 480 121C457 121 434 121 411.2 121C388.3 121 365.7 121 342.8 121C320 121 297 121 274.2 121C251.3 121 228.7 121 205.8 121C183 121 160 121 137.2 121C114.3 121 91.7 121 68.8 121C46 121 23 121 11.5 121L0 121Z" fill="#afb4f5"></path><path d="M0 98L11.5 98.3C23 98.7 46 99.3 68.8 99.3C91.7 99.3 114.3 98.7 137.2 100.7C160 102.7 183 107.3 205.8 107C228.7 106.7 251.3 101.3 274.2 98.7C297 96 320 96 342.8 96.3C365.7 96.7 388.3 97.3 411.2 99.8C434 102.3 457 106.7 480 106.3C503 106 526 101 548.8 100.8C571.7 100.7 594.3 105.3 617.2 107C640 108.7 663 107.3 685.8 106.2C708.7 105 731.3 104 754.2 103.7C777 103.3 800 103.7 822.8 104C845.7 104.3 868.3 104.7 891.2 104.8C914 105 937 105 948.5 105L960 105L960 121L948.5 121C937 121 914 121 891.2 121C868.3 121 845.7 121 822.8 121C800 121 777 121 754.2 121C731.3 121 708.7 121 685.8 121C663 121 640 121 617.2 121C594.3 121 571.7 121 548.8 121C526 121 503 121 480 121C457 121 434 121 411.2 121C388.3 121 365.7 121 342.8 121C320 121 297 121 274.2 121C251.3 121 228.7 121 205.8 121C183 121 160 121 137.2 121C114.3 121 91.7 121 68.8 121C46 121 23 121 11.5 121L0 121Z" fill="#bcc1ff"></path></svg>