<svg id="visual" viewBox="0 0 960 120" width="960" height="120" xmlns="http://www.w3.org/2000/svg" xmlns:xlink="http://www.w3.org/1999/xlink" version="1.1"><rect x="0" y="0" width="960" height="120" fill="#d2d6e2"></rect><path d="M0 71L11.5 76.2C23 81.3 46 91.7 68.8 94.7C91.7 97.7 114.3 93.3 137.2 87.5C160 81.7 183 74.3 205.8 74.7C228.7 75 251.3 83 274.2 86C297 89 320 87 342.8 82C365.7 77 388.3 69 411.2 65.7C434 62.3 457 63.7 480 64C503 64.3 526 63.7 548.8 65.7C571.7 67.7 594.3 72.3 617.2 71.8C640 71.3 663 65.7 685.8 68.5C708.7 71.3 731.3 82.7 754.2 86.8C777 91 800 88 822.8 83.5C845.7 79 868.3 73 891.2 69.8C914 66.7 937 66.3 948.5 66.2L960 66L960 0L948.5 0C937 0 914 0 891.2 0C868.3 0 845.7 0 822.8 0C800 0 777 0 754.2 0C731.3 0 708.7 0 685.8 0C663 0 640 0 617.2 0C594.3 0 571.7 0 548.8 0C526 0 503 0 480 0C457 0 434 0 411.2 0C388.3 0 365.7 0 342.8 0C320 0 297 0 274.2 0C251.3 0 228.7 0 205.8 0C183 0 160 0 137.2 0C114.3 0 91.7 0 68.8 0C46 0 23 0 11.5 0L0 0Z" fill="#f67d74"></path><path d="M0 63L11.5 64.7C23 66.3 46 69.7 68.8 71.3C91.7 73 114.3 73 137.2 69.7C160 66.3 183 59.7 205.8 56C228.7 52.3 251.3 51.7 274.2 51.7C297 51.7 320 52.3 342.8 56C365.7 59.7 388.3 66.3 411.2 66.2C434 66 457 59 480 55.7C503 52.3 526 52.7 548.8 52.8C571.7 53 594.3 53 617.2 54.2C640 55.3 663 57.7 685.8 58.3C708.7 59 731.3 58 754.2 59.3C777 60.7 800 64.3 822.8 65.3C845.7 66.3 868.3 64.7 891.2 67C914 69.3 937 75.7 948.5 78.8L960 82L960 0L948.5 0C937 0 914 0 891.2 0C868.3 0 845.7 0 822.8 0C800 0 777 0 754.2 0C731.3 0 708.7 0 685.8 0C663 0 640 0 617.2 0C594.3 0 571.7 0 548.8 0C526 0 503 0 480 0C457 0 434 0 411.2 0C388.3 0 365.7 0 342.8 0C320 0 297 0 274.2 0C251.3 0 228.7 0 205.8 0C183 0 160 0 137.2 0C114.3 0 91.7 0 68.8 0C46 0 23 0 11.5 0L0 0Z" fill="#f1736c"></path><path d="M0 52L11.5 53.5C23 55 46 58 68.8 58.7C91.7 59.3 114.3 57.7 137.2 55.5C160 53.3 183 50.7 205.8 51.7C228.7 52.7 251.3 57.3 274.2 56.7C297 56 320 50 342.8 51.2C365.7 52.3 388.3 60.7 411.2 64.3C434 68 457 67 480 67.8C503 68.7 526 71.3 548.8 70.2C571.7 69 594.3 64 617.2 61.5C640 59 663 59 685.8 56.8C708.7 54.7 731.3 50.3 754.2 51.2C777 52 800 58 822.8 60.7C845.7 63.3 868.3 62.7 891.2 63C914 63.3 937 64.7 948.5 65.3L960 66L960 0L948.5 0C937 0 914 0 891.2 0C868.3 0 845.7 0 822.8 0C800 0 777 0 754.2 0C731.3 0 708.7 0 685.8 0C663 0 640 0 617.2 0C594.3 0 571.7 0 548.8 0C526 0 503 0 480 0C457 0 434 0 411.2 0C388.3 0 365.7 0 342.8 0C320 0 297 0 274.2 0C251.3 0 228.7 0 205.8 0C183 0 160 0 137.2 0C114.3 0 91.7 0 68.8 0C46 0 23 0 11.5 0L0 0Z" fill="#ec6965"></path><path d="M0 34L11.5 38.7C23 43.3 46 52.7 68.8 54.2C91.7 55.7 114.3 49.3 137.2 49C160 48.7 183 54.3 205.8 57.5C228.7 60.7 251.3 61.3 274.2 59.5C297 57.7 320 53.3 342.8 51.7C365.7 50 388.3 51 411.2 48.3C434 45.7 457 39.3 480 38.7C503 38 526 43 548.8 47.3C571.7 51.7 594.3 55.3 617.2 53.8C640 52.3 663 45.7 685.8 44C708.7 42.3 731.3 45.7 754.2 49C777 52.3 800 55.7 822.8 57.8C845.7 60 868.3 61 891.2 57.3C914 53.7 937 45.3 948.5 41.2L960 37L960 0L948.5 0C937 0 914 0 891.2 0C868.3 0 845.7 0 822.8 0C800 0 777 0 754.2 0C731.3 0 708.7 0 685.8 0C663 0 640 0 617.2 0C594.3 0 571.7 0 548.8 0C526 0 503 0 480 0C457 0 434 0 411.2 0C388.3 0 365.7 0 342.8 0C320 0 297 0 274.2 0C251.3 0 228.7 0 205.8 0C183 0 160 0 137.2 0C114.3 0 91.7 0 68.8 0C46 0 23 0 11.5 0L0 0Z" fill="#e75f5e"></path><path d="M0 32L11.5 33.2C23 34.3 46 36.7 68.8 36.5C91.7 36.3 114.3 33.7 137.2 33.8C160 34 183 37 205.8 37.7C228.7 38.3 251.3 36.7 274.2 35.8C297 35 320 35 342.8 37.2C365.7 39.3 388.3 43.7 411.2 44.7C434 45.7 457 43.3 480 43.5C503 43.7 526 46.3 548.8 44.8C571.7 43.3 594.3 37.7 617.2 37C640 36.3 663 40.7 685.8 43C708.7 45.3 731.3 45.7 754.2 42.2C777 38.7 800 31.3 822.8 28C845.7 24.7 868.3 25.3 891.2 25.2C914 25 937 24 948.5 23.5L960 23L960 0L948.5 0C937 0 914 0 891.2 0C868.3 0 845.7 0 822.8 0C800 0 777 0 754.2 0C731.3 0 708.7 0 685.8 0C663 0 640 0 617.2 0C594.3 0 571.7 0 548.8 0C526 0 503 0 480 0C457 0 434 0 411.2 0C388.3 0 365.7 0 342.8 0C320 0 297 0 274.2 0C251.3 0 228.7 0 205.8 0C183 0 160 0 137.2 0C114.3 0 91.7 0 68.8 0C46 0 23 0 11.5 0L0 0Z" fill="#e25457"></path><path d="M0 21L11.5 22.3C23 23.7 46 26.3 68.8 25.3C91.7 24.3 114.3 19.7 137.2 19C160 18.3 183 21.7 205.8 24C228.7 26.3 251.3 27.7 274.2 28C297 28.3 320 27.7 342.8 27C365.7 26.3 388.3 25.7 411.2 26.3C434 27 457 29 480 30.7C503 32.3 526 33.7 548.8 32.5C571.7 31.3 594.3 27.7 617.2 26.2C640 24.7 663 25.3 685.8 26C708.7 26.7 731.3 27.3 754.2 28.3C777 29.3 800 30.7 822.8 30.7C845.7 30.7 868.3 29.3 891.2 28.3C914 27.3 937 26.7 948.5 26.3L960 26L960 0L948.5 0C937 0 914 0 891.2 0C868.3 0 845.7 0 822.8 0C800 0 777 0 754.2 0C731.3 0 708.7 0 685.8 0C663 0 640 0 617.2 0C594.3 0 571.7 0 548.8 0C526 0 503 0 480 0C457 0 434 0 411.2 0C388.3 0 365.7 0 342.8 0C320 0 297 0 274.2 0C251.3 0 228.7 0 205.8 0C183 0 160 0 137.2 0C114.3 0 91.7 0 68.8 0C46 0 23 0 11.5 0L0 0Z" fill="#dc4951"></path><path d="M0 19L11.5 18.8C23 18.7 46 18.3 68.8 18.5C91.7 18.7 114.3 19.3 137.2 19.7C160 20 183 20 205.8 19.5C228.7 19 251.3 18 274.2 17.8C297 17.7 320 18.3 342.8 19.3C365.7 20.3 388.3 21.7 411.2 21.5C434 21.3 457 19.7 480 19.2C503 18.7 526 19.3 548.8 18.2C571.7 17 594.3 14 617.2 13.8C640 13.7 663 16.3 685.8 17.5C708.7 18.7 731.3 18.3 754.2 17.7C777 17 800 16 822.8 15.5C845.7 15 868.3 15 891.2 13.8C914 12.7 937 10.3 948.5 9.2L960 8L960 0L948.5 0C937 0 914 0 891.2 0C868.3 0 845.7 0 822.8 0C800 0 777 0 754.2 0C731.3 0 708.7 0 685.8 0C663 0 640 0 617.2 0C594.3 0 571.7 0 548.8 0C526 0 503 0 480 0C457 0 434 0 411.2 0C388.3 0 365.7 0 342.8 0C320 0 297 0 274.2 0C251.3 0 228.7 0 205.8 0C183 0 160 0 137.2 0C114.3 0 91.7 0 68.8 0C46 0 23 0 11.5 0L0 0Z" fill="#d73c4b"></path></svg>