<svg id="visual" viewBox="0 0 960 120" width="960" height="120" xmlns="http://www.w3.org/2000/svg" xmlns:xlink="http://www.w3.org/1999/xlink" version="1.1"><rect x="0" y="0" width="960" height="120" fill="#d2d6e2"></rect><path d="M0 12L13.3 17.2C26.7 22.3 53.3 32.7 80 37.2C106.7 41.7 133.3 40.3 160 42.5C186.7 44.7 213.3 50.3 240 54.8C266.7 59.3 293.3 62.7 320 59C346.7 55.3 373.3 44.7 400 41.7C426.7 38.7 453.3 43.3 480 39.2C506.7 35 533.3 22 560 16.5C586.7 11 613.3 13 640 19.5C666.7 26 693.3 37 720 41.8C746.7 46.7 773.3 45.3 800 38.8C826.7 32.3 853.3 20.7 880 16.2C906.7 11.7 933.3 14.3 946.7 15.7L960 17L960 121L946.7 121C933.3 121 906.7 121 880 121C853.3 121 826.7 121 800 121C773.3 121 746.7 121 720 121C693.3 121 666.7 121 640 121C613.3 121 586.7 121 560 121C533.3 121 506.7 121 480 121C453.3 121 426.7 121 400 121C373.3 121 346.7 121 320 121C293.3 121 266.7 121 240 121C213.3 121 186.7 121 160 121C133.3 121 106.7 121 80 121C53.3 121 26.7 121 13.3 121L0 121Z" fill="#f6beed"></path><path d="M0 18L13.3 18C26.7 18 53.3 18 80 23.2C106.7 28.3 133.3 38.7 160 38.3C186.7 38 213.3 27 240 25.5C266.7 24 293.3 32 320 32.2C346.7 32.3 373.3 24.7 400 28.7C426.7 32.7 453.3 48.3 480 55C506.7 61.7 533.3 59.3 560 56.8C586.7 54.3 613.3 51.7 640 48C666.7 44.3 693.3 39.7 720 41.3C746.7 43 773.3 51 800 49C826.7 47 853.3 35 880 29.3C906.7 23.7 933.3 24.3 946.7 24.7L960 25L960 121L946.7 121C933.3 121 906.7 121 880 121C853.3 121 826.7 121 800 121C773.3 121 746.7 121 720 121C693.3 121 666.7 121 640 121C613.3 121 586.7 121 560 121C533.3 121 506.7 121 480 121C453.3 121 426.7 121 400 121C373.3 121 346.7 121 320 121C293.3 121 266.7 121 240 121C213.3 121 186.7 121 160 121C133.3 121 106.7 121 80 121C53.3 121 26.7 121 13.3 121L0 121Z" fill="#f1b4e7"></path><path d="M0 66L13.3 60C26.7 54 53.3 42 80 38.3C106.7 34.7 133.3 39.3 160 45.2C186.7 51 213.3 58 240 57C266.7 56 293.3 47 320 48C346.7 49 373.3 60 400 67C426.7 74 453.3 77 480 78.2C506.7 79.3 533.3 78.7 560 76.8C586.7 75 613.3 72 640 69.2C666.7 66.3 693.3 63.7 720 60.5C746.7 57.3 773.3 53.7 800 52.8C826.7 52 853.3 54 880 53.5C906.7 53 933.3 50 946.7 48.5L960 47L960 121L946.7 121C933.3 121 906.7 121 880 121C853.3 121 826.7 121 800 121C773.3 121 746.7 121 720 121C693.3 121 666.7 121 640 121C613.3 121 586.7 121 560 121C533.3 121 506.7 121 480 121C453.3 121 426.7 121 400 121C373.3 121 346.7 121 320 121C293.3 121 266.7 121 240 121C213.3 121 186.7 121 160 121C133.3 121 106.7 121 80 121C53.3 121 26.7 121 13.3 121L0 121Z" fill="#eca9e2"></path><path d="M0 65L13.3 63.8C26.7 62.7 53.3 60.3 80 57C106.7 53.7 133.3 49.3 160 52.2C186.7 55 213.3 65 240 64.5C266.7 64 293.3 53 320 47.5C346.7 42 373.3 42 400 46.7C426.7 51.3 453.3 60.7 480 67.8C506.7 75 533.3 80 560 77C586.7 74 613.3 63 640 60C666.7 57 693.3 62 720 61.3C746.7 60.7 773.3 54.3 800 51.2C826.7 48 853.3 48 880 52.3C906.7 56.7 933.3 65.3 946.7 69.7L960 74L960 121L946.7 121C933.3 121 906.7 121 880 121C853.3 121 826.7 121 800 121C773.3 121 746.7 121 720 121C693.3 121 666.7 121 640 121C613.3 121 586.7 121 560 121C533.3 121 506.7 121 480 121C453.3 121 426.7 121 400 121C373.3 121 346.7 121 320 121C293.3 121 266.7 121 240 121C213.3 121 186.7 121 160 121C133.3 121 106.7 121 80 121C53.3 121 26.7 121 13.3 121L0 121Z" fill="#e79fdc"></path><path d="M0 95L13.3 90.3C26.7 85.7 53.3 76.3 80 70.5C106.7 64.7 133.3 62.3 160 61.5C186.7 60.7 213.3 61.3 240 62.8C266.7 64.3 293.3 66.7 320 67.7C346.7 68.7 373.3 68.3 400 67.5C426.7 66.7 453.3 65.3 480 64.8C506.7 64.3 533.3 64.7 560 67C586.7 69.3 613.3 73.7 640 73.7C666.7 73.7 693.3 69.3 720 70.2C746.7 71 773.3 77 800 81.3C826.7 85.7 853.3 88.3 880 89C906.7 89.7 933.3 88.3 946.7 87.7L960 87L960 121L946.7 121C933.3 121 906.7 121 880 121C853.3 121 826.7 121 800 121C773.3 121 746.7 121 720 121C693.3 121 666.7 121 640 121C613.3 121 586.7 121 560 121C533.3 121 506.7 121 480 121C453.3 121 426.7 121 400 121C373.3 121 346.7 121 320 121C293.3 121 266.7 121 240 121C213.3 121 186.7 121 160 121C133.3 121 106.7 121 80 121C53.3 121 26.7 121 13.3 121L0 121Z" fill="#e295d6"></path><path d="M0 102L13.3 99.2C26.7 96.3 53.3 90.7 80 90.2C106.7 89.7 133.3 94.3 160 93.2C186.7 92 213.3 85 240 83.5C266.7 82 293.3 86 320 90C346.7 94 373.3 98 400 99.5C426.7 101 453.3 100 480 95.7C506.7 91.3 533.3 83.7 560 78.8C586.7 74 613.3 72 640 76.3C666.7 80.7 693.3 91.3 720 95.7C746.7 100 773.3 98 800 94.7C826.7 91.3 853.3 86.7 880 86.2C906.7 85.7 933.3 89.3 946.7 91.2L960 93L960 121L946.7 121C933.3 121 906.7 121 880 121C853.3 121 826.7 121 800 121C773.3 121 746.7 121 720 121C693.3 121 666.7 121 640 121C613.3 121 586.7 121 560 121C533.3 121 506.7 121 480 121C453.3 121 426.7 121 400 121C373.3 121 346.7 121 320 121C293.3 121 266.7 121 240 121C213.3 121 186.7 121 160 121C133.3 121 106.7 121 80 121C53.3 121 26.7 121 13.3 121L0 121Z" fill="#dd8ad0"></path><path d="M0 109L13.3 107.3C26.7 105.7 53.3 102.3 80 100C106.7 97.7 133.3 96.3 160 94.5C186.7 92.7 213.3 90.3 240 92.2C266.7 94 293.3 100 320 99.3C346.7 98.7 373.3 91.3 400 89.2C426.7 87 453.3 90 480 89.8C506.7 89.7 533.3 86.3 560 89C586.7 91.7 613.3 100.3 640 100.3C666.7 100.3 693.3 91.7 720 91.3C746.7 91 773.3 99 800 102.7C826.7 106.3 853.3 105.7 880 104.8C906.7 104 933.3 103 946.7 102.5L960 102L960 121L946.7 121C933.3 121 906.7 121 880 121C853.3 121 826.7 121 800 121C773.3 121 746.7 121 720 121C693.3 121 666.7 121 640 121C613.3 121 586.7 121 560 121C533.3 121 506.7 121 480 121C453.3 121 426.7 121 400 121C373.3 121 346.7 121 320 121C293.3 121 266.7 121 240 121C213.3 121 186.7 121 160 121C133.3 121 106.7 121 80 121C53.3 121 26.7 121 13.3 121L0 121Z" fill="#d880cb"></path><path d="M0 107L13.3 107.7C26.7 108.3 53.3 109.7 80 111.5C106.7 113.3 133.3 115.7 160 114.5C186.7 113.3 213.3 108.7 240 106.7C266.7 104.7 293.3 105.3 320 105C346.7 104.7 373.3 103.3 400 104C426.7 104.7 453.3 107.3 480 109.8C506.7 112.3 533.3 114.7 560 114.3C586.7 114 613.3 111 640 107.5C666.7 104 693.3 100 720 98.8C746.7 97.7 773.3 99.3 800 99.5C826.7 99.7 853.3 98.3 880 101C906.7 103.7 933.3 110.3 946.7 113.7L960 117L960 121L946.7 121C933.3 121 906.7 121 880 121C853.3 121 826.7 121 800 121C773.3 121 746.7 121 720 121C693.3 121 666.7 121 640 121C613.3 121 586.7 121 560 121C533.3 121 506.7 121 480 121C453.3 121 426.7 121 400 121C373.3 121 346.7 121 320 121C293.3 121 266.7 121 240 121C213.3 121 186.7 121 160 121C133.3 121 106.7 121 80 121C53.3 121 26.7 121 13.3 121L0 121Z" fill="#d375c5"></path></svg>