<svg width="132" height="69" viewBox="0 0 132 69" fill="none" xmlns="http://www.w3.org/2000/svg">
<path d="M36.4354 8.6209L38.0785 32.1182L34.9221 32.3389L33.7327 15.3296L27.0151 23.5879L26.1734 23.6467L18.1964 16.416L19.3858 33.4253L16.2295 33.646L14.5864 10.1487L15.5684 10.08L26.3514 20.1453L35.4534 8.6895L36.4354 8.6209ZM50.8911 13.2488C52.6914 13.1229 54.2139 13.3923 55.4586 14.0571C56.7033 14.7219 57.6629 15.6768 58.3373 16.9219C59.0351 18.1653 59.4404 19.5936 59.5532 21.2069L59.6734 22.9253L46.2063 23.867C46.4152 24.8392 46.8172 25.7156 47.4122 26.4964C48.0072 27.2771 48.7543 27.8827 49.6538 28.3132C50.5515 28.7203 51.5615 28.8846 52.6838 28.8061C53.9463 28.7178 55.105 28.3196 56.1597 27.6115C57.2128 26.88 58.0865 26.1024 58.7807 25.2785L58.9639 28.4022C58.6644 28.8226 58.2028 29.2778 57.5792 29.7678C56.9774 30.2328 56.2654 30.635 55.4433 30.9744C54.6463 31.3355 53.7918 31.548 52.88 31.6118C51.1031 31.736 49.4955 31.4255 48.0572 30.6803C46.6189 29.9351 45.454 28.9005 44.5626 27.5767C43.693 26.2278 43.2001 24.7234 43.084 23.0633C42.968 21.4033 43.2233 19.8466 43.85 18.3931C44.4767 16.9396 45.3919 15.7478 46.5955 14.8178C47.8226 13.8862 49.2545 13.3632 50.8911 13.2488ZM51.0873 16.0544C49.6377 16.1558 48.4796 16.7301 47.6131 17.7775C46.7449 18.8015 46.2421 20.0114 46.1048 21.4072L56.661 20.669C56.464 19.5316 56.0713 18.6192 55.4829 17.932C54.9178 17.2432 54.2489 16.7496 53.4762 16.4512C52.7019 16.1295 51.9056 15.9972 51.0873 16.0544ZM66.5922 12.5032L66.7859 15.2738C67.1273 14.7801 67.5739 14.2789 68.1257 13.7705C68.6759 13.2386 69.3019 12.7837 70.0038 12.4056C70.7291 12.026 71.4892 11.8084 72.2842 11.7528C73.4766 11.6694 74.5825 11.8623 75.6021 12.3314C76.6201 12.7771 77.4589 13.5172 78.1186 14.5518C78.7767 15.5631 79.1621 16.8753 79.275 18.4886L80.0229 29.1851L77.1471 29.3862L76.3837 18.9727C76.2774 17.453 75.8575 16.3194 75.1239 15.5718C74.4136 14.8227 73.3688 14.4963 71.9894 14.5928C71.0541 14.6582 70.1434 15.0743 69.2573 15.8411C68.3929 16.5829 67.6418 17.4342 67.0042 18.3951L67.8184 30.0386L64.9426 30.2396L63.7164 12.7043L66.5922 12.5032ZM88.719 5.8811L89.072 10.9313L94.193 10.5732L94.382 13.2737L89.261 13.6317L89.98 23.9074C90.03 24.6322 90.258 25.1919 90.661 25.5866C91.065 25.9813 91.652 26.1517 92.424 26.0977C93.125 26.0487 93.704 25.926 94.16 25.7296C94.615 25.5099 95.01 25.2825 95.346 25.0476L95.51 27.3973C95.069 27.8041 94.586 28.1315 94.063 28.3795C93.565 28.6493 92.872 28.8152 91.984 28.8774C90.487 28.982 89.322 28.6171 88.489 27.7826C87.677 26.9231 87.218 25.7451 87.114 24.2488L86.385 13.8328L83.0187 14.0682L82.9598 13.2265C84.0695 12.6321 84.9692 11.7233 85.6591 10.5004C86.347 9.254 86.923 7.7453 87.387 5.9743L88.719 5.8811ZM106.618 9.3519C107.624 9.2816 108.658 9.456 109.721 9.8751C110.806 10.2691 111.752 10.8608 112.559 11.6502L112.394 9.3004L115.27 9.0993L116.496 26.6347L113.621 26.8357L113.412 23.8547C112.87 24.8325 112.097 25.7088 111.094 26.4838C110.114 27.2572 108.958 27.6904 107.625 27.7836C106.129 27.8883 104.735 27.6098 103.443 26.9483C102.15 26.2634 101.082 25.2691 100.239 23.9653C99.42 22.6599 98.948 21.1188 98.823 19.3419C98.688 17.4013 98.933 15.7043 99.56 14.2508C100.21 12.7956 101.152 11.649 102.386 10.8109C103.617 9.9494 105.028 9.4631 106.618 9.3519ZM107.341 12.1208C106.078 12.2091 105.025 12.5999 104.18 13.2933C103.336 13.9867 102.703 14.8533 102.283 15.8929C101.884 16.9076 101.724 17.9878 101.805 19.1334C101.883 20.2557 102.19 21.2798 102.724 22.2057C103.257 23.1082 103.964 23.8106 104.845 24.3128C105.749 24.8135 106.763 25.0246 107.885 24.9461C108.96 24.8709 109.899 24.5233 110.702 23.9033C111.504 23.2833 112.117 22.4652 112.539 21.4489C112.96 20.4092 113.115 19.2706 113.005 18.033L112.735 14.6687C111.946 13.8075 111.113 13.1492 110.235 12.6937C109.381 12.2366 108.416 12.0456 107.341 12.1208ZM123.568 0.765823L125.334 26.0167L122.458 26.2177L120.693 0.966914L123.568 0.765823Z" fill="white"/>
<path d="M14.433 39.3223L23.767 63.5872L19.9794 63.3224L17.9168 57.5394L6.90459 56.7694L4.02219 62.2066L0.234589 61.9417L12.8548 39.212L14.433 39.3223ZM13.3237 44.6016L8.41069 53.8791L16.8276 54.4677L13.3237 44.6016ZM33.5749 46.2996C34.6037 46.3716 35.5516 46.5906 36.4188 46.9566C37.2877 47.2993 37.9102 47.6365 38.2864 47.9683L38.0706 51.0545C37.6058 50.6461 36.9648 50.2371 36.1476 49.8275C35.3304 49.4179 34.4776 49.1821 33.5892 49.12C32.4903 49.0431 31.6423 49.2423 31.0452 49.7174C30.4715 50.1942 30.165 50.7131 30.1258 51.2743C30.0947 51.7185 30.2148 52.185 30.486 52.6739C30.7823 53.141 31.3181 53.5426 32.0934 53.8788L34.9658 55.1369C36.0836 55.6145 36.8969 56.247 37.4057 57.0344C37.9146 57.8218 38.1338 58.7182 38.0635 59.7235C37.9948 60.7055 37.6513 61.5861 37.033 62.3651C36.438 63.1458 35.6324 63.7474 34.6161 64.1697C33.6248 64.5703 32.4978 64.7264 31.2353 64.6381C30.5573 64.5907 29.8507 64.4473 29.1156 64.208C28.4023 63.9936 27.7615 63.7491 27.1934 63.4744C26.6268 63.1764 26.2098 62.924 25.9423 62.7173L26.1581 59.6311C26.4691 59.8878 26.9062 60.1886 27.4695 60.5334C28.0578 60.8565 28.6836 61.1469 29.3469 61.4048C30.0118 61.6392 30.6366 61.7769 31.2211 61.8178C32.32 61.8946 33.2022 61.7096 33.8678 61.2627C34.5568 60.8175 34.9266 60.2325 34.9773 59.5077C35.0165 58.9466 34.8255 58.4868 34.4041 58.1285C34.0062 57.7717 33.4087 57.4127 32.6116 57.0516L30.0826 55.9232C28.7625 55.314 27.9073 54.6081 27.5171 53.8055C27.1284 52.9795 26.9692 52.0638 27.0395 51.0584C27.1442 49.5621 27.792 48.3622 28.9829 47.4587C30.1738 46.5552 31.7045 46.1688 33.5749 46.2996ZM48.5851 47.3492C49.6139 47.4212 50.5619 47.6402 51.4291 48.0062C52.2979 48.3489 52.9204 48.6862 53.2966 49.0179L53.0808 52.1041C52.616 51.6957 51.975 51.2867 51.1578 50.8771C50.3406 50.4676 49.4878 50.2317 48.5994 50.1696C47.5005 50.0928 46.6525 50.2919 46.0554 50.767C45.4817 51.2438 45.1752 51.7627 45.136 52.3239C45.1049 52.7681 45.225 53.2346 45.4963 53.7235C45.7925 54.1906 46.3283 54.5923 47.1036 54.9284L49.976 56.1865C51.0938 56.6641 51.9072 57.2966 52.416 58.084C52.9248 58.8714 53.144 59.7678 53.0737 60.7732C53.0051 61.7551 52.6616 62.6357 52.0432 63.4147C51.4482 64.1955 50.6426 64.797 49.6263 65.2193C48.635 65.6199 47.5081 65.776 46.2455 65.6877C45.5675 65.6403 44.8609 65.4969 44.1258 65.2576C43.4125 65.0432 42.7717 64.7987 42.2036 64.524C41.6371 64.226 41.22 63.9736 40.9526 63.767L41.1684 60.6807C41.4793 60.9374 41.9165 61.2382 42.4797 61.583C43.068 61.9061 43.6938 62.1965 44.3571 62.4544C45.0221 62.6888 45.6468 62.8265 46.2313 62.8674C47.3302 62.9442 48.2124 62.7592 48.878 62.3124C49.567 61.8672 49.9368 61.2821 49.9875 60.5574C50.0268 59.9962 49.8357 59.5365 49.4144 59.1781C49.0164 58.8213 48.4189 58.4624 47.6218 58.1012L45.0928 56.9728C43.7727 56.3636 42.9175 55.6577 42.5273 54.8551C42.1386 54.0291 41.9795 53.1134 42.0498 52.1081C42.1544 50.6117 42.8022 49.4118 43.9931 48.5083C45.184 47.6048 46.7147 47.2184 48.5851 47.3492ZM61.7395 40.1634C62.4176 40.2108 62.9615 40.4955 63.3714 41.0176C63.8063 41.5179 64.0017 42.0837 63.9576 42.715C63.9151 43.3228 63.6428 43.8559 63.1409 44.3142C62.6623 44.7742 62.084 44.9804 61.406 44.933C60.728 44.8856 60.1723 44.6 59.7391 44.0763C59.3292 43.5543 59.1455 42.9893 59.188 42.3814C59.2321 41.7502 59.4927 41.2163 59.9696 40.7797C60.4715 40.3214 61.0615 40.116 61.7395 40.1634ZM62.9396 48.7054L61.7134 66.2407L58.8376 66.0396L59.8749 51.2048L57.1044 51.011L57.2932 48.3106L62.9396 48.7054ZM74.3971 49.1542C75.4259 49.2261 76.3738 49.4451 77.241 49.8112C78.1099 50.1539 78.7324 50.4911 79.1086 50.8228L78.8928 53.9091C78.428 53.5006 77.787 53.0916 76.9698 52.6821C76.1526 52.2725 75.2998 52.0367 74.4113 51.9745C73.3125 51.8977 72.4645 52.0968 71.8674 52.572C71.2937 53.0487 70.9872 53.5677 70.9479 54.1288C70.9169 54.573 71.037 55.0396 71.3082 55.5285C71.6045 55.9956 72.1403 56.3972 72.9156 56.7334L75.788 57.9915C76.9058 58.4691 77.7191 59.1015 78.2279 59.889C78.7368 60.6764 78.956 61.5728 78.8857 62.5781C78.817 63.5601 78.4735 64.4406 77.8552 65.2197C77.2602 66.0004 76.4546 66.6019 75.4383 67.0242C74.447 67.4248 73.32 67.581 72.0575 67.4927C71.3795 67.4453 70.6729 67.3019 69.9378 67.0625C69.2245 66.8482 68.5837 66.6037 68.0155 66.329C67.449 66.0309 67.032 65.7786 66.7645 65.5719L66.9803 62.4857C67.2913 62.7424 67.7284 63.0431 68.2917 63.388C68.88 63.711 69.5058 64.0015 70.1691 64.2593C70.834 64.4938 71.4588 64.6314 72.0433 64.6723C73.1421 64.7492 74.0244 64.5642 74.69 64.1173C75.379 63.6721 75.7488 63.0871 75.7995 62.3623C75.8387 61.8012 75.6477 61.3414 75.2263 60.983C74.8284 60.6263 74.2309 60.2673 73.4338 59.9061L70.9048 58.7778C69.5847 58.1686 68.7295 57.4627 68.3392 56.66C67.9506 55.834 67.7914 54.9184 67.8617 53.913C67.9664 52.4167 68.6142 51.2167 69.8051 50.3132C70.996 49.4097 72.5267 49.0234 74.3971 49.1542ZM89.35 45.4774L88.997 50.5275L94.117 50.8856L93.929 53.586L88.808 53.228L88.09 63.5037C88.039 64.2284 88.186 64.8143 88.531 65.2614C88.875 65.7084 89.433 65.9588 90.205 66.0128C90.906 66.0618 91.497 66.0209 91.976 65.8899C92.456 65.7356 92.879 65.5654 93.245 65.3795L93.08 67.7293C92.587 68.0707 92.064 68.3278 91.511 68.5006C90.98 68.6984 90.271 68.7663 89.382 68.7042C87.886 68.5995 86.783 68.076 86.074 67.1336C85.3893 66.1694 85.0994 64.9392 85.2041 63.4428L85.9324 53.0269L82.5656 52.7914L82.6245 51.9497C83.8061 51.5155 84.8236 50.7408 85.6769 49.6258C86.532 48.4873 87.312 47.0734 88.017 45.3842L89.35 45.4774Z" fill="white"/>
<path fill-rule="evenodd" clip-rule="evenodd" d="M122.666 41.252C123.513 41.252 124.262 41.5429 124.722 41.7766C126.443 42.6425 127.795 44.4087 128.087 46.1702C128.577 49.1345 127.298 52.5546 124.284 56.3344C121.665 59.6261 118.563 62.4873 115.051 64.8536C111.175 60.8678 108.554 55.7845 106.015 50.8594C104.682 48.28 103.467 44.8668 105.231 43.2495C106.394 42.1797 108.471 42.4386 109.833 43.2243C111.594 44.2391 112.927 46.1084 114.1 47.7577C114.192 47.8883 114.3 48.0006 114.42 48.0945C114.427 48.8779 115.019 49.5629 115.841 49.6843C116.759 49.8103 117.604 49.2078 117.739 48.3236C118.325 44.5667 119.423 42.4249 121.194 41.5796C121.695 41.3413 122.195 41.252 122.666 41.252ZM114.835 68.5693C115.148 68.5693 115.461 68.4844 115.742 68.3105C120.035 65.6119 123.796 62.2513 126.926 58.3251C130.525 53.803 132.025 49.5422 131.382 45.6525C130.923 42.883 128.911 40.2303 126.257 38.8925C124.057 37.7861 121.735 37.7059 119.726 38.6657C117.435 39.7561 116.144 41.7995 115.381 43.9276C114.34 42.615 113.12 41.3459 111.531 40.4319C109.138 39.0529 105.426 38.6039 102.939 40.8878C100.325 43.2862 100.353 47.1301 103.029 52.3163C105.763 57.6171 108.862 63.6236 113.681 68.118C113.999 68.4158 114.416 68.5693 114.835 68.5693Z" fill="white"/>
<ellipse cx="116" cy="54.5" rx="10" ry="10.5" fill="white"/>
<ellipse cx="123.5" cy="47" rx="7.5" ry="8" fill="white"/>
<ellipse cx="108.5" cy="48" rx="6.5" ry="7" fill="white"/>
</svg>
