<svg id="visual" viewBox="0 0 960 120" width="960" height="120" xmlns="http://www.w3.org/2000/svg" xmlns:xlink="http://www.w3.org/1999/xlink" version="1.1"><rect x="0" y="0" width="960" height="120" fill="#d2d6e2"></rect><path d="M0 23L11.5 25.7C23 28.3 46 33.7 68.8 39.7C91.7 45.7 114.3 52.3 137.2 51.7C160 51 183 43 205.8 37.2C228.7 31.3 251.3 27.7 274.2 28.2C297 28.7 320 33.3 342.8 38.3C365.7 43.3 388.3 48.7 411.2 47.7C434 46.7 457 39.3 480 36.5C503 33.7 526 35.3 548.8 34.3C571.7 33.3 594.3 29.7 617.2 27.2C640 24.7 663 23.3 685.8 25.3C708.7 27.3 731.3 32.7 754.2 34.7C777 36.7 800 35.3 822.8 32C845.7 28.7 868.3 23.3 891.2 26.8C914 30.3 937 42.7 948.5 48.8L960 55L960 121L948.5 121C937 121 914 121 891.2 121C868.3 121 845.7 121 822.8 121C800 121 777 121 754.2 121C731.3 121 708.7 121 685.8 121C663 121 640 121 617.2 121C594.3 121 571.7 121 548.8 121C526 121 503 121 480 121C457 121 434 121 411.2 121C388.3 121 365.7 121 342.8 121C320 121 297 121 274.2 121C251.3 121 228.7 121 205.8 121C183 121 160 121 137.2 121C114.3 121 91.7 121 68.8 121C46 121 23 121 11.5 121L0 121Z" fill="#5aecc1"></path><path d="M0 47L11.5 44.5C23 42 46 37 68.8 38.3C91.7 39.7 114.3 47.3 137.2 50.5C160 53.7 183 52.3 205.8 51.2C228.7 50 251.3 49 274.2 48.8C297 48.7 320 49.3 342.8 47.3C365.7 45.3 388.3 40.7 411.2 42.5C434 44.3 457 52.7 480 58C503 63.3 526 65.7 548.8 60.5C571.7 55.3 594.3 42.7 617.2 41.5C640 40.3 663 50.7 685.8 50.7C708.7 50.7 731.3 40.3 754.2 38.2C777 36 800 42 822.8 47.5C845.7 53 868.3 58 891.2 59.2C914 60.3 937 57.7 948.5 56.3L960 55L960 121L948.5 121C937 121 914 121 891.2 121C868.3 121 845.7 121 822.8 121C800 121 777 121 754.2 121C731.3 121 708.7 121 685.8 121C663 121 640 121 617.2 121C594.3 121 571.7 121 548.8 121C526 121 503 121 480 121C457 121 434 121 411.2 121C388.3 121 365.7 121 342.8 121C320 121 297 121 274.2 121C251.3 121 228.7 121 205.8 121C183 121 160 121 137.2 121C114.3 121 91.7 121 68.8 121C46 121 23 121 11.5 121L0 121Z" fill="#50e2b8"></path><path d="M0 42L11.5 47.7C23 53.3 46 64.7 68.8 67.3C91.7 70 114.3 64 137.2 61C160 58 183 58 205.8 57.3C228.7 56.7 251.3 55.3 274.2 58C297 60.7 320 67.3 342.8 71C365.7 74.7 388.3 75.3 411.2 70.7C434 66 457 56 480 50.3C503 44.7 526 43.3 548.8 44.5C571.7 45.7 594.3 49.3 617.2 51.7C640 54 663 55 685.8 55.3C708.7 55.7 731.3 55.3 754.2 54C777 52.7 800 50.3 822.8 49.7C845.7 49 868.3 50 891.2 52.2C914 54.3 937 57.7 948.5 59.3L960 61L960 121L948.5 121C937 121 914 121 891.2 121C868.3 121 845.7 121 822.8 121C800 121 777 121 754.2 121C731.3 121 708.7 121 685.8 121C663 121 640 121 617.2 121C594.3 121 571.7 121 548.8 121C526 121 503 121 480 121C457 121 434 121 411.2 121C388.3 121 365.7 121 342.8 121C320 121 297 121 274.2 121C251.3 121 228.7 121 205.8 121C183 121 160 121 137.2 121C114.3 121 91.7 121 68.8 121C46 121 23 121 11.5 121L0 121Z" fill="#45d9af"></path><path d="M0 77L11.5 76.3C23 75.7 46 74.3 68.8 71.2C91.7 68 114.3 63 137.2 64.7C160 66.3 183 74.7 205.8 75.8C228.7 77 251.3 71 274.2 68.7C297 66.3 320 67.7 342.8 67.3C365.7 67 388.3 65 411.2 66.8C434 68.7 457 74.3 480 73.3C503 72.3 526 64.7 548.8 61.5C571.7 58.3 594.3 59.7 617.2 59.8C640 60 663 59 685.8 58.7C708.7 58.3 731.3 58.7 754.2 62.8C777 67 800 75 822.8 76.3C845.7 77.7 868.3 72.3 891.2 67.8C914 63.3 937 59.7 948.5 57.8L960 56L960 121L948.5 121C937 121 914 121 891.2 121C868.3 121 845.7 121 822.8 121C800 121 777 121 754.2 121C731.3 121 708.7 121 685.8 121C663 121 640 121 617.2 121C594.3 121 571.7 121 548.8 121C526 121 503 121 480 121C457 121 434 121 411.2 121C388.3 121 365.7 121 342.8 121C320 121 297 121 274.2 121C251.3 121 228.7 121 205.8 121C183 121 160 121 137.2 121C114.3 121 91.7 121 68.8 121C46 121 23 121 11.5 121L0 121Z" fill="#39cfa6"></path><path d="M0 88L11.5 85.7C23 83.3 46 78.7 68.8 76.5C91.7 74.3 114.3 74.7 137.2 74.7C160 74.7 183 74.3 205.8 75.8C228.7 77.3 251.3 80.7 274.2 82.2C297 83.7 320 83.3 342.8 85.2C365.7 87 388.3 91 411.2 89.3C434 87.7 457 80.3 480 76C503 71.7 526 70.3 548.8 70.8C571.7 71.3 594.3 73.7 617.2 74.3C640 75 663 74 685.8 73.5C708.7 73 731.3 73 754.2 74.2C777 75.3 800 77.7 822.8 81C845.7 84.3 868.3 88.7 891.2 89.7C914 90.7 937 88.3 948.5 87.2L960 86L960 121L948.5 121C937 121 914 121 891.2 121C868.3 121 845.7 121 822.8 121C800 121 777 121 754.2 121C731.3 121 708.7 121 685.8 121C663 121 640 121 617.2 121C594.3 121 571.7 121 548.8 121C526 121 503 121 480 121C457 121 434 121 411.2 121C388.3 121 365.7 121 342.8 121C320 121 297 121 274.2 121C251.3 121 228.7 121 205.8 121C183 121 160 121 137.2 121C114.3 121 91.7 121 68.8 121C46 121 23 121 11.5 121L0 121Z" fill="#2cc69d"></path><path d="M0 103L11.5 102.5C23 102 46 101 68.8 98C91.7 95 114.3 90 137.2 89.8C160 89.7 183 94.3 205.8 97.2C228.7 100 251.3 101 274.2 100.8C297 100.7 320 99.3 342.8 98.8C365.7 98.3 388.3 98.7 411.2 98.2C434 97.7 457 96.3 480 96.2C503 96 526 97 548.8 98C571.7 99 594.3 100 617.2 99.2C640 98.3 663 95.7 685.8 95.5C708.7 95.3 731.3 97.7 754.2 98C777 98.3 800 96.7 822.8 97C845.7 97.3 868.3 99.7 891.2 97.7C914 95.7 937 89.3 948.5 86.2L960 83L960 121L948.5 121C937 121 914 121 891.2 121C868.3 121 845.7 121 822.8 121C800 121 777 121 754.2 121C731.3 121 708.7 121 685.8 121C663 121 640 121 617.2 121C594.3 121 571.7 121 548.8 121C526 121 503 121 480 121C457 121 434 121 411.2 121C388.3 121 365.7 121 342.8 121C320 121 297 121 274.2 121C251.3 121 228.7 121 205.8 121C183 121 160 121 137.2 121C114.3 121 91.7 121 68.8 121C46 121 23 121 11.5 121L0 121Z" fill="#1cbc94"></path><path d="M0 105L11.5 103.5C23 102 46 99 68.8 97.7C91.7 96.3 114.3 96.7 137.2 97.3C160 98 183 99 205.8 99.8C228.7 100.7 251.3 101.3 274.2 101C297 100.7 320 99.3 342.8 98.3C365.7 97.3 388.3 96.7 411.2 99C434 101.3 457 106.7 480 106.8C503 107 526 102 548.8 102.2C571.7 102.3 594.3 107.7 617.2 108.7C640 109.7 663 106.3 685.8 104.2C708.7 102 731.3 101 754.2 102.2C777 103.3 800 106.7 822.8 108.3C845.7 110 868.3 110 891.2 108.5C914 107 937 104 948.5 102.5L960 101L960 121L948.5 121C937 121 914 121 891.2 121C868.3 121 845.7 121 822.8 121C800 121 777 121 754.2 121C731.3 121 708.7 121 685.8 121C663 121 640 121 617.2 121C594.3 121 571.7 121 548.8 121C526 121 503 121 480 121C457 121 434 121 411.2 121C388.3 121 365.7 121 342.8 121C320 121 297 121 274.2 121C251.3 121 228.7 121 205.8 121C183 121 160 121 137.2 121C114.3 121 91.7 121 68.8 121C46 121 23 121 11.5 121L0 121Z" fill="#00b38b"></path></svg>