<svg id="visual" viewBox="0 0 960 120" width="960" height="120" xmlns="http://www.w3.org/2000/svg" xmlns:xlink="http://www.w3.org/1999/xlink" version="1.1"><rect x="0" y="0" width="960" height="120" fill="#D2D6E2"></rect><path d="M0 64L13.3 67C26.7 70 53.3 76 80 79.5C106.7 83 133.3 84 160 81.7C186.7 79.3 213.3 73.7 240 70.5C266.7 67.3 293.3 66.7 320 68C346.7 69.3 373.3 72.7 400 78.7C426.7 84.7 453.3 93.3 480 96.5C506.7 99.7 533.3 97.3 560 90.7C586.7 84 613.3 73 640 72.8C666.7 72.7 693.3 83.3 720 83.2C746.7 83 773.3 72 800 72.5C826.7 73 853.3 85 880 90.7C906.7 96.3 933.3 95.7 946.7 95.3L960 95L960 0L946.7 0C933.3 0 906.7 0 880 0C853.3 0 826.7 0 800 0C773.3 0 746.7 0 720 0C693.3 0 666.7 0 640 0C613.3 0 586.7 0 560 0C533.3 0 506.7 0 480 0C453.3 0 426.7 0 400 0C373.3 0 346.7 0 320 0C293.3 0 266.7 0 240 0C213.3 0 186.7 0 160 0C133.3 0 106.7 0 80 0C53.3 0 26.7 0 13.3 0L0 0Z" fill="#9cbdd7"></path><path d="M0 65L13.3 64.8C26.7 64.7 53.3 64.3 80 68.2C106.7 72 133.3 80 160 79.8C186.7 79.7 213.3 71.3 240 71C266.7 70.7 293.3 78.3 320 82.3C346.7 86.3 373.3 86.7 400 85.8C426.7 85 453.3 83 480 78C506.7 73 533.3 65 560 65C586.7 65 613.3 73 640 73.5C666.7 74 693.3 67 720 67.2C746.7 67.3 773.3 74.7 800 78.3C826.7 82 853.3 82 880 77.3C906.7 72.7 933.3 63.3 946.7 58.7L960 54L960 0L946.7 0C933.3 0 906.7 0 880 0C853.3 0 826.7 0 800 0C773.3 0 746.7 0 720 0C693.3 0 666.7 0 640 0C613.3 0 586.7 0 560 0C533.3 0 506.7 0 480 0C453.3 0 426.7 0 400 0C373.3 0 346.7 0 320 0C293.3 0 266.7 0 240 0C213.3 0 186.7 0 160 0C133.3 0 106.7 0 80 0C53.3 0 26.7 0 13.3 0L0 0Z" fill="#8db3d1"></path><path d="M0 65L13.3 62C26.7 59 53.3 53 80 52.2C106.7 51.3 133.3 55.7 160 55.2C186.7 54.7 213.3 49.3 240 52C266.7 54.7 293.3 65.3 320 68.7C346.7 72 373.3 68 400 63.5C426.7 59 453.3 54 480 51C506.7 48 533.3 47 560 48.3C586.7 49.7 613.3 53.3 640 58.2C666.7 63 693.3 69 720 70.5C746.7 72 773.3 69 800 69.2C826.7 69.3 853.3 72.7 880 71.5C906.7 70.3 933.3 64.7 946.7 61.8L960 59L960 0L946.7 0C933.3 0 906.7 0 880 0C853.3 0 826.7 0 800 0C773.3 0 746.7 0 720 0C693.3 0 666.7 0 640 0C613.3 0 586.7 0 560 0C533.3 0 506.7 0 480 0C453.3 0 426.7 0 400 0C373.3 0 346.7 0 320 0C293.3 0 266.7 0 240 0C213.3 0 186.7 0 160 0C133.3 0 106.7 0 80 0C53.3 0 26.7 0 13.3 0L0 0Z" fill="#7fa9cb"></path><path d="M0 53L13.3 54.5C26.7 56 53.3 59 80 59.3C106.7 59.7 133.3 57.3 160 55.5C186.7 53.7 213.3 52.3 240 52.8C266.7 53.3 293.3 55.7 320 53.3C346.7 51 373.3 44 400 43C426.7 42 453.3 47 480 51C506.7 55 533.3 58 560 55.8C586.7 53.7 613.3 46.3 640 43.7C666.7 41 693.3 43 720 46.8C746.7 50.7 773.3 56.3 800 59.3C826.7 62.3 853.3 62.7 880 61.7C906.7 60.7 933.3 58.3 946.7 57.2L960 56L960 0L946.7 0C933.3 0 906.7 0 880 0C853.3 0 826.7 0 800 0C773.3 0 746.7 0 720 0C693.3 0 666.7 0 640 0C613.3 0 586.7 0 560 0C533.3 0 506.7 0 480 0C453.3 0 426.7 0 400 0C373.3 0 346.7 0 320 0C293.3 0 266.7 0 240 0C213.3 0 186.7 0 160 0C133.3 0 106.7 0 80 0C53.3 0 26.7 0 13.3 0L0 0Z" fill="#709fc5"></path><path d="M0 48L13.3 45.3C26.7 42.7 53.3 37.3 80 36.2C106.7 35 133.3 38 160 40.2C186.7 42.3 213.3 43.7 240 43.7C266.7 43.7 293.3 42.3 320 41.3C346.7 40.3 373.3 39.7 400 37.3C426.7 35 453.3 31 480 28.8C506.7 26.7 533.3 26.3 560 26.2C586.7 26 613.3 26 640 28.8C666.7 31.7 693.3 37.3 720 37C746.7 36.7 773.3 30.3 800 30.2C826.7 30 853.3 36 880 37.2C906.7 38.3 933.3 34.7 946.7 32.8L960 31L960 0L946.7 0C933.3 0 906.7 0 880 0C853.3 0 826.7 0 800 0C773.3 0 746.7 0 720 0C693.3 0 666.7 0 640 0C613.3 0 586.7 0 560 0C533.3 0 506.7 0 480 0C453.3 0 426.7 0 400 0C373.3 0 346.7 0 320 0C293.3 0 266.7 0 240 0C213.3 0 186.7 0 160 0C133.3 0 106.7 0 80 0C53.3 0 26.7 0 13.3 0L0 0Z" fill="#6195bf"></path><path d="M0 31L13.3 28.7C26.7 26.3 53.3 21.7 80 18.8C106.7 16 133.3 15 160 17.5C186.7 20 213.3 26 240 27.7C266.7 29.3 293.3 26.7 320 27.2C346.7 27.7 373.3 31.3 400 32C426.7 32.7 453.3 30.3 480 28.7C506.7 27 533.3 26 560 26.2C586.7 26.3 613.3 27.7 640 28.8C666.7 30 693.3 31 720 31.2C746.7 31.3 773.3 30.7 800 30.8C826.7 31 853.3 32 880 30.2C906.7 28.3 933.3 23.7 946.7 21.3L960 19L960 0L946.7 0C933.3 0 906.7 0 880 0C853.3 0 826.7 0 800 0C773.3 0 746.7 0 720 0C693.3 0 666.7 0 640 0C613.3 0 586.7 0 560 0C533.3 0 506.7 0 480 0C453.3 0 426.7 0 400 0C373.3 0 346.7 0 320 0C293.3 0 266.7 0 240 0C213.3 0 186.7 0 160 0C133.3 0 106.7 0 80 0C53.3 0 26.7 0 13.3 0L0 0Z" fill="#518bba"></path><path d="M0 17L13.3 17.7C26.7 18.3 53.3 19.7 80 18.7C106.7 17.7 133.3 14.3 160 13.8C186.7 13.3 213.3 15.7 240 15.3C266.7 15 293.3 12 320 10.7C346.7 9.3 373.3 9.7 400 9.7C426.7 9.7 453.3 9.3 480 10.8C506.7 12.3 533.3 15.7 560 16.5C586.7 17.3 613.3 15.7 640 15.7C666.7 15.7 693.3 17.3 720 16.3C746.7 15.3 773.3 11.7 800 11.8C826.7 12 853.3 16 880 17.8C906.7 19.7 933.3 19.3 946.7 19.2L960 19L960 0L946.7 0C933.3 0 906.7 0 880 0C853.3 0 826.7 0 800 0C773.3 0 746.7 0 720 0C693.3 0 666.7 0 640 0C613.3 0 586.7 0 560 0C533.3 0 506.7 0 480 0C453.3 0 426.7 0 400 0C373.3 0 346.7 0 320 0C293.3 0 266.7 0 240 0C213.3 0 186.7 0 160 0C133.3 0 106.7 0 80 0C53.3 0 26.7 0 13.3 0L0 0Z" fill="#4081b4"></path></svg>