<svg id="visual" viewBox="0 0 960 120" width="960" height="120" xmlns="http://www.w3.org/2000/svg" xmlns:xlink="http://www.w3.org/1999/xlink" version="1.1"><rect x="0" y="0" width="960" height="120" fill="#d2d6e2"></rect><path d="M0 96L11.5 93.8C23 91.7 46 87.3 68.8 83C91.7 78.7 114.3 74.3 137.2 72.2C160 70 183 70 205.8 69.7C228.7 69.3 251.3 68.7 274.2 70.7C297 72.7 320 77.3 342.8 81.3C365.7 85.3 388.3 88.7 411.2 86C434 83.3 457 74.7 480 77C503 79.3 526 92.7 548.8 95.3C571.7 98 594.3 90 617.2 83C640 76 663 70 685.8 67C708.7 64 731.3 64 754.2 64.7C777 65.3 800 66.7 822.8 68C845.7 69.3 868.3 70.7 891.2 71C914 71.3 937 70.7 948.5 70.3L960 70L960 0L948.5 0C937 0 914 0 891.2 0C868.3 0 845.7 0 822.8 0C800 0 777 0 754.2 0C731.3 0 708.7 0 685.8 0C663 0 640 0 617.2 0C594.3 0 571.7 0 548.8 0C526 0 503 0 480 0C457 0 434 0 411.2 0C388.3 0 365.7 0 342.8 0C320 0 297 0 274.2 0C251.3 0 228.7 0 205.8 0C183 0 160 0 137.2 0C114.3 0 91.7 0 68.8 0C46 0 23 0 11.5 0L0 0Z" fill="#c84cd9"></path><path d="M0 90L11.5 84.8C23 79.7 46 69.3 68.8 68.2C91.7 67 114.3 75 137.2 77.7C160 80.3 183 77.7 205.8 76.2C228.7 74.7 251.3 74.3 274.2 73.8C297 73.3 320 72.7 342.8 76C365.7 79.3 388.3 86.7 411.2 88.8C434 91 457 88 480 82.3C503 76.7 526 68.3 548.8 63.7C571.7 59 594.3 58 617.2 57.8C640 57.7 663 58.3 685.8 60.8C708.7 63.3 731.3 67.7 754.2 69.8C777 72 800 72 822.8 69.7C845.7 67.3 868.3 62.7 891.2 59.7C914 56.7 937 55.3 948.5 54.7L960 54L960 0L948.5 0C937 0 914 0 891.2 0C868.3 0 845.7 0 822.8 0C800 0 777 0 754.2 0C731.3 0 708.7 0 685.8 0C663 0 640 0 617.2 0C594.3 0 571.7 0 548.8 0C526 0 503 0 480 0C457 0 434 0 411.2 0C388.3 0 365.7 0 342.8 0C320 0 297 0 274.2 0C251.3 0 228.7 0 205.8 0C183 0 160 0 137.2 0C114.3 0 91.7 0 68.8 0C46 0 23 0 11.5 0L0 0Z" fill="#ba45ca"></path><path d="M0 76L11.5 72.5C23 69 46 62 68.8 59.8C91.7 57.7 114.3 60.3 137.2 61.8C160 63.3 183 63.7 205.8 63.2C228.7 62.7 251.3 61.3 274.2 58.3C297 55.3 320 50.7 342.8 52.7C365.7 54.7 388.3 63.3 411.2 64.5C434 65.7 457 59.3 480 58.7C503 58 526 63 548.8 64.5C571.7 66 594.3 64 617.2 64.3C640 64.7 663 67.3 685.8 66.2C708.7 65 731.3 60 754.2 56C777 52 800 49 822.8 52.5C845.7 56 868.3 66 891.2 67.5C914 69 937 62 948.5 58.5L960 55L960 0L948.5 0C937 0 914 0 891.2 0C868.3 0 845.7 0 822.8 0C800 0 777 0 754.2 0C731.3 0 708.7 0 685.8 0C663 0 640 0 617.2 0C594.3 0 571.7 0 548.8 0C526 0 503 0 480 0C457 0 434 0 411.2 0C388.3 0 365.7 0 342.8 0C320 0 297 0 274.2 0C251.3 0 228.7 0 205.8 0C183 0 160 0 137.2 0C114.3 0 91.7 0 68.8 0C46 0 23 0 11.5 0L0 0Z" fill="#ac3dbb"></path><path d="M0 51L11.5 53.2C23 55.3 46 59.7 68.8 57C91.7 54.3 114.3 44.7 137.2 43.5C160 42.3 183 49.7 205.8 54.7C228.7 59.7 251.3 62.3 274.2 60C297 57.7 320 50.3 342.8 46.5C365.7 42.7 388.3 42.3 411.2 46.2C434 50 457 58 480 59.7C503 61.3 526 56.7 548.8 55.7C571.7 54.7 594.3 57.3 617.2 57.7C640 58 663 56 685.8 56.3C708.7 56.7 731.3 59.3 754.2 59.2C777 59 800 56 822.8 52.5C845.7 49 868.3 45 891.2 43.8C914 42.7 937 44.3 948.5 45.2L960 46L960 0L948.5 0C937 0 914 0 891.2 0C868.3 0 845.7 0 822.8 0C800 0 777 0 754.2 0C731.3 0 708.7 0 685.8 0C663 0 640 0 617.2 0C594.3 0 571.7 0 548.8 0C526 0 503 0 480 0C457 0 434 0 411.2 0C388.3 0 365.7 0 342.8 0C320 0 297 0 274.2 0C251.3 0 228.7 0 205.8 0C183 0 160 0 137.2 0C114.3 0 91.7 0 68.8 0C46 0 23 0 11.5 0L0 0Z" fill="#9e36ac"></path><path d="M0 42L11.5 42C23 42 46 42 68.8 43.7C91.7 45.3 114.3 48.7 137.2 50C160 51.3 183 50.7 205.8 49.5C228.7 48.3 251.3 46.7 274.2 45.5C297 44.3 320 43.7 342.8 44.7C365.7 45.7 388.3 48.3 411.2 46.8C434 45.3 457 39.7 480 37.5C503 35.3 526 36.7 548.8 37C571.7 37.3 594.3 36.7 617.2 36.7C640 36.7 663 37.3 685.8 36C708.7 34.7 731.3 31.3 754.2 30.3C777 29.3 800 30.7 822.8 33.5C845.7 36.3 868.3 40.7 891.2 41.5C914 42.3 937 39.7 948.5 38.3L960 37L960 0L948.5 0C937 0 914 0 891.2 0C868.3 0 845.7 0 822.8 0C800 0 777 0 754.2 0C731.3 0 708.7 0 685.8 0C663 0 640 0 617.2 0C594.3 0 571.7 0 548.8 0C526 0 503 0 480 0C457 0 434 0 411.2 0C388.3 0 365.7 0 342.8 0C320 0 297 0 274.2 0C251.3 0 228.7 0 205.8 0C183 0 160 0 137.2 0C114.3 0 91.7 0 68.8 0C46 0 23 0 11.5 0L0 0Z" fill="#902f9d"></path><path d="M0 37L11.5 33.2C23 29.3 46 21.7 68.8 21C91.7 20.3 114.3 26.7 137.2 28.7C160 30.7 183 28.3 205.8 26.2C228.7 24 251.3 22 274.2 22.3C297 22.7 320 25.3 342.8 28.3C365.7 31.3 388.3 34.7 411.2 34C434 33.3 457 28.7 480 26.2C503 23.7 526 23.3 548.8 21.8C571.7 20.3 594.3 17.7 617.2 16.3C640 15 663 15 685.8 18.8C708.7 22.7 731.3 30.3 754.2 30.3C777 30.3 800 22.7 822.8 21.3C845.7 20 868.3 25 891.2 27C914 29 937 28 948.5 27.5L960 27L960 0L948.5 0C937 0 914 0 891.2 0C868.3 0 845.7 0 822.8 0C800 0 777 0 754.2 0C731.3 0 708.7 0 685.8 0C663 0 640 0 617.2 0C594.3 0 571.7 0 548.8 0C526 0 503 0 480 0C457 0 434 0 411.2 0C388.3 0 365.7 0 342.8 0C320 0 297 0 274.2 0C251.3 0 228.7 0 205.8 0C183 0 160 0 137.2 0C114.3 0 91.7 0 68.8 0C46 0 23 0 11.5 0L0 0Z" fill="#83278f"></path><path d="M0 20L11.5 19.7C23 19.3 46 18.7 68.8 17.8C91.7 17 114.3 16 137.2 14C160 12 183 9 205.8 7.7C228.7 6.3 251.3 6.7 274.2 7.5C297 8.3 320 9.7 342.8 10C365.7 10.3 388.3 9.7 411.2 8.7C434 7.7 457 6.3 480 8.2C503 10 526 15 548.8 15.5C571.7 16 594.3 12 617.2 10.5C640 9 663 10 685.8 12.2C708.7 14.3 731.3 17.7 754.2 16.5C777 15.3 800 9.7 822.8 9.2C845.7 8.7 868.3 13.3 891.2 15.3C914 17.3 937 16.7 948.5 16.3L960 16L960 0L948.5 0C937 0 914 0 891.2 0C868.3 0 845.7 0 822.8 0C800 0 777 0 754.2 0C731.3 0 708.7 0 685.8 0C663 0 640 0 617.2 0C594.3 0 571.7 0 548.8 0C526 0 503 0 480 0C457 0 434 0 411.2 0C388.3 0 365.7 0 342.8 0C320 0 297 0 274.2 0C251.3 0 228.7 0 205.8 0C183 0 160 0 137.2 0C114.3 0 91.7 0 68.8 0C46 0 23 0 11.5 0L0 0Z" fill="#762081"></path></svg>