<svg id="visual" viewBox="0 0 960 120" width="960" height="120" xmlns="http://www.w3.org/2000/svg" xmlns:xlink="http://www.w3.org/1999/xlink" version="1.1"><rect x="0" y="0" width="960" height="120" fill="#D2D6E2"></rect><path d="M0 44L13.3 46.5C26.7 49 53.3 54 80 51.7C106.7 49.3 133.3 39.7 160 32.3C186.7 25 213.3 20 240 20.5C266.7 21 293.3 27 320 30.5C346.7 34 373.3 35 400 32C426.7 29 453.3 22 480 18.8C506.7 15.7 533.3 16.3 560 22.5C586.7 28.7 613.3 40.3 640 41.2C666.7 42 693.3 32 720 29.7C746.7 27.3 773.3 32.7 800 31.5C826.7 30.3 853.3 22.7 880 23C906.7 23.3 933.3 31.7 946.7 35.8L960 40L960 121L946.7 121C933.3 121 906.7 121 880 121C853.3 121 826.7 121 800 121C773.3 121 746.7 121 720 121C693.3 121 666.7 121 640 121C613.3 121 586.7 121 560 121C533.3 121 506.7 121 480 121C453.3 121 426.7 121 400 121C373.3 121 346.7 121 320 121C293.3 121 266.7 121 240 121C213.3 121 186.7 121 160 121C133.3 121 106.7 121 80 121C53.3 121 26.7 121 13.3 121L0 121Z" fill="#d77f7f"></path><path d="M0 45L13.3 42.7C26.7 40.3 53.3 35.7 80 38.3C106.7 41 133.3 51 160 54.3C186.7 57.7 213.3 54.3 240 53.5C266.7 52.7 293.3 54.3 320 52C346.7 49.7 373.3 43.3 400 43.3C426.7 43.3 453.3 49.7 480 52.3C506.7 55 533.3 54 560 55.8C586.7 57.7 613.3 62.3 640 59.3C666.7 56.3 693.3 45.7 720 43.3C746.7 41 773.3 47 800 49.3C826.7 51.7 853.3 50.3 880 49.3C906.7 48.3 933.3 47.7 946.7 47.3L960 47L960 121L946.7 121C933.3 121 906.7 121 880 121C853.3 121 826.7 121 800 121C773.3 121 746.7 121 720 121C693.3 121 666.7 121 640 121C613.3 121 586.7 121 560 121C533.3 121 506.7 121 480 121C453.3 121 426.7 121 400 121C373.3 121 346.7 121 320 121C293.3 121 266.7 121 240 121C213.3 121 186.7 121 160 121C133.3 121 106.7 121 80 121C53.3 121 26.7 121 13.3 121L0 121Z" fill="#d77776"></path><path d="M0 53L13.3 54.3C26.7 55.7 53.3 58.3 80 57.5C106.7 56.7 133.3 52.3 160 54.7C186.7 57 213.3 66 240 66.2C266.7 66.3 293.3 57.7 320 53.2C346.7 48.7 373.3 48.3 400 48.8C426.7 49.3 453.3 50.7 480 50.5C506.7 50.3 533.3 48.7 560 49.5C586.7 50.3 613.3 53.7 640 53.5C666.7 53.3 693.3 49.7 720 52.8C746.7 56 773.3 66 800 65.3C826.7 64.7 853.3 53.3 880 47.8C906.7 42.3 933.3 42.7 946.7 42.8L960 43L960 121L946.7 121C933.3 121 906.7 121 880 121C853.3 121 826.7 121 800 121C773.3 121 746.7 121 720 121C693.3 121 666.7 121 640 121C613.3 121 586.7 121 560 121C533.3 121 506.7 121 480 121C453.3 121 426.7 121 400 121C373.3 121 346.7 121 320 121C293.3 121 266.7 121 240 121C213.3 121 186.7 121 160 121C133.3 121 106.7 121 80 121C53.3 121 26.7 121 13.3 121L0 121Z" fill="#d76e6e"></path><path d="M0 84L13.3 80.8C26.7 77.7 53.3 71.3 80 69.7C106.7 68 133.3 71 160 71.7C186.7 72.3 213.3 70.7 240 70.3C266.7 70 293.3 71 320 71.3C346.7 71.7 373.3 71.3 400 70C426.7 68.7 453.3 66.3 480 66C506.7 65.7 533.3 67.3 560 68C586.7 68.7 613.3 68.3 640 67.8C666.7 67.3 693.3 66.7 720 68.3C746.7 70 773.3 74 800 77.2C826.7 80.3 853.3 82.7 880 80C906.7 77.3 933.3 69.7 946.7 65.8L960 62L960 121L946.7 121C933.3 121 906.7 121 880 121C853.3 121 826.7 121 800 121C773.3 121 746.7 121 720 121C693.3 121 666.7 121 640 121C613.3 121 586.7 121 560 121C533.3 121 506.7 121 480 121C453.3 121 426.7 121 400 121C373.3 121 346.7 121 320 121C293.3 121 266.7 121 240 121C213.3 121 186.7 121 160 121C133.3 121 106.7 121 80 121C53.3 121 26.7 121 13.3 121L0 121Z" fill="#d76665"></path><path d="M0 75L13.3 77C26.7 79 53.3 83 80 83.3C106.7 83.7 133.3 80.3 160 81.3C186.7 82.3 213.3 87.7 240 86.2C266.7 84.7 293.3 76.3 320 75.8C346.7 75.3 373.3 82.7 400 85.2C426.7 87.7 453.3 85.3 480 85.5C506.7 85.7 533.3 88.3 560 86.8C586.7 85.3 613.3 79.7 640 80C666.7 80.3 693.3 86.7 720 85.8C746.7 85 773.3 77 800 74C826.7 71 853.3 73 880 74C906.7 75 933.3 75 946.7 75L960 75L960 121L946.7 121C933.3 121 906.7 121 880 121C853.3 121 826.7 121 800 121C773.3 121 746.7 121 720 121C693.3 121 666.7 121 640 121C613.3 121 586.7 121 560 121C533.3 121 506.7 121 480 121C453.3 121 426.7 121 400 121C373.3 121 346.7 121 320 121C293.3 121 266.7 121 240 121C213.3 121 186.7 121 160 121C133.3 121 106.7 121 80 121C53.3 121 26.7 121 13.3 121L0 121Z" fill="#d65d5c"></path><path d="M0 94L13.3 94.2C26.7 94.3 53.3 94.7 80 93.5C106.7 92.3 133.3 89.7 160 90.8C186.7 92 213.3 97 240 99.8C266.7 102.7 293.3 103.3 320 102.3C346.7 101.3 373.3 98.7 400 97.5C426.7 96.3 453.3 96.7 480 96.8C506.7 97 533.3 97 560 96.7C586.7 96.3 613.3 95.7 640 94C666.7 92.3 693.3 89.7 720 90.8C746.7 92 773.3 97 800 97.3C826.7 97.7 853.3 93.3 880 90C906.7 86.7 933.3 84.3 946.7 83.2L960 82L960 121L946.7 121C933.3 121 906.7 121 880 121C853.3 121 826.7 121 800 121C773.3 121 746.7 121 720 121C693.3 121 666.7 121 640 121C613.3 121 586.7 121 560 121C533.3 121 506.7 121 480 121C453.3 121 426.7 121 400 121C373.3 121 346.7 121 320 121C293.3 121 266.7 121 240 121C213.3 121 186.7 121 160 121C133.3 121 106.7 121 80 121C53.3 121 26.7 121 13.3 121L0 121Z" fill="#d55453"></path><path d="M0 111L13.3 108.5C26.7 106 53.3 101 80 99.2C106.7 97.3 133.3 98.7 160 100.5C186.7 102.3 213.3 104.7 240 105C266.7 105.3 293.3 103.7 320 103C346.7 102.3 373.3 102.7 400 103.8C426.7 105 453.3 107 480 107.3C506.7 107.7 533.3 106.3 560 104.7C586.7 103 613.3 101 640 101.5C666.7 102 693.3 105 720 106.8C746.7 108.7 773.3 109.3 800 109.7C826.7 110 853.3 110 880 107.8C906.7 105.7 933.3 101.3 946.7 99.2L960 97L960 121L946.7 121C933.3 121 906.7 121 880 121C853.3 121 826.7 121 800 121C773.3 121 746.7 121 720 121C693.3 121 666.7 121 640 121C613.3 121 586.7 121 560 121C533.3 121 506.7 121 480 121C453.3 121 426.7 121 400 121C373.3 121 346.7 121 320 121C293.3 121 266.7 121 240 121C213.3 121 186.7 121 160 121C133.3 121 106.7 121 80 121C53.3 121 26.7 121 13.3 121L0 121Z" fill="#d44a4a"></path></svg>