<svg id="visual" viewBox="0 0 960 120" width="960" height="120" xmlns="http://www.w3.org/2000/svg" xmlns:xlink="http://www.w3.org/1999/xlink" version="1.1"><rect x="0" y="0" width="960" height="120" fill="#D2D6E2"></rect><path d="M0 14L13.3 20.7C26.7 27.3 53.3 40.7 80 41.7C106.7 42.7 133.3 31.3 160 30.8C186.7 30.3 213.3 40.7 240 46.7C266.7 52.7 293.3 54.3 320 48.7C346.7 43 373.3 30 400 30C426.7 30 453.3 43 480 45.7C506.7 48.3 533.3 40.7 560 36.5C586.7 32.3 613.3 31.7 640 34.5C666.7 37.3 693.3 43.7 720 45.2C746.7 46.7 773.3 43.3 800 37.7C826.7 32 853.3 24 880 21.7C906.7 19.3 933.3 22.7 946.7 24.3L960 26L960 121L946.7 121C933.3 121 906.7 121 880 121C853.3 121 826.7 121 800 121C773.3 121 746.7 121 720 121C693.3 121 666.7 121 640 121C613.3 121 586.7 121 560 121C533.3 121 506.7 121 480 121C453.3 121 426.7 121 400 121C373.3 121 346.7 121 320 121C293.3 121 266.7 121 240 121C213.3 121 186.7 121 160 121C133.3 121 106.7 121 80 121C53.3 121 26.7 121 13.3 121L0 121Z" fill="#ffdc9a"></path><path d="M0 38L13.3 41.7C26.7 45.3 53.3 52.7 80 57.3C106.7 62 133.3 64 160 64.3C186.7 64.7 213.3 63.3 240 62.5C266.7 61.7 293.3 61.3 320 55.7C346.7 50 373.3 39 400 38.7C426.7 38.3 453.3 48.7 480 53.3C506.7 58 533.3 57 560 56.8C586.7 56.7 613.3 57.3 640 58C666.7 58.7 693.3 59.3 720 57.2C746.7 55 773.3 50 800 50C826.7 50 853.3 55 880 53.5C906.7 52 933.3 44 946.7 40L960 36L960 121L946.7 121C933.3 121 906.7 121 880 121C853.3 121 826.7 121 800 121C773.3 121 746.7 121 720 121C693.3 121 666.7 121 640 121C613.3 121 586.7 121 560 121C533.3 121 506.7 121 480 121C453.3 121 426.7 121 400 121C373.3 121 346.7 121 320 121C293.3 121 266.7 121 240 121C213.3 121 186.7 121 160 121C133.3 121 106.7 121 80 121C53.3 121 26.7 121 13.3 121L0 121Z" fill="#facf84"></path><path d="M0 48L13.3 50.3C26.7 52.7 53.3 57.3 80 57.2C106.7 57 133.3 52 160 52C186.7 52 213.3 57 240 56.8C266.7 56.7 293.3 51.3 320 53C346.7 54.7 373.3 63.3 400 68.3C426.7 73.3 453.3 74.7 480 70.5C506.7 66.3 533.3 56.7 560 52.8C586.7 49 613.3 51 640 53.2C666.7 55.3 693.3 57.7 720 61.2C746.7 64.7 773.3 69.3 800 68.7C826.7 68 853.3 62 880 58.2C906.7 54.3 933.3 52.7 946.7 51.8L960 51L960 121L946.7 121C933.3 121 906.7 121 880 121C853.3 121 826.7 121 800 121C773.3 121 746.7 121 720 121C693.3 121 666.7 121 640 121C613.3 121 586.7 121 560 121C533.3 121 506.7 121 480 121C453.3 121 426.7 121 400 121C373.3 121 346.7 121 320 121C293.3 121 266.7 121 240 121C213.3 121 186.7 121 160 121C133.3 121 106.7 121 80 121C53.3 121 26.7 121 13.3 121L0 121Z" fill="#f6c26e"></path><path d="M0 71L13.3 69C26.7 67 53.3 63 80 60.8C106.7 58.7 133.3 58.3 160 61.2C186.7 64 213.3 70 240 73C266.7 76 293.3 76 320 75.2C346.7 74.3 373.3 72.7 400 71C426.7 69.3 453.3 67.7 480 69.2C506.7 70.7 533.3 75.3 560 76.8C586.7 78.3 613.3 76.7 640 75.7C666.7 74.7 693.3 74.3 720 74.8C746.7 75.3 773.3 76.7 800 77.7C826.7 78.7 853.3 79.3 880 79C906.7 78.7 933.3 77.3 946.7 76.7L960 76L960 121L946.7 121C933.3 121 906.7 121 880 121C853.3 121 826.7 121 800 121C773.3 121 746.7 121 720 121C693.3 121 666.7 121 640 121C613.3 121 586.7 121 560 121C533.3 121 506.7 121 480 121C453.3 121 426.7 121 400 121C373.3 121 346.7 121 320 121C293.3 121 266.7 121 240 121C213.3 121 186.7 121 160 121C133.3 121 106.7 121 80 121C53.3 121 26.7 121 13.3 121L0 121Z" fill="#f2b459"></path><path d="M0 74L13.3 73.7C26.7 73.3 53.3 72.7 80 75.2C106.7 77.7 133.3 83.3 160 85.8C186.7 88.3 213.3 87.7 240 85.2C266.7 82.7 293.3 78.3 320 77.2C346.7 76 373.3 78 400 80.7C426.7 83.3 453.3 86.7 480 87.8C506.7 89 533.3 88 560 85.2C586.7 82.3 613.3 77.7 640 76.5C666.7 75.3 693.3 77.7 720 80.3C746.7 83 773.3 86 800 86.2C826.7 86.3 853.3 83.7 880 81.3C906.7 79 933.3 77 946.7 76L960 75L960 121L946.7 121C933.3 121 906.7 121 880 121C853.3 121 826.7 121 800 121C773.3 121 746.7 121 720 121C693.3 121 666.7 121 640 121C613.3 121 586.7 121 560 121C533.3 121 506.7 121 480 121C453.3 121 426.7 121 400 121C373.3 121 346.7 121 320 121C293.3 121 266.7 121 240 121C213.3 121 186.7 121 160 121C133.3 121 106.7 121 80 121C53.3 121 26.7 121 13.3 121L0 121Z" fill="#eea643"></path><path d="M0 83L13.3 85C26.7 87 53.3 91 80 94C106.7 97 133.3 99 160 98.2C186.7 97.3 213.3 93.7 240 93.3C266.7 93 293.3 96 320 95.7C346.7 95.3 373.3 91.7 400 88.8C426.7 86 453.3 84 480 83.2C506.7 82.3 533.3 82.7 560 84.3C586.7 86 613.3 89 640 91C666.7 93 693.3 94 720 93.7C746.7 93.3 773.3 91.7 800 89.8C826.7 88 853.3 86 880 86.7C906.7 87.3 933.3 90.7 946.7 92.3L960 94L960 121L946.7 121C933.3 121 906.7 121 880 121C853.3 121 826.7 121 800 121C773.3 121 746.7 121 720 121C693.3 121 666.7 121 640 121C613.3 121 586.7 121 560 121C533.3 121 506.7 121 480 121C453.3 121 426.7 121 400 121C373.3 121 346.7 121 320 121C293.3 121 266.7 121 240 121C213.3 121 186.7 121 160 121C133.3 121 106.7 121 80 121C53.3 121 26.7 121 13.3 121L0 121Z" fill="#ea982d"></path><path d="M0 98L13.3 99.5C26.7 101 53.3 104 80 103.8C106.7 103.7 133.3 100.3 160 98.7C186.7 97 213.3 97 240 98.2C266.7 99.3 293.3 101.7 320 102.7C346.7 103.7 373.3 103.3 400 104.3C426.7 105.3 453.3 107.7 480 109.3C506.7 111 533.3 112 560 110C586.7 108 613.3 103 640 102C666.7 101 693.3 104 720 103.8C746.7 103.7 773.3 100.3 800 99.5C826.7 98.7 853.3 100.3 880 101.2C906.7 102 933.3 102 946.7 102L960 102L960 121L946.7 121C933.3 121 906.7 121 880 121C853.3 121 826.7 121 800 121C773.3 121 746.7 121 720 121C693.3 121 666.7 121 640 121C613.3 121 586.7 121 560 121C533.3 121 506.7 121 480 121C453.3 121 426.7 121 400 121C373.3 121 346.7 121 320 121C293.3 121 266.7 121 240 121C213.3 121 186.7 121 160 121C133.3 121 106.7 121 80 121C53.3 121 26.7 121 13.3 121L0 121Z" fill="#e68910"></path></svg>