<svg id="visual" viewBox="0 0 960 120" width="960" height="120" xmlns="http://www.w3.org/2000/svg" xmlns:xlink="http://www.w3.org/1999/xlink" version="1.1"><rect x="0" y="0" width="960" height="120" fill="#D2D6E2"></rect><path d="M0 95L13.3 91.2C26.7 87.3 53.3 79.7 80 77.8C106.7 76 133.3 80 160 81.2C186.7 82.3 213.3 80.7 240 77.5C266.7 74.3 293.3 69.7 320 73.3C346.7 77 373.3 89 400 95.2C426.7 101.3 453.3 101.7 480 95C506.7 88.3 533.3 74.7 560 74.2C586.7 73.7 613.3 86.3 640 93.5C666.7 100.7 693.3 102.3 720 102.7C746.7 103 773.3 102 800 98.8C826.7 95.7 853.3 90.3 880 84.7C906.7 79 933.3 73 946.7 70L960 67L960 0L946.7 0C933.3 0 906.7 0 880 0C853.3 0 826.7 0 800 0C773.3 0 746.7 0 720 0C693.3 0 666.7 0 640 0C613.3 0 586.7 0 560 0C533.3 0 506.7 0 480 0C453.3 0 426.7 0 400 0C373.3 0 346.7 0 320 0C293.3 0 266.7 0 240 0C213.3 0 186.7 0 160 0C133.3 0 106.7 0 80 0C53.3 0 26.7 0 13.3 0L0 0Z" fill="#d77f7f"></path><path d="M0 60L13.3 58.5C26.7 57 53.3 54 80 57.5C106.7 61 133.3 71 160 76.7C186.7 82.3 213.3 83.7 240 82.2C266.7 80.7 293.3 76.3 320 72.3C346.7 68.3 373.3 64.7 400 61.7C426.7 58.7 453.3 56.3 480 55.8C506.7 55.3 533.3 56.7 560 57.5C586.7 58.3 613.3 58.7 640 57.7C666.7 56.7 693.3 54.3 720 57.5C746.7 60.7 773.3 69.3 800 69.5C826.7 69.7 853.3 61.3 880 58.5C906.7 55.7 933.3 58.3 946.7 59.7L960 61L960 0L946.7 0C933.3 0 906.7 0 880 0C853.3 0 826.7 0 800 0C773.3 0 746.7 0 720 0C693.3 0 666.7 0 640 0C613.3 0 586.7 0 560 0C533.3 0 506.7 0 480 0C453.3 0 426.7 0 400 0C373.3 0 346.7 0 320 0C293.3 0 266.7 0 240 0C213.3 0 186.7 0 160 0C133.3 0 106.7 0 80 0C53.3 0 26.7 0 13.3 0L0 0Z" fill="#d77776"></path><path d="M0 44L13.3 46.2C26.7 48.3 53.3 52.7 80 54.8C106.7 57 133.3 57 160 59.2C186.7 61.3 213.3 65.7 240 68.5C266.7 71.3 293.3 72.7 320 70.7C346.7 68.7 373.3 63.3 400 62.3C426.7 61.3 453.3 64.7 480 67.2C506.7 69.7 533.3 71.3 560 72.5C586.7 73.7 613.3 74.3 640 71.2C666.7 68 693.3 61 720 59C746.7 57 773.3 60 800 59.2C826.7 58.3 853.3 53.7 880 51.7C906.7 49.7 933.3 50.3 946.7 50.7L960 51L960 0L946.7 0C933.3 0 906.7 0 880 0C853.3 0 826.7 0 800 0C773.3 0 746.7 0 720 0C693.3 0 666.7 0 640 0C613.3 0 586.7 0 560 0C533.3 0 506.7 0 480 0C453.3 0 426.7 0 400 0C373.3 0 346.7 0 320 0C293.3 0 266.7 0 240 0C213.3 0 186.7 0 160 0C133.3 0 106.7 0 80 0C53.3 0 26.7 0 13.3 0L0 0Z" fill="#d76e6e"></path><path d="M0 54L13.3 51C26.7 48 53.3 42 80 43.5C106.7 45 133.3 54 160 56.3C186.7 58.7 213.3 54.3 240 51.2C266.7 48 293.3 46 320 47C346.7 48 373.3 52 400 50.3C426.7 48.7 453.3 41.3 480 41.3C506.7 41.3 533.3 48.7 560 50.2C586.7 51.7 613.3 47.3 640 48.3C666.7 49.3 693.3 55.7 720 54.2C746.7 52.7 773.3 43.3 800 38.8C826.7 34.3 853.3 34.7 880 37.2C906.7 39.7 933.3 44.3 946.7 46.7L960 49L960 0L946.7 0C933.3 0 906.7 0 880 0C853.3 0 826.7 0 800 0C773.3 0 746.7 0 720 0C693.3 0 666.7 0 640 0C613.3 0 586.7 0 560 0C533.3 0 506.7 0 480 0C453.3 0 426.7 0 400 0C373.3 0 346.7 0 320 0C293.3 0 266.7 0 240 0C213.3 0 186.7 0 160 0C133.3 0 106.7 0 80 0C53.3 0 26.7 0 13.3 0L0 0Z" fill="#d76665"></path><path d="M0 46L13.3 43C26.7 40 53.3 34 80 32C106.7 30 133.3 32 160 33.5C186.7 35 213.3 36 240 35.7C266.7 35.3 293.3 33.7 320 33.3C346.7 33 373.3 34 400 35.3C426.7 36.7 453.3 38.3 480 37.5C506.7 36.7 533.3 33.3 560 30.7C586.7 28 613.3 26 640 27C666.7 28 693.3 32 720 32C746.7 32 773.3 28 800 26.2C826.7 24.3 853.3 24.7 880 25C906.7 25.3 933.3 25.7 946.7 25.8L960 26L960 0L946.7 0C933.3 0 906.7 0 880 0C853.3 0 826.7 0 800 0C773.3 0 746.7 0 720 0C693.3 0 666.7 0 640 0C613.3 0 586.7 0 560 0C533.3 0 506.7 0 480 0C453.3 0 426.7 0 400 0C373.3 0 346.7 0 320 0C293.3 0 266.7 0 240 0C213.3 0 186.7 0 160 0C133.3 0 106.7 0 80 0C53.3 0 26.7 0 13.3 0L0 0Z" fill="#d65d5c"></path><path d="M0 20L13.3 21.7C26.7 23.3 53.3 26.7 80 27.8C106.7 29 133.3 28 160 29C186.7 30 213.3 33 240 32.3C266.7 31.7 293.3 27.3 320 26C346.7 24.7 373.3 26.3 400 27.2C426.7 28 453.3 28 480 26C506.7 24 533.3 20 560 20.8C586.7 21.7 613.3 27.3 640 30.7C666.7 34 693.3 35 720 34C746.7 33 773.3 30 800 29.7C826.7 29.3 853.3 31.7 880 29.7C906.7 27.7 933.3 21.3 946.7 18.2L960 15L960 0L946.7 0C933.3 0 906.7 0 880 0C853.3 0 826.7 0 800 0C773.3 0 746.7 0 720 0C693.3 0 666.7 0 640 0C613.3 0 586.7 0 560 0C533.3 0 506.7 0 480 0C453.3 0 426.7 0 400 0C373.3 0 346.7 0 320 0C293.3 0 266.7 0 240 0C213.3 0 186.7 0 160 0C133.3 0 106.7 0 80 0C53.3 0 26.7 0 13.3 0L0 0Z" fill="#d55453"></path><path d="M0 20L13.3 19.8C26.7 19.7 53.3 19.3 80 18C106.7 16.7 133.3 14.3 160 13.3C186.7 12.3 213.3 12.7 240 12.8C266.7 13 293.3 13 320 12.8C346.7 12.7 373.3 12.3 400 12.3C426.7 12.3 453.3 12.7 480 12.5C506.7 12.3 533.3 11.7 560 13.2C586.7 14.7 613.3 18.3 640 18.7C666.7 19 693.3 16 720 14.5C746.7 13 773.3 13 800 14C826.7 15 853.3 17 880 16.2C906.7 15.3 933.3 11.7 946.7 9.8L960 8L960 0L946.7 0C933.3 0 906.7 0 880 0C853.3 0 826.7 0 800 0C773.3 0 746.7 0 720 0C693.3 0 666.7 0 640 0C613.3 0 586.7 0 560 0C533.3 0 506.7 0 480 0C453.3 0 426.7 0 400 0C373.3 0 346.7 0 320 0C293.3 0 266.7 0 240 0C213.3 0 186.7 0 160 0C133.3 0 106.7 0 80 0C53.3 0 26.7 0 13.3 0L0 0Z" fill="#d44a4a"></path></svg>