<svg id="visual" viewBox="0 0 960 120" width="960" height="120" xmlns="http://www.w3.org/2000/svg" xmlns:xlink="http://www.w3.org/1999/xlink" version="1.1"><rect x="0" y="0" width="960" height="120" fill="#d2d6e2"></rect><path d="M0 69L11.5 70.2C23 71.3 46 73.7 68.8 73C91.7 72.3 114.3 68.7 137.2 69.7C160 70.7 183 76.3 205.8 82.5C228.7 88.7 251.3 95.3 274.2 93C297 90.7 320 79.3 342.8 74.2C365.7 69 388.3 70 411.2 72.3C434 74.7 457 78.3 480 83.5C503 88.7 526 95.3 548.8 93.8C571.7 92.3 594.3 82.7 617.2 76.3C640 70 663 67 685.8 68C708.7 69 731.3 74 754.2 81.3C777 88.7 800 98.3 822.8 97C845.7 95.7 868.3 83.3 891.2 83.5C914 83.7 937 96.3 948.5 102.7L960 109L960 0L948.5 0C937 0 914 0 891.2 0C868.3 0 845.7 0 822.8 0C800 0 777 0 754.2 0C731.3 0 708.7 0 685.8 0C663 0 640 0 617.2 0C594.3 0 571.7 0 548.8 0C526 0 503 0 480 0C457 0 434 0 411.2 0C388.3 0 365.7 0 342.8 0C320 0 297 0 274.2 0C251.3 0 228.7 0 205.8 0C183 0 160 0 137.2 0C114.3 0 91.7 0 68.8 0C46 0 23 0 11.5 0L0 0Z" fill="#7bb6b3"></path><path d="M0 94L11.5 94C23 94 46 94 68.8 93.8C91.7 93.7 114.3 93.3 137.2 92.2C160 91 183 89 205.8 86.2C228.7 83.3 251.3 79.7 274.2 75.8C297 72 320 68 342.8 69.7C365.7 71.3 388.3 78.7 411.2 83.3C434 88 457 90 480 87C503 84 526 76 548.8 73.7C571.7 71.3 594.3 74.7 617.2 73.2C640 71.7 663 65.3 685.8 62.5C708.7 59.7 731.3 60.3 754.2 63.2C777 66 800 71 822.8 74.8C845.7 78.7 868.3 81.3 891.2 81.3C914 81.3 937 78.7 948.5 77.3L960 76L960 0L948.5 0C937 0 914 0 891.2 0C868.3 0 845.7 0 822.8 0C800 0 777 0 754.2 0C731.3 0 708.7 0 685.8 0C663 0 640 0 617.2 0C594.3 0 571.7 0 548.8 0C526 0 503 0 480 0C457 0 434 0 411.2 0C388.3 0 365.7 0 342.8 0C320 0 297 0 274.2 0C251.3 0 228.7 0 205.8 0C183 0 160 0 137.2 0C114.3 0 91.7 0 68.8 0C46 0 23 0 11.5 0L0 0Z" fill="#6daeab"></path><path d="M0 53L11.5 54.8C23 56.7 46 60.3 68.8 58.7C91.7 57 114.3 50 137.2 50C160 50 183 57 205.8 62.3C228.7 67.7 251.3 71.3 274.2 72.2C297 73 320 71 342.8 67.2C365.7 63.3 388.3 57.7 411.2 56.7C434 55.7 457 59.3 480 58.7C503 58 526 53 548.8 50.3C571.7 47.7 594.3 47.3 617.2 50.2C640 53 663 59 685.8 58.5C708.7 58 731.3 51 754.2 50.8C777 50.7 800 57.3 822.8 62.8C845.7 68.3 868.3 72.7 891.2 72.8C914 73 937 69 948.5 67L960 65L960 0L948.5 0C937 0 914 0 891.2 0C868.3 0 845.7 0 822.8 0C800 0 777 0 754.2 0C731.3 0 708.7 0 685.8 0C663 0 640 0 617.2 0C594.3 0 571.7 0 548.8 0C526 0 503 0 480 0C457 0 434 0 411.2 0C388.3 0 365.7 0 342.8 0C320 0 297 0 274.2 0C251.3 0 228.7 0 205.8 0C183 0 160 0 137.2 0C114.3 0 91.7 0 68.8 0C46 0 23 0 11.5 0L0 0Z" fill="#5fa5a2"></path><path d="M0 66L11.5 61.3C23 56.7 46 47.3 68.8 42.3C91.7 37.3 114.3 36.7 137.2 39C160 41.3 183 46.7 205.8 48.3C228.7 50 251.3 48 274.2 47.5C297 47 320 48 342.8 46.7C365.7 45.3 388.3 41.7 411.2 41.2C434 40.7 457 43.3 480 47.7C503 52 526 58 548.8 57.2C571.7 56.3 594.3 48.7 617.2 46.8C640 45 663 49 685.8 51.7C708.7 54.3 731.3 55.7 754.2 56.5C777 57.3 800 57.7 822.8 55.5C845.7 53.3 868.3 48.7 891.2 46.8C914 45 937 46 948.5 46.5L960 47L960 0L948.5 0C937 0 914 0 891.2 0C868.3 0 845.7 0 822.8 0C800 0 777 0 754.2 0C731.3 0 708.7 0 685.8 0C663 0 640 0 617.2 0C594.3 0 571.7 0 548.8 0C526 0 503 0 480 0C457 0 434 0 411.2 0C388.3 0 365.7 0 342.8 0C320 0 297 0 274.2 0C251.3 0 228.7 0 205.8 0C183 0 160 0 137.2 0C114.3 0 91.7 0 68.8 0C46 0 23 0 11.5 0L0 0Z" fill="#509d9a"></path><path d="M0 30L11.5 32.7C23 35.3 46 40.7 68.8 42C91.7 43.3 114.3 40.7 137.2 39.2C160 37.7 183 37.3 205.8 37.7C228.7 38 251.3 39 274.2 39.3C297 39.7 320 39.3 342.8 39.3C365.7 39.3 388.3 39.7 411.2 37.3C434 35 457 30 480 31.8C503 33.7 526 42.3 548.8 44.8C571.7 47.3 594.3 43.7 617.2 42.8C640 42 663 44 685.8 41.2C708.7 38.3 731.3 30.7 754.2 28.8C777 27 800 31 822.8 33.8C845.7 36.7 868.3 38.3 891.2 41C914 43.7 937 47.3 948.5 49.2L960 51L960 0L948.5 0C937 0 914 0 891.2 0C868.3 0 845.7 0 822.8 0C800 0 777 0 754.2 0C731.3 0 708.7 0 685.8 0C663 0 640 0 617.2 0C594.3 0 571.7 0 548.8 0C526 0 503 0 480 0C457 0 434 0 411.2 0C388.3 0 365.7 0 342.8 0C320 0 297 0 274.2 0C251.3 0 228.7 0 205.8 0C183 0 160 0 137.2 0C114.3 0 91.7 0 68.8 0C46 0 23 0 11.5 0L0 0Z" fill="#409592"></path><path d="M0 16L11.5 17.3C23 18.7 46 21.3 68.8 23.3C91.7 25.3 114.3 26.7 137.2 28.8C160 31 183 34 205.8 32.8C228.7 31.7 251.3 26.3 274.2 26.2C297 26 320 31 342.8 32.5C365.7 34 388.3 32 411.2 31.5C434 31 457 32 480 31.2C503 30.3 526 27.7 548.8 28.2C571.7 28.7 594.3 32.3 617.2 34.5C640 36.7 663 37.3 685.8 35.5C708.7 33.7 731.3 29.3 754.2 27C777 24.7 800 24.3 822.8 26C845.7 27.7 868.3 31.3 891.2 31C914 30.7 937 26.3 948.5 24.2L960 22L960 0L948.5 0C937 0 914 0 891.2 0C868.3 0 845.7 0 822.8 0C800 0 777 0 754.2 0C731.3 0 708.7 0 685.8 0C663 0 640 0 617.2 0C594.3 0 571.7 0 548.8 0C526 0 503 0 480 0C457 0 434 0 411.2 0C388.3 0 365.7 0 342.8 0C320 0 297 0 274.2 0C251.3 0 228.7 0 205.8 0C183 0 160 0 137.2 0C114.3 0 91.7 0 68.8 0C46 0 23 0 11.5 0L0 0Z" fill="#2e8d8a"></path><path d="M0 7L11.5 8.5C23 10 46 13 68.8 13.7C91.7 14.3 114.3 12.7 137.2 12.5C160 12.3 183 13.7 205.8 14.2C228.7 14.7 251.3 14.3 274.2 15.8C297 17.3 320 20.7 342.8 20.2C365.7 19.7 388.3 15.3 411.2 14.2C434 13 457 15 480 14.2C503 13.3 526 9.7 548.8 9.7C571.7 9.7 594.3 13.3 617.2 13.5C640 13.7 663 10.3 685.8 8.7C708.7 7 731.3 7 754.2 9.8C777 12.7 800 18.3 822.8 17.8C845.7 17.3 868.3 10.7 891.2 10C914 9.3 937 14.7 948.5 17.3L960 20L960 0L948.5 0C937 0 914 0 891.2 0C868.3 0 845.7 0 822.8 0C800 0 777 0 754.2 0C731.3 0 708.7 0 685.8 0C663 0 640 0 617.2 0C594.3 0 571.7 0 548.8 0C526 0 503 0 480 0C457 0 434 0 411.2 0C388.3 0 365.7 0 342.8 0C320 0 297 0 274.2 0C251.3 0 228.7 0 205.8 0C183 0 160 0 137.2 0C114.3 0 91.7 0 68.8 0C46 0 23 0 11.5 0L0 0Z" fill="#148582"></path></svg>