<svg id="visual" viewBox="0 0 960 120" width="960" height="120" xmlns="http://www.w3.org/2000/svg" xmlns:xlink="http://www.w3.org/1999/xlink" version="1.1"><rect x="0" y="0" width="960" height="120" fill="#d2d6e2"></rect><path d="M0 75L11.5 76.8C23 78.7 46 82.3 68.8 84.8C91.7 87.3 114.3 88.7 137.2 87C160 85.3 183 80.7 205.8 81.7C228.7 82.7 251.3 89.3 274.2 86.7C297 84 320 72 342.8 70.5C365.7 69 388.3 78 411.2 79.8C434 81.7 457 76.3 480 72C503 67.7 526 64.3 548.8 62.7C571.7 61 594.3 61 617.2 67.3C640 73.7 663 86.3 685.8 87.7C708.7 89 731.3 79 754.2 78.2C777 77.3 800 85.7 822.8 91.2C845.7 96.7 868.3 99.3 891.2 94C914 88.7 937 75.3 948.5 68.7L960 62L960 0L948.5 0C937 0 914 0 891.2 0C868.3 0 845.7 0 822.8 0C800 0 777 0 754.2 0C731.3 0 708.7 0 685.8 0C663 0 640 0 617.2 0C594.3 0 571.7 0 548.8 0C526 0 503 0 480 0C457 0 434 0 411.2 0C388.3 0 365.7 0 342.8 0C320 0 297 0 274.2 0C251.3 0 228.7 0 205.8 0C183 0 160 0 137.2 0C114.3 0 91.7 0 68.8 0C46 0 23 0 11.5 0L0 0Z" fill="#5aecc1"></path><path d="M0 66L11.5 63.8C23 61.7 46 57.3 68.8 60.5C91.7 63.7 114.3 74.3 137.2 78.2C160 82 183 79 205.8 76.3C228.7 73.7 251.3 71.3 274.2 69.2C297 67 320 65 342.8 65.8C365.7 66.7 388.3 70.3 411.2 68.2C434 66 457 58 480 54.5C503 51 526 52 548.8 53C571.7 54 594.3 55 617.2 60.2C640 65.3 663 74.7 685.8 78C708.7 81.3 731.3 78.7 754.2 77.2C777 75.7 800 75.3 822.8 72C845.7 68.7 868.3 62.3 891.2 60.3C914 58.3 937 60.7 948.5 61.8L960 63L960 0L948.5 0C937 0 914 0 891.2 0C868.3 0 845.7 0 822.8 0C800 0 777 0 754.2 0C731.3 0 708.7 0 685.8 0C663 0 640 0 617.2 0C594.3 0 571.7 0 548.8 0C526 0 503 0 480 0C457 0 434 0 411.2 0C388.3 0 365.7 0 342.8 0C320 0 297 0 274.2 0C251.3 0 228.7 0 205.8 0C183 0 160 0 137.2 0C114.3 0 91.7 0 68.8 0C46 0 23 0 11.5 0L0 0Z" fill="#50e2b8"></path><path d="M0 76L11.5 72.2C23 68.3 46 60.7 68.8 56.3C91.7 52 114.3 51 137.2 49.2C160 47.3 183 44.7 205.8 48.2C228.7 51.7 251.3 61.3 274.2 64C297 66.7 320 62.3 342.8 62.5C365.7 62.7 388.3 67.3 411.2 68.5C434 69.7 457 67.3 480 64.8C503 62.3 526 59.7 548.8 60.5C571.7 61.3 594.3 65.7 617.2 65.5C640 65.3 663 60.7 685.8 59C708.7 57.3 731.3 58.7 754.2 58.8C777 59 800 58 822.8 60.8C845.7 63.7 868.3 70.3 891.2 70.7C914 71 937 65 948.5 62L960 59L960 0L948.5 0C937 0 914 0 891.2 0C868.3 0 845.7 0 822.8 0C800 0 777 0 754.2 0C731.3 0 708.7 0 685.8 0C663 0 640 0 617.2 0C594.3 0 571.7 0 548.8 0C526 0 503 0 480 0C457 0 434 0 411.2 0C388.3 0 365.7 0 342.8 0C320 0 297 0 274.2 0C251.3 0 228.7 0 205.8 0C183 0 160 0 137.2 0C114.3 0 91.7 0 68.8 0C46 0 23 0 11.5 0L0 0Z" fill="#45d9af"></path><path d="M0 36L11.5 40C23 44 46 52 68.8 55.2C91.7 58.3 114.3 56.7 137.2 57C160 57.3 183 59.7 205.8 58.3C228.7 57 251.3 52 274.2 49.5C297 47 320 47 342.8 46.3C365.7 45.7 388.3 44.3 411.2 46.8C434 49.3 457 55.7 480 54.2C503 52.7 526 43.3 548.8 43.5C571.7 43.7 594.3 53.3 617.2 57.5C640 61.7 663 60.3 685.8 55.7C708.7 51 731.3 43 754.2 40C777 37 800 39 822.8 41.2C845.7 43.3 868.3 45.7 891.2 48.8C914 52 937 56 948.5 58L960 60L960 0L948.5 0C937 0 914 0 891.2 0C868.3 0 845.7 0 822.8 0C800 0 777 0 754.2 0C731.3 0 708.7 0 685.8 0C663 0 640 0 617.2 0C594.3 0 571.7 0 548.8 0C526 0 503 0 480 0C457 0 434 0 411.2 0C388.3 0 365.7 0 342.8 0C320 0 297 0 274.2 0C251.3 0 228.7 0 205.8 0C183 0 160 0 137.2 0C114.3 0 91.7 0 68.8 0C46 0 23 0 11.5 0L0 0Z" fill="#39cfa6"></path><path d="M0 26L11.5 26C23 26 46 26 68.8 25.5C91.7 25 114.3 24 137.2 24.8C160 25.7 183 28.3 205.8 32.5C228.7 36.7 251.3 42.3 274.2 44.5C297 46.7 320 45.3 342.8 41.3C365.7 37.3 388.3 30.7 411.2 29.8C434 29 457 34 480 37.2C503 40.3 526 41.7 548.8 43C571.7 44.3 594.3 45.7 617.2 45.2C640 44.7 663 42.3 685.8 40.2C708.7 38 731.3 36 754.2 34.7C777 33.3 800 32.7 822.8 34.7C845.7 36.7 868.3 41.3 891.2 41C914 40.7 937 35.3 948.5 32.7L960 30L960 0L948.5 0C937 0 914 0 891.2 0C868.3 0 845.7 0 822.8 0C800 0 777 0 754.2 0C731.3 0 708.7 0 685.8 0C663 0 640 0 617.2 0C594.3 0 571.7 0 548.8 0C526 0 503 0 480 0C457 0 434 0 411.2 0C388.3 0 365.7 0 342.8 0C320 0 297 0 274.2 0C251.3 0 228.7 0 205.8 0C183 0 160 0 137.2 0C114.3 0 91.7 0 68.8 0C46 0 23 0 11.5 0L0 0Z" fill="#2cc69d"></path><path d="M0 30L11.5 28.2C23 26.3 46 22.7 68.8 21.2C91.7 19.7 114.3 20.3 137.2 19.7C160 19 183 17 205.8 19.5C228.7 22 251.3 29 274.2 31.3C297 33.7 320 31.3 342.8 28C365.7 24.7 388.3 20.3 411.2 18.8C434 17.3 457 18.7 480 18.5C503 18.3 526 16.7 548.8 19C571.7 21.3 594.3 27.7 617.2 30.5C640 33.3 663 32.7 685.8 32.8C708.7 33 731.3 34 754.2 33.7C777 33.3 800 31.7 822.8 30.5C845.7 29.3 868.3 28.7 891.2 27.3C914 26 937 24 948.5 23L960 22L960 0L948.5 0C937 0 914 0 891.2 0C868.3 0 845.7 0 822.8 0C800 0 777 0 754.2 0C731.3 0 708.7 0 685.8 0C663 0 640 0 617.2 0C594.3 0 571.7 0 548.8 0C526 0 503 0 480 0C457 0 434 0 411.2 0C388.3 0 365.7 0 342.8 0C320 0 297 0 274.2 0C251.3 0 228.7 0 205.8 0C183 0 160 0 137.2 0C114.3 0 91.7 0 68.8 0C46 0 23 0 11.5 0L0 0Z" fill="#1cbc94"></path><path d="M0 21L11.5 21.3C23 21.7 46 22.3 68.8 22.5C91.7 22.7 114.3 22.3 137.2 19.5C160 16.7 183 11.3 205.8 10.2C228.7 9 251.3 12 274.2 14.7C297 17.3 320 19.7 342.8 18.5C365.7 17.3 388.3 12.7 411.2 11.2C434 9.7 457 11.3 480 11.7C503 12 526 11 548.8 12.3C571.7 13.7 594.3 17.3 617.2 17.3C640 17.3 663 13.7 685.8 13.7C708.7 13.7 731.3 17.3 754.2 17.5C777 17.7 800 14.3 822.8 12.2C845.7 10 868.3 9 891.2 9.3C914 9.7 937 11.3 948.5 12.2L960 13L960 0L948.5 0C937 0 914 0 891.2 0C868.3 0 845.7 0 822.8 0C800 0 777 0 754.2 0C731.3 0 708.7 0 685.8 0C663 0 640 0 617.2 0C594.3 0 571.7 0 548.8 0C526 0 503 0 480 0C457 0 434 0 411.2 0C388.3 0 365.7 0 342.8 0C320 0 297 0 274.2 0C251.3 0 228.7 0 205.8 0C183 0 160 0 137.2 0C114.3 0 91.7 0 68.8 0C46 0 23 0 11.5 0L0 0Z" fill="#00b38b"></path></svg>