<svg id="visual" viewBox="0 0 960 120" width="960" height="120" xmlns="http://www.w3.org/2000/svg" xmlns:xlink="http://www.w3.org/1999/xlink" version="1.1"><rect x="0" y="0" width="960" height="120" fill="#d2d6e2"></rect><path d="M0 26L8.8 26.3C17.7 26.7 35.3 27.3 53.2 32.2C71 37 89 46 106.8 49.8C124.7 53.7 142.3 52.3 160 51.7C177.7 51 195.3 51 213.2 51.3C231 51.7 249 52.3 266.8 49.7C284.7 47 302.3 41 320 37.8C337.7 34.7 355.3 34.3 373.2 31.5C391 28.7 409 23.3 426.8 26C444.7 28.7 462.3 39.3 480 43.3C497.7 47.3 515.3 44.7 533.2 42.8C551 41 569 40 586.8 41.5C604.7 43 622.3 47 640 44.7C657.7 42.3 675.3 33.7 693.2 34C711 34.3 729 43.7 746.8 48.7C764.7 53.7 782.3 54.3 800 49.5C817.7 44.7 835.3 34.3 853.2 29C871 23.7 889 23.3 906.8 27.7C924.7 32 942.3 41 951.2 45.5L960 50L960 121L951.2 121C942.3 121 924.7 121 906.8 121C889 121 871 121 853.2 121C835.3 121 817.7 121 800 121C782.3 121 764.7 121 746.8 121C729 121 711 121 693.2 121C675.3 121 657.7 121 640 121C622.3 121 604.7 121 586.8 121C569 121 551 121 533.2 121C515.3 121 497.7 121 480 121C462.3 121 444.7 121 426.8 121C409 121 391 121 373.2 121C355.3 121 337.7 121 320 121C302.3 121 284.7 121 266.8 121C249 121 231 121 213.2 121C195.3 121 177.7 121 160 121C142.3 121 124.7 121 106.8 121C89 121 71 121 53.2 121C35.3 121 17.7 121 8.8 121L0 121Z" fill="#7bb6b3"></path><path d="M0 57L8.8 54C17.7 51 35.3 45 53.2 44.7C71 44.3 89 49.7 106.8 50.3C124.7 51 142.3 47 160 46.5C177.7 46 195.3 49 213.2 50.8C231 52.7 249 53.3 266.8 52.8C284.7 52.3 302.3 50.7 320 47.3C337.7 44 355.3 39 373.2 40.7C391 42.3 409 50.7 426.8 52.7C444.7 54.7 462.3 50.3 480 46.7C497.7 43 515.3 40 533.2 43.5C551 47 569 57 586.8 62C604.7 67 622.3 67 640 64.8C657.7 62.7 675.3 58.3 693.2 55.8C711 53.3 729 52.7 746.8 53C764.7 53.3 782.3 54.7 800 55C817.7 55.3 835.3 54.7 853.2 53.3C871 52 889 50 906.8 51.7C924.7 53.3 942.3 58.7 951.2 61.3L960 64L960 121L951.2 121C942.3 121 924.7 121 906.8 121C889 121 871 121 853.2 121C835.3 121 817.7 121 800 121C782.3 121 764.7 121 746.8 121C729 121 711 121 693.2 121C675.3 121 657.7 121 640 121C622.3 121 604.7 121 586.8 121C569 121 551 121 533.2 121C515.3 121 497.7 121 480 121C462.3 121 444.7 121 426.8 121C409 121 391 121 373.2 121C355.3 121 337.7 121 320 121C302.3 121 284.7 121 266.8 121C249 121 231 121 213.2 121C195.3 121 177.7 121 160 121C142.3 121 124.7 121 106.8 121C89 121 71 121 53.2 121C35.3 121 17.7 121 8.8 121L0 121Z" fill="#6aaca9"></path><path d="M0 57L8.8 59.8C17.7 62.7 35.3 68.3 53.2 70.8C71 73.3 89 72.7 106.8 70.2C124.7 67.7 142.3 63.3 160 59.8C177.7 56.3 195.3 53.7 213.2 52.7C231 51.7 249 52.3 266.8 55.3C284.7 58.3 302.3 63.7 320 66.5C337.7 69.3 355.3 69.7 373.2 71C391 72.3 409 74.7 426.8 71.8C444.7 69 462.3 61 480 59.2C497.7 57.3 515.3 61.7 533.2 64.8C551 68 569 70 586.8 71.3C604.7 72.7 622.3 73.3 640 72.5C657.7 71.7 675.3 69.3 693.2 65.7C711 62 729 57 746.8 54.3C764.7 51.7 782.3 51.3 800 53.8C817.7 56.3 835.3 61.7 853.2 62.2C871 62.7 889 58.3 906.8 56.2C924.7 54 942.3 54 951.2 54L960 54L960 121L951.2 121C942.3 121 924.7 121 906.8 121C889 121 871 121 853.2 121C835.3 121 817.7 121 800 121C782.3 121 764.7 121 746.8 121C729 121 711 121 693.2 121C675.3 121 657.7 121 640 121C622.3 121 604.7 121 586.8 121C569 121 551 121 533.2 121C515.3 121 497.7 121 480 121C462.3 121 444.7 121 426.8 121C409 121 391 121 373.2 121C355.3 121 337.7 121 320 121C302.3 121 284.7 121 266.8 121C249 121 231 121 213.2 121C195.3 121 177.7 121 160 121C142.3 121 124.7 121 106.8 121C89 121 71 121 53.2 121C35.3 121 17.7 121 8.8 121L0 121Z" fill="#59a29f"></path><path d="M0 72L8.8 70.7C17.7 69.3 35.3 66.7 53.2 66.8C71 67 89 70 106.8 70C124.7 70 142.3 67 160 67.2C177.7 67.3 195.3 70.7 213.2 74.3C231 78 249 82 266.8 83.8C284.7 85.7 302.3 85.3 320 83.2C337.7 81 355.3 77 373.2 73.8C391 70.7 409 68.3 426.8 70.2C444.7 72 462.3 78 480 77.5C497.7 77 515.3 70 533.2 68.3C551 66.7 569 70.3 586.8 72.3C604.7 74.3 622.3 74.7 640 74.2C657.7 73.7 675.3 72.3 693.2 73.3C711 74.3 729 77.7 746.8 78.7C764.7 79.7 782.3 78.3 800 76C817.7 73.7 835.3 70.3 853.2 72C871 73.7 889 80.3 906.8 80.8C924.7 81.3 942.3 75.7 951.2 72.8L960 70L960 121L951.2 121C942.3 121 924.7 121 906.8 121C889 121 871 121 853.2 121C835.3 121 817.7 121 800 121C782.3 121 764.7 121 746.8 121C729 121 711 121 693.2 121C675.3 121 657.7 121 640 121C622.3 121 604.7 121 586.8 121C569 121 551 121 533.2 121C515.3 121 497.7 121 480 121C462.3 121 444.7 121 426.8 121C409 121 391 121 373.2 121C355.3 121 337.7 121 320 121C302.3 121 284.7 121 266.8 121C249 121 231 121 213.2 121C195.3 121 177.7 121 160 121C142.3 121 124.7 121 106.8 121C89 121 71 121 53.2 121C35.3 121 17.7 121 8.8 121L0 121Z" fill="#479895"></path><path d="M0 84L8.8 86.2C17.7 88.3 35.3 92.7 53.2 92.7C71 92.7 89 88.3 106.8 85.8C124.7 83.3 142.3 82.7 160 85.2C177.7 87.7 195.3 93.3 213.2 94C231 94.7 249 90.3 266.8 89.3C284.7 88.3 302.3 90.7 320 90.5C337.7 90.3 355.3 87.7 373.2 86.7C391 85.7 409 86.3 426.8 87.7C444.7 89 462.3 91 480 89.7C497.7 88.3 515.3 83.7 533.2 84C551 84.3 569 89.7 586.8 93C604.7 96.3 622.3 97.7 640 98.2C657.7 98.7 675.3 98.3 693.2 96.2C711 94 729 90 746.8 88.2C764.7 86.3 782.3 86.7 800 88.3C817.7 90 835.3 93 853.2 92.8C871 92.7 889 89.3 906.8 89.5C924.7 89.7 942.3 93.3 951.2 95.2L960 97L960 121L951.2 121C942.3 121 924.7 121 906.8 121C889 121 871 121 853.2 121C835.3 121 817.7 121 800 121C782.3 121 764.7 121 746.8 121C729 121 711 121 693.2 121C675.3 121 657.7 121 640 121C622.3 121 604.7 121 586.8 121C569 121 551 121 533.2 121C515.3 121 497.7 121 480 121C462.3 121 444.7 121 426.8 121C409 121 391 121 373.2 121C355.3 121 337.7 121 320 121C302.3 121 284.7 121 266.8 121C249 121 231 121 213.2 121C195.3 121 177.7 121 160 121C142.3 121 124.7 121 106.8 121C89 121 71 121 53.2 121C35.3 121 17.7 121 8.8 121L0 121Z" fill="#328f8c"></path><path d="M0 107L8.8 107.3C17.7 107.7 35.3 108.3 53.2 106.5C71 104.7 89 100.3 106.8 99.2C124.7 98 142.3 100 160 100.8C177.7 101.7 195.3 101.3 213.2 101.8C231 102.3 249 103.7 266.8 104.3C284.7 105 302.3 105 320 104.3C337.7 103.7 355.3 102.3 373.2 101.3C391 100.3 409 99.7 426.8 100.8C444.7 102 462.3 105 480 104.7C497.7 104.3 515.3 100.7 533.2 98.8C551 97 569 97 586.8 98.8C604.7 100.7 622.3 104.3 640 103.8C657.7 103.3 675.3 98.7 693.2 97.2C711 95.7 729 97.3 746.8 99.2C764.7 101 782.3 103 800 103.2C817.7 103.3 835.3 101.7 853.2 102C871 102.3 889 104.7 906.8 106C924.7 107.3 942.3 107.7 951.2 107.8L960 108L960 121L951.2 121C942.3 121 924.7 121 906.8 121C889 121 871 121 853.2 121C835.3 121 817.7 121 800 121C782.3 121 764.7 121 746.8 121C729 121 711 121 693.2 121C675.3 121 657.7 121 640 121C622.3 121 604.7 121 586.8 121C569 121 551 121 533.2 121C515.3 121 497.7 121 480 121C462.3 121 444.7 121 426.8 121C409 121 391 121 373.2 121C355.3 121 337.7 121 320 121C302.3 121 284.7 121 266.8 121C249 121 231 121 213.2 121C195.3 121 177.7 121 160 121C142.3 121 124.7 121 106.8 121C89 121 71 121 53.2 121C35.3 121 17.7 121 8.8 121L0 121Z" fill="#148582"></path></svg>