<svg id="visual" viewBox="0 0 960 120" width="960" height="120" xmlns="http://www.w3.org/2000/svg" xmlns:xlink="http://www.w3.org/1999/xlink" version="1.1"><rect x="0" y="0" width="960" height="120" fill="#d2d6e2"></rect><path d="M0 71L12.3 75.3C24.7 79.7 49.3 88.3 74 91.3C98.7 94.3 123.3 91.7 148 90.5C172.7 89.3 197.3 89.7 221.8 88C246.3 86.3 270.7 82.7 295.2 78.8C319.7 75 344.3 71 369 73C393.7 75 418.3 83 443 83.8C467.7 84.7 492.3 78.3 517 79.3C541.7 80.3 566.3 88.7 591 93C615.7 97.3 640.3 97.7 664.8 96.2C689.3 94.7 713.7 91.3 738.2 90C762.7 88.7 787.3 89.3 812 88.8C836.7 88.3 861.3 86.7 886 83C910.7 79.3 935.3 73.7 947.7 70.8L960 68L960 0L947.7 0C935.3 0 910.7 0 886 0C861.3 0 836.7 0 812 0C787.3 0 762.7 0 738.2 0C713.7 0 689.3 0 664.8 0C640.3 0 615.7 0 591 0C566.3 0 541.7 0 517 0C492.3 0 467.7 0 443 0C418.3 0 393.7 0 369 0C344.3 0 319.7 0 295.2 0C270.7 0 246.3 0 221.8 0C197.3 0 172.7 0 148 0C123.3 0 98.7 0 74 0C49.3 0 24.7 0 12.3 0L0 0Z" fill="#f9ebb5"></path><path d="M0 69L12.3 69C24.7 69 49.3 69 74 66.3C98.7 63.7 123.3 58.3 148 59.5C172.7 60.7 197.3 68.3 221.8 68.2C246.3 68 270.7 60 295.2 60.8C319.7 61.7 344.3 71.3 369 74C393.7 76.7 418.3 72.3 443 67.8C467.7 63.3 492.3 58.7 517 61C541.7 63.3 566.3 72.7 591 76.8C615.7 81 640.3 80 664.8 78.5C689.3 77 713.7 75 738.2 70.8C762.7 66.7 787.3 60.3 812 59C836.7 57.7 861.3 61.3 886 64.7C910.7 68 935.3 71 947.7 72.5L960 74L960 0L947.7 0C935.3 0 910.7 0 886 0C861.3 0 836.7 0 812 0C787.3 0 762.7 0 738.2 0C713.7 0 689.3 0 664.8 0C640.3 0 615.7 0 591 0C566.3 0 541.7 0 517 0C492.3 0 467.7 0 443 0C418.3 0 393.7 0 369 0C344.3 0 319.7 0 295.2 0C270.7 0 246.3 0 221.8 0C197.3 0 172.7 0 148 0C123.3 0 98.7 0 74 0C49.3 0 24.7 0 12.3 0L0 0Z" fill="#f3dfa5"></path><path d="M0 44L12.3 46C24.7 48 49.3 52 74 54.8C98.7 57.7 123.3 59.3 148 59.8C172.7 60.3 197.3 59.7 221.8 58.8C246.3 58 270.7 57 295.2 56.5C319.7 56 344.3 56 369 53.3C393.7 50.7 418.3 45.3 443 45.7C467.7 46 492.3 52 517 51.8C541.7 51.7 566.3 45.3 591 45.5C615.7 45.7 640.3 52.3 664.8 54.3C689.3 56.3 713.7 53.7 738.2 50.7C762.7 47.7 787.3 44.3 812 45.2C836.7 46 861.3 51 886 54.7C910.7 58.3 935.3 60.7 947.7 61.8L960 63L960 0L947.7 0C935.3 0 910.7 0 886 0C861.3 0 836.7 0 812 0C787.3 0 762.7 0 738.2 0C713.7 0 689.3 0 664.8 0C640.3 0 615.7 0 591 0C566.3 0 541.7 0 517 0C492.3 0 467.7 0 443 0C418.3 0 393.7 0 369 0C344.3 0 319.7 0 295.2 0C270.7 0 246.3 0 221.8 0C197.3 0 172.7 0 148 0C123.3 0 98.7 0 74 0C49.3 0 24.7 0 12.3 0L0 0Z" fill="#eed396"></path><path d="M0 41L12.3 41.8C24.7 42.7 49.3 44.3 74 44.7C98.7 45 123.3 44 148 40.5C172.7 37 197.3 31 221.8 30C246.3 29 270.7 33 295.2 35.2C319.7 37.3 344.3 37.7 369 36.2C393.7 34.7 418.3 31.3 443 31C467.7 30.7 492.3 33.3 517 34C541.7 34.7 566.3 33.3 591 31.3C615.7 29.3 640.3 26.7 664.8 27C689.3 27.3 713.7 30.7 738.2 34.3C762.7 38 787.3 42 812 40.3C836.7 38.7 861.3 31.3 886 30.3C910.7 29.3 935.3 34.7 947.7 37.3L960 40L960 0L947.7 0C935.3 0 910.7 0 886 0C861.3 0 836.7 0 812 0C787.3 0 762.7 0 738.2 0C713.7 0 689.3 0 664.8 0C640.3 0 615.7 0 591 0C566.3 0 541.7 0 517 0C492.3 0 467.7 0 443 0C418.3 0 393.7 0 369 0C344.3 0 319.7 0 295.2 0C270.7 0 246.3 0 221.8 0C197.3 0 172.7 0 148 0C123.3 0 98.7 0 74 0C49.3 0 24.7 0 12.3 0L0 0Z" fill="#e9c788"></path><path d="M0 16L12.3 16.3C24.7 16.7 49.3 17.3 74 18.2C98.7 19 123.3 20 148 19.8C172.7 19.7 197.3 18.3 221.8 16.5C246.3 14.7 270.7 12.3 295.2 11.5C319.7 10.7 344.3 11.3 369 14.2C393.7 17 418.3 22 443 23.7C467.7 25.3 492.3 23.7 517 20.8C541.7 18 566.3 14 591 13.5C615.7 13 640.3 16 664.8 16C689.3 16 713.7 13 738.2 12C762.7 11 787.3 12 812 14.2C836.7 16.3 861.3 19.7 886 20.2C910.7 20.7 935.3 18.3 947.7 17.2L960 16L960 0L947.7 0C935.3 0 910.7 0 886 0C861.3 0 836.7 0 812 0C787.3 0 762.7 0 738.2 0C713.7 0 689.3 0 664.8 0C640.3 0 615.7 0 591 0C566.3 0 541.7 0 517 0C492.3 0 467.7 0 443 0C418.3 0 393.7 0 369 0C344.3 0 319.7 0 295.2 0C270.7 0 246.3 0 221.8 0C197.3 0 172.7 0 148 0C123.3 0 98.7 0 74 0C49.3 0 24.7 0 12.3 0L0 0Z" fill="#e5ba7a"></path></svg>